<?xml version="1.0" encoding="utf-8"?>
<!-- Generator: Adobe Illustrator 23.0.2, SVG Export Plug-In . SVG Version: 6.00 Build 0)  -->
<svg version="1.1" id="Layer_1" xmlns="http://www.w3.org/2000/svg" xmlns:xlink="http://www.w3.org/1999/xlink" x="0px" y="0px"
	 viewBox="0 0 296 185.9" style="enable-background:new 0 0 296 185.9;" xml:space="preserve">
<style type="text/css">
	.st0{fill:url(#SVGID_1_);}
	.st1{fill:#0E4595;}
	.st2{fill:#FFFFFF;}
	.st3{fill:#92DBEF;}
	.st4{fill:#B02444;}
	.st5{fill:#0079BE;}
	.st6{fill:#26A6D1;}
	.st7{fill:#8EB829;}
	.st8{fill:#00A7DE;}
	.st9{fill-rule:evenodd;clip-rule:evenodd;fill:#FFFFFF;stroke:#FFFFFF;stroke-width:0.5669;stroke-miterlimit:10;}
	.st10{fill-rule:evenodd;clip-rule:evenodd;fill:#EE7D00;stroke:#FFFFFF;stroke-width:0.216;stroke-miterlimit:10;}
	.st11{fill-rule:evenodd;clip-rule:evenodd;fill:#FFFFFF;}
	.st12{fill-rule:evenodd;clip-rule:evenodd;fill:#FCDD14;}
	.st13{fill-rule:evenodd;clip-rule:evenodd;fill:#E21E84;}
	.st14{fill:#1A5EA8;}
	.st15{fill:#9D1A7E;}
	.st16{fill:#FAD00B;}
	.st17{fill:#067853;}
	.st18{fill:#E8232B;}
	.st19{fill:#263B80;}
	.st20{fill:#232C65;}
	.st21{fill:#139AD6;}
	.st22{fill:#E23221;}
	.st23{fill:#382D71;}
	.st24{fill:none;}
	.st25{fill:#036EB1;}
	.st26{fill:url(#SVGID_2_);}
	.st27{fill:url(#SVGID_3_);}
	.st28{fill:url(#SVGID_4_);}
	.st29{fill:url(#SVGID_5_);}
	.st30{fill:url(#SVGID_6_);}
	.st31{fill:url(#SVGID_7_);}
	.st32{fill:url(#SVGID_8_);}
	.st33{fill:url(#SVGID_9_);}
	.st34{fill:#F49824;}
	.st35{clip-path:url(#SVGID_11_);}
	.st36{fill:#9B2A2B;}
	.st37{fill:#E95527;}
	.st38{fill:#F2AE14;}
	.st39{fill:#FF5F00;}
	.st40{fill:#EB001B;}
	.st41{fill:#F79E1B;}
	.st42{fill:#7673C0;}
	.st43{fill:#00A1DF;}
	.st44{fill:#000F9F;}
	.st45{fill:#009EE2;}
</style>
<path id="Rectangle-1_3_" class="st6" d="M15.8,0h264.4c8.7,0,15.8,7.1,15.8,15.8v154.3c0,8.7-7.1,15.8-15.8,15.8H15.8
	c-8.7,0-15.8-7.1-15.8-15.8V15.8C0,7.1,7.1,0,15.8,0z"/>
<path class="st2" d="M49.1,61l-28.8,63.8h34.5l4.3-10.2h9.8l4.3,10.2h38V117l3.4,7.8h19.6l3.4-7.9v7.9h79l9.6-9.9l9,9.9l40.6,0.1
	l-28.9-31.8L275.6,61h-39.9l-9.3,9.7l-8.7-9.7h-85.9l-7.4,16.5L116.8,61H82.4v7.5L78.6,61C78.6,61,49.1,61,49.1,61z M55.8,70.1h16.8
	l19.1,43.2V70.1h18.4l14.8,31l13.6-31h18.3v45.8h-11.2L145.6,80l-16.3,35.9h-10L103,80v35.9H80.1l-4.3-10.3H52.2l-4.3,10.2H35.6
	C35.6,115.8,55.8,70.1,55.8,70.1z M167.1,70.1h45.3l13.9,15l14.3-15h13.9l-21.1,23l21.1,22.7H240l-13.9-15.2l-14.4,15.2h-44.6
	L167.1,70.1L167.1,70.1z M64,77.8l-7.7,18.3h15.5L64,77.8z M178.3,79.5v8.4H203v9.3h-24.7v9.1H206l12.9-13.4l-12.3-13.4L178.3,79.5
	L178.3,79.5z"/>
</svg>
