<?xml version="1.0" encoding="utf-8"?>
<!-- Generator: Adobe Illustrator 23.0.2, SVG Export Plug-In . SVG Version: 6.00 Build 0)  -->
<svg version="1.1" id="Layer_1" xmlns="http://www.w3.org/2000/svg" xmlns:xlink="http://www.w3.org/1999/xlink" x="0px" y="0px"
	 viewBox="0 0 296 185.9" style="enable-background:new 0 0 296 185.9;" xml:space="preserve">
<style type="text/css">
	.st0{fill:url(#SVGID_1_);}
	.st1{fill:#0E4595;}
	.st2{fill:#FFFFFF;}
	.st3{fill:#92DBEF;}
	.st4{fill:#B02444;}
	.st5{fill:#0079BE;}
	.st6{fill:#26A6D1;}
	.st7{fill:#8EB829;}
	.st8{fill:#00A7DE;}
	.st9{fill-rule:evenodd;clip-rule:evenodd;fill:#FFFFFF;stroke:#FFFFFF;stroke-width:0.5669;stroke-miterlimit:10;}
	.st10{fill-rule:evenodd;clip-rule:evenodd;fill:#EE7D00;stroke:#FFFFFF;stroke-width:0.216;stroke-miterlimit:10;}
	.st11{fill-rule:evenodd;clip-rule:evenodd;fill:#FFFFFF;}
	.st12{fill-rule:evenodd;clip-rule:evenodd;fill:#FCDD14;}
	.st13{fill-rule:evenodd;clip-rule:evenodd;fill:#E21E84;}
	.st14{fill:#1A5EA8;}
	.st15{fill:#9D1A7E;}
	.st16{fill:#FAD00B;}
	.st17{fill:#067853;}
	.st18{fill:#E8232B;}
	.st19{fill:#263B80;}
	.st20{fill:#232C65;}
	.st21{fill:#139AD6;}
	.st22{fill:#E23221;}
	.st23{fill:#382D71;}
	.st24{fill:none;}
	.st25{fill:#036EB1;}
	.st26{fill:url(#SVGID_2_);}
	.st27{fill:url(#SVGID_3_);}
	.st28{fill:url(#SVGID_4_);}
	.st29{fill:url(#SVGID_5_);}
	.st30{fill:url(#SVGID_6_);}
	.st31{fill:url(#SVGID_7_);}
	.st32{fill:url(#SVGID_8_);}
	.st33{fill:url(#SVGID_9_);}
	.st34{fill:#F49824;}
	.st35{clip-path:url(#SVGID_11_);}
	.st36{fill:#9B2A2B;}
	.st37{fill:#E95527;}
	.st38{fill:#F2AE14;}
	.st39{fill:#FF5F00;}
	.st40{fill:#EB001B;}
	.st41{fill:#F79E1B;}
	.st42{fill:#7673C0;}
	.st43{fill:#00A1DF;}
	.st44{fill:#000F9F;}
	.st45{fill:#009EE2;}
</style>
<path id="Rectangle-1_16_" class="st4" d="M15.8,0h264.4c8.7,0,15.8,7.1,15.8,15.8v154.3c0,8.7-7.1,15.8-15.8,15.8H15.8
	c-8.7,0-15.8-7.1-15.8-15.8V15.8C0,7.1,7.1,0,15.8,0z"/>
<g>
	<path class="st2" d="M158.1,44.9h35.1c23.4,0,24.5,16.3,24.5,21.1c0,16.3-13.3,21.7-13.3,21.7c-0.9,0.4-0.2,1.2-0.2,1.2
		c12,4.9,11.4,19,11.4,19c0,25.5-22.3,33-33.9,33h-36.9c-5.7,0-6.3-3.8-5.7-8.2l11.4-79.9C150.9,44.4,158.1,44.9,158.1,44.9z
		 M188.6,63.1h-19.4l-2.7,18.2h19c0,0,10.7-0.5,10.7-10.9C196.1,70.4,196.4,63.1,188.6,63.1z M184,98.1h-20l-3.4,24.4h20.1
		c4.1,0,13.9-2.2,13.9-14.1C194.6,108.4,195.8,99,184,98.1z"/>
	<path class="st2" d="M110.1,45.1h29.5c0.7,0,2.1,0.9,2,2.4l-1.3,9.3c0,0-1.6,6.5-8.5,6.5h-30.2c0,0-1.7,0.3-1.2-3l1.1-7.7
		C101.6,50.2,104.4,45.1,110.1,45.1z"/>
	<path class="st2" d="M88.4,83.4h45.8c0,0,2.1,0.3,1.9,2.4l-1.1,8.6c0,0-1.6,7.2-7.7,7.2H79.5c0,0-1.4,0-1.2-2l1.3-8.6
		C79.6,90.8,81.5,83.4,88.4,83.4z"/>
	<path class="st2" d="M99.3,122h29.5c0,0,2,0.2,1.8,2.4l-1.3,8.9c0,0-1.6,7.1-8.2,7.1H90.8c0,0-2.1,0.1-1.5-3.1l1.4-8.4
		C90.8,128.9,93.5,122,99.3,122z"/>
</g>
</svg>
