<?xml version="1.0" encoding="utf-8"?>
<!-- Generator: Adobe Illustrator 23.0.2, SVG Export Plug-In . SVG Version: 6.00 Build 0)  -->
<svg version="1.1" id="Layer_1" xmlns="http://www.w3.org/2000/svg" xmlns:xlink="http://www.w3.org/1999/xlink" x="0px" y="0px"
	 viewBox="0 0 296 185.9" style="enable-background:new 0 0 296 185.9;" xml:space="preserve">
<style type="text/css">
	.st0{fill:url(#SVGID_1_);}
	.st1{fill:#0E4595;}
	.st2{fill:#FFFFFF;}
	.st3{fill:#92DBEF;}
	.st4{fill:#B02444;}
	.st5{fill:#0079BE;}
	.st6{fill:#26A6D1;}
	.st7{fill:#8EB829;}
	.st8{fill:#00A7DE;}
	.st9{fill-rule:evenodd;clip-rule:evenodd;fill:#FFFFFF;stroke:#FFFFFF;stroke-width:0.5669;stroke-miterlimit:10;}
	.st10{fill-rule:evenodd;clip-rule:evenodd;fill:#EE7D00;stroke:#FFFFFF;stroke-width:0.216;stroke-miterlimit:10;}
	.st11{fill-rule:evenodd;clip-rule:evenodd;fill:#FFFFFF;}
	.st12{fill-rule:evenodd;clip-rule:evenodd;fill:#FCDD14;}
	.st13{fill-rule:evenodd;clip-rule:evenodd;fill:#E21E84;}
	.st14{fill:#1A5EA8;}
	.st15{fill:#9D1A7E;}
	.st16{fill:#FAD00B;}
	.st17{fill:#067853;}
	.st18{fill:#E8232B;}
	.st19{fill:#263B80;}
	.st20{fill:#232C65;}
	.st21{fill:#139AD6;}
	.st22{fill:#E23221;}
	.st23{fill:#382D71;}
	.st24{fill:none;}
	.st25{fill:#036EB1;}
	.st26{fill:url(#SVGID_2_);}
	.st27{fill:url(#SVGID_3_);}
	.st28{fill:url(#SVGID_4_);}
	.st29{fill:url(#SVGID_5_);}
	.st30{fill:url(#SVGID_6_);}
	.st31{fill:url(#SVGID_7_);}
	.st32{fill:url(#SVGID_8_);}
	.st33{fill:url(#SVGID_9_);}
	.st34{fill:#F49824;}
	.st35{clip-path:url(#SVGID_11_);}
	.st36{fill:#9B2A2B;}
	.st37{fill:#E95527;}
	.st38{fill:#F2AE14;}
	.st39{fill:#FF5F00;}
	.st40{fill:#EB001B;}
	.st41{fill:#F79E1B;}
	.st42{fill:#7673C0;}
	.st43{fill:#00A1DF;}
	.st44{fill:#000F9F;}
	.st45{fill:#009EE2;}
</style>
<path id="Rectangle-1_6_" class="st1" d="M15.8,0h264.4c8.7,0,15.8,7.1,15.8,15.8v154.3c0,8.7-7.1,15.8-15.8,15.8H15.8
	c-8.7,0-15.8-7.1-15.8-15.8V15.8C0,7.1,7.1,0,15.8,0z"/>
<g>
	<g>
		<path class="st9" d="M198.7,119.8c-0.4,0.8-0.9,1.6-1.3,2.4c-4.8,8.1-11.6,15-19.6,19.8c-9.3,5.7-20.3,8.7-31.2,8.3
			c-6.9-0.2-13.7-1.6-20.1-4.1c-10-4-18.8-10.9-25-19.6c-1.6-2.2-3-4.5-4.3-6.8H91c1.7,3.6,3.7,7,6,10.1
			c6.9,9.6,16.5,17.1,27.5,21.5c7,2.8,14.5,4.3,22,4.5c12,0.3,24.1-2.9,34.3-9.2c8.8-5.4,16.3-12.9,21.5-21.8c1-1.7,1.9-3.4,2.7-5.2
			H198.7z"/>
		<path class="st9" d="M92.5,78.3c2.4-9.2,7.1-17.8,13.6-24.7c6.8-7.3,15.6-12.8,25.2-15.7c14.6-4.5,30.9-2.8,44.3,4.6
			c1.8,1,3.5,2,5.1,3.2c-0.7,2.5-0.5,5.3,0.7,7.6c1.1,2.2,3,4,5.2,4.9c2.3,1,5,1.1,7.4,0.3c4.4,5.9,7.7,12.6,9.6,19.8h5.8
			c-1.9-8.1-5.4-15.8-10.3-22.5c1.3-1.5,2.2-3.4,2.5-5.4c0.2-1.2,0.2-2.5,0-3.7c-0.5-2.9-2.2-5.5-4.7-7.1c-2.3-1.5-5.2-2.2-7.9-1.7
			c-2.1,0.4-4,1.3-5.6,2.7c-1.6-1.1-3.3-2.1-5-3c-14.7-8.1-32.6-9.9-48.6-5c-10.5,3.2-20.1,9.2-27.6,17.2
			c-7.5,8-12.8,17.9-15.3,28.5H92.5z"/>
	</g>
	<path class="st10" d="M189.8,43.5c1.3-0.2,2.7,0.1,3.8,0.8c1.1,0.8,1.9,2,2.2,3.3c0.1,0.7,0.1,1.4,0,2c-0.4,2-2,3.7-4.1,4.2
		c-0.4,0.1-0.9,0-1.3,0c-1.9,0.1-3.7-1.1-4.5-2.7c-1.1-1.9-0.7-4.5,0.8-6.1C187.6,44.2,188.6,43.6,189.8,43.5z"/>
	<g>
		<path class="st11" d="M28,94.9L28,94.9c-1.2,5.5,1,11.4,5.3,14.9c6.6,6,18.3,4.5,23-3.1c-1.3-1.5-2.7-2.9-4.2-4.2
			c-1.8,2.2-4,4.5-7.1,4.8c-5.7,1.1-11.6-4.1-11.2-9.9c0.1-5,4.8-9.4,9.8-9.1c3.5-0.1,6.4,2.2,8.2,5c1.6-1.3,3.1-2.8,4.4-4.4
			c-2.8-4.4-8.1-7-13.3-6.7C35.8,82.2,29.2,87.9,28,94.9z"/>
		<path class="st11" d="M70.3,82.3L70.3,82.3v6.3c-1.5,0.3-2.9,1-4,2c-3,2.4-3.9,6.4-3.2,10c1.9-0.7,3.4-2.3,5.1-3.4
			c0.7-0.5,1.4-1.1,2.1-1.6v7.8c-1.1,0.8-2.1,1.7-3.2,2.6c1,0.6,2.1,1,3.2,1.2v6.3c-4.2-0.6-8.2-2.9-10.6-6.4
			c-3.2-4.4-3.8-10.4-1.7-15.4C60.2,86.7,65,83,70.3,82.3z"/>
		<path class="st11" d="M87.8,96.2L87.8,96.2c0,5.8,0,11.5,0,17.3c2.1,0.3,4.2,0.3,6.3,0c0-5.7-0.1-11.5,0-17.2c0.1-4.1,4-7.4,8-7.4
			c4.2-0.1,8.3,3.7,8,8c0,5.5,0,11.1,0,16.6c2.1,0.3,4.3,0.2,6.4,0.1c0-6.2,0.3-12.5-0.1-18.7c-0.7-7.7-8.8-13.3-16.3-12
			C93.5,83.5,87.5,89.4,87.8,96.2z"/>
		<path class="st11" d="M70.3,103.4L70.3,103.4c3.6-2.8,7.4-5.4,11-8.2c1.7-1.4,3.8-2.4,5.1-4.3c-2.3-5.3-8.1-8.8-13.9-8.7
			c-0.7,0-1.5,0-2.2,0.1v6.3c2.5-0.5,5.2-0.1,7.4,1.2c-2.3,2.2-4.9,3.9-7.4,5.8V103.4z"/>
		<path class="st11" d="M70.3,113.4L70.3,113.4v-6.3c2,0.4,4.1,0.4,6-0.5c2.1-0.9,3.6-2.7,5-4.4c1.5,1.4,3,2.9,4.3,4.4
			c-2.1,2.8-4.9,5-8.2,6.1C75.1,113.6,72.6,113.8,70.3,113.4z"/>
		<path class="st11" d="M146.2,106.8L146.2,106.8c-1.3-1.5-2.7-2.9-4.2-4.1c-1.7,1.8-3.5,3.9-6,4.5c-5.6,1.8-12.3-3-12.2-8.9
			c-0.4-5.5,4.9-10.4,10.3-9.8c3.3,0.1,5.9,2.5,7.9,4.9c1.3-1.4,3.2-2.5,4-4.4c-2.5-4.5-8.1-7-13.1-6.7c-6.6,0.1-12.7,4.9-14.5,11.1
			c-1.4,4.9-0.5,10.6,2.9,14.4c3.4,4.2,8.9,6.4,14.3,5.6c4.3-0.5,8.3-3,10.7-6.6V106.8z"/>
		<path class="st11" d="M146.2,96.8L146.2,96.8v3.1c0-0.6,0-1.2,0-1.8C146.2,97.7,146.2,97.3,146.2,96.8z"/>
		<polygon class="st11" points="146.2,106.9 146.2,106.9 146.3,106.8 146.2,106.8 		"/>
		<path class="st11" d="M161.8,82.7L161.8,82.7v6.1c-0.8,0-1.6,0.1-2.5,0.3c-4.2,1.1-7.5,5.3-7.1,9.6c0,5,4.7,9.2,9.6,9.1v6.1
			c-3.9,0-7.7-1.4-10.6-4.1c-2.9-2.6-4.7-6.3-5-10.1v-3.1c0.5-6.4,5.6-12.2,11.8-13.6C159.3,82.9,160.5,82.7,161.8,82.7z"/>
		<path class="st11" d="M182,85.6L182,85.6c2.6-2.1,6.1-1.9,9.3-1.9c4.3,0,8.5,0,12.7,0c0.1,2,0.1,4.1,0,6.2
			c-5.5,0.2-11-0.1-16.5,0.1c-2,0-3.4,2.1-2.5,3.9c1.4,2,4.1,1.5,6.3,1.6c4.1,0.2,8.6-0.8,12.1,1.7c4.8,3,5.1,10.9,0.5,14.2
			c-2.1,1.7-4.8,2.2-7.4,2.2c-5.2,0-10.5,0.1-15.7-0.1c-0.1-2-0.1-4.1,0-6.1c5.9-0.2,11.7,0.2,17.6-0.2c2.7-0.1,3.4-4.3,0.7-5.1
			c-5.6-1.2-11.9,1.2-16.9-2.1C177.3,96.9,177.2,88.8,182,85.6z"/>
		<path class="st11" d="M161.8,114.1L161.8,114.1V108c0.2,0,0.4,0,0.6,0c5.2-0.2,9.6-5.3,8.9-10.4c-0.3-4.8-4.8-8.6-9.5-8.7v-6.1
			c5.8,0,11.4,3.4,14,8.6c3,5.9,1.8,13.9-3.2,18.4C169.8,112.7,165.8,114.1,161.8,114.1z"/>
		<path class="st11" d="M241.5,88.2L241.5,88.2v19.5c-1.5-2-2.6-4.4-3-6.9C237.7,96.5,238.8,91.7,241.5,88.2z"/>
		<path class="st11" d="M208.2,83.8L208.2,83.8c0,5.5-0.1,10.9,0,16.4c0.3,6.1,4.9,11.6,10.8,13c4.9,1.3,10.5-0.2,14-4
			c2.5-2.5,3.9-6.1,4-9.6c0.1-5.2,0-10.5,0-15.7c-2.3-0.1-4.6-0.1-6.9,0c0,5.2,0.1,10.5,0,15.7c0,3.9-3.6,7.3-7.4,7.2
			c-3.9,0.3-7.8-3.2-7.7-7.2c-0.1-5.3,0.1-10.5,0-15.7C212.8,83.7,210.5,83.7,208.2,83.8z"/>
		<path class="st11" d="M253.3,83.7L253.3,83.7V90c-1.7,0.1-3.4,0.3-5,0.9c-4.9,2.8-4.8,10.6-0.6,14c1.5,1.5,3.6,2.2,5.7,2.1v6.6
			c-4.6,0.1-9-2.3-11.8-5.9V88.2c1.5-1.9,3.4-3.3,5.8-4.1C249.3,83.8,251.3,83.7,253.3,83.7z"/>
		<path class="st11" d="M253.3,113.6L253.3,113.6V107c2.5,0,5.1-1.1,6.6-3.2c3.3-3.8,1.7-9.1,2.1-13.6c-2.9-0.1-5.8-0.4-8.7-0.2
			v-6.3c2.9,0,5.8,0.2,8.7,0c0-4,0-7.9,0-11.9c2-0.1,4.1-0.1,6.2,0c0.1,9,0,18,0.1,27c-0.1,7.4-6.5,14.3-14,14.7
			C254,113.6,253.7,113.6,253.3,113.6z"/>
	</g>
</g>
</svg>
