<?xml version="1.0" encoding="utf-8"?>
<!-- Generator: Adobe Illustrator 23.0.2, SVG Export Plug-In . SVG Version: 6.00 Build 0)  -->
<svg version="1.1" id="Layer_1" xmlns="http://www.w3.org/2000/svg" xmlns:xlink="http://www.w3.org/1999/xlink" x="0px" y="0px"
	 viewBox="0 0 296 185.9" style="enable-background:new 0 0 296 185.9;" xml:space="preserve">
<style type="text/css">
	.st0{fill:url(#SVGID_1_);}
	.st1{fill:#0E4595;}
	.st2{fill:#FFFFFF;}
	.st3{fill:#92DBEF;}
	.st4{fill:#B02444;}
	.st5{fill:#0079BE;}
	.st6{fill:#26A6D1;}
	.st7{fill:#8EB829;}
	.st8{fill:#00A7DE;}
	.st9{fill-rule:evenodd;clip-rule:evenodd;fill:#FFFFFF;stroke:#FFFFFF;stroke-width:0.5669;stroke-miterlimit:10;}
	.st10{fill-rule:evenodd;clip-rule:evenodd;fill:#EE7D00;stroke:#FFFFFF;stroke-width:0.216;stroke-miterlimit:10;}
	.st11{fill-rule:evenodd;clip-rule:evenodd;fill:#FFFFFF;}
	.st12{fill-rule:evenodd;clip-rule:evenodd;fill:#FCDD14;}
	.st13{fill-rule:evenodd;clip-rule:evenodd;fill:#E21E84;}
	.st14{fill:#1A5EA8;}
	.st15{fill:#9D1A7E;}
	.st16{fill:#FAD00B;}
	.st17{fill:#067853;}
	.st18{fill:#E8232B;}
	.st19{fill:#263B80;}
	.st20{fill:#232C65;}
	.st21{fill:#139AD6;}
	.st22{fill:#E23221;}
	.st23{fill:#382D71;}
	.st24{fill:none;}
	.st25{fill:#036EB1;}
	.st26{fill:url(#SVGID_2_);}
	.st27{fill:url(#SVGID_3_);}
	.st28{fill:url(#SVGID_4_);}
	.st29{fill:url(#SVGID_5_);}
	.st30{fill:url(#SVGID_6_);}
	.st31{fill:url(#SVGID_7_);}
	.st32{fill:url(#SVGID_8_);}
	.st33{fill:url(#SVGID_9_);}
	.st34{fill:#F49824;}
	.st35{clip-path:url(#SVGID_11_);}
	.st36{fill:#9B2A2B;}
	.st37{fill:#E95527;}
	.st38{fill:#F2AE14;}
	.st39{fill:#FF5F00;}
	.st40{fill:#EB001B;}
	.st41{fill:#F79E1B;}
	.st42{fill:#7673C0;}
	.st43{fill:#00A1DF;}
	.st44{fill:#000F9F;}
	.st45{fill:#009EE2;}
</style>
<path id="Rectangle-1_15_" class="st2" d="M15.8,0h264.4c8.7,0,15.8,7.1,15.8,15.8v154.3c0,8.7-7.1,15.8-15.8,15.8H15.8
	c-8.7,0-15.8-7.1-15.8-15.8V15.8C0,7.1,7.1,0,15.8,0z"/>
<g>
	<ellipse class="st16" cx="148" cy="92.9" rx="75" ry="75.3"/>
	<g>
		<path class="st17" d="M209.7,69.5l-17.3,22l14.1,23.2h-11L186,97.1l-3.6,4.6v12.9h-9V74.3h9v17.5l22.4-32.8
			c-11.5-19.5-32.6-32.6-56.8-32.6c-36.4,0-65.9,29.7-65.9,66.4c0,36.7,29.5,66.4,65.9,66.4c36.4,0,65.9-29.7,65.9-66.4
			C213.9,84.6,212.4,76.8,209.7,69.5z"/>
		<path class="st17" d="M204.8,59.1L204.8,59.1C204.8,59.1,204.8,59.1,204.8,59.1L204.8,59.1z"/>
		<path class="st17" d="M209.7,69.5L209.7,69.5C209.7,69.5,209.7,69.5,209.7,69.5L209.7,69.5z"/>
	</g>
	<polygon class="st16" points="145.9,74.1 135.1,74.1 135.1,114.7 143.4,114.7 143.4,85 159.1,114.7 168.7,114.7 168.7,74.1 
		160.2,74.1 160.9,102.7 	"/>
	<rect x="121.2" y="74.1" class="st16" width="9.5" height="40.5"/>
	<polygon class="st16" points="93.7,74.1 102.9,74.1 102.9,106.8 117,106.8 117,114.7 93.7,114.7 	"/>
	<path class="st18" d="M131.8,62.4c0,3.4-2.7,6.1-6,6.1c-3.3,0-6-2.7-6-6.1c0-3.4,2.7-6.1,6-6.1C129.1,56.3,131.8,59,131.8,62.4z"/>
</g>
</svg>
