<?xml version="1.0" encoding="utf-8"?>
<!-- Generator: Adobe Illustrator 23.0.2, SVG Export Plug-In . SVG Version: 6.00 Build 0)  -->
<svg version="1.1" id="Layer_1" xmlns="http://www.w3.org/2000/svg" xmlns:xlink="http://www.w3.org/1999/xlink" x="0px" y="0px"
	 viewBox="0 0 296 185.9" style="enable-background:new 0 0 296 185.9;" xml:space="preserve">
<style type="text/css">
	.st0{fill:#FFFFFF;}
	.st1{fill:#7673C0;}
	.st2{fill:#EB001B;}
	.st3{fill:#00A1DF;}
</style>
<path id="Rectangle-1_1_" class="st0" d="M15.8,0h264.4c8.7,0,15.8,7.1,15.8,15.8v154.3c0,8.7-7.1,15.8-15.8,15.8H15.8
	c-8.7,0-15.8-7.1-15.8-15.8V15.8C0,7.1,7.1,0,15.8,0z"/>
<g id="Group_1_" transform="translate(133.000000, 48.000000)">
	<g id="_Group_">
		<rect id="Rectangle-path_1_" x="-11.8" y="-3.3" class="st1" width="53.6" height="96.4"/>
		<path id="_Path_" class="st2" d="M-8.5,44.9C-8.5,26.1,0.1,8.4,15-3.3c-25.2-19.8-61.2-16.8-83,6.6s-21.6,59.7,0,83.2
			s57.8,26.3,83,6.6C0.1,81.5-8.5,63.7-8.5,44.9z"/>
		<path class="st3" d="M114.2,44.9c0,23.5-13.4,44.9-34.5,55.2s-46.2,7.5-64.7-7c14.8-11.6,23.4-29.4,23.4-48.2S29.8,8.4,15-3.3
			c18.4-14.5,43.5-17.2,64.7-6.9S114.2,21.4,114.2,44.9z"/>
	</g>
</g>
</svg>
