<?xml version="1.0" encoding="utf-8"?>
<!-- Generator: Adobe Illustrator 23.0.2, SVG Export Plug-In . SVG Version: 6.00 Build 0)  -->
<svg version="1.1" id="Layer_1" xmlns="http://www.w3.org/2000/svg" xmlns:xlink="http://www.w3.org/1999/xlink" x="0px" y="0px"
	 viewBox="0 0 296 185.9" style="enable-background:new 0 0 296 185.9;" xml:space="preserve">
<style type="text/css">
	.st0{fill:#FFFFFF;}
	.st1{fill:#FF5F00;}
	.st2{fill:#EB001B;}
	.st3{fill:#F79E1B;}
</style>
<path id="Rectangle-1_5_" class="st0" d="M15.8,0h264.4c8.7,0,15.8,7.1,15.8,15.8v154.3c0,8.7-7.1,15.8-15.8,15.8H15.8
	c-8.7,0-15.8-7.1-15.8-15.8V15.8C0,7.1,7.1,0,15.8,0z"/>
<g id="Group" transform="translate(133.000000, 48.000000)">
	<g>
		<rect id="Rectangle-path" x="-14.4" y="-3.3" class="st1" width="59.1" height="96.4"/>
		<path class="st2" d="M-8.4,44.9c0-18.7,8.6-36.5,23.2-48.2C-10.2-23-46.3-20.1-68,3.4s-21.7,59.7,0,83.2s57.7,26.4,82.9,6.6
			C0.2,81.5-8.4,63.7-8.4,44.9z"/>
		<path class="st3" d="M114.2,44.9c0,23.5-13.4,44.8-34.4,55.2s-46.2,7.6-64.6-6.9C29.9,81.5,38.5,63.8,38.5,45S29.9,8.5,15.2-3.1
			C33.6-17.6,58.7-20.3,79.8-10S114.2,21.5,114.2,44.9z"/>
	</g>
</g>
</svg>
