<?xml version="1.0" encoding="utf-8"?>
<!-- Generator: Adobe Illustrator 23.0.2, SVG Export Plug-In . SVG Version: 6.00 Build 0)  -->
<svg version="1.1" id="Layer_1" xmlns="http://www.w3.org/2000/svg" xmlns:xlink="http://www.w3.org/1999/xlink" x="0px" y="0px"
	 viewBox="0 0 296 185.9" style="enable-background:new 0 0 296 185.9;" xml:space="preserve">
<style type="text/css">
	.st0{fill:#FFFFFF;}
	.st1{fill:#000F9F;}
	.st2{fill:#009EE2;}
</style>
<path id="Rectangle-1_12_" class="st0" d="M15.8,0h264.4c8.7,0,15.8,7.1,15.8,15.8v154.3c0,8.7-7.1,15.8-15.8,15.8H15.8
	c-8.7,0-15.8-7.1-15.8-15.8V15.8C0,7.1,7.1,0,15.8,0z"/>
<g>
	<g>
		<path class="st1" d="M240.7,89.4c0-33.5-41.6-60.6-92.7-60.6c-51.3,0-92.7,27.3-92.7,60.6c0,0.9,0,3.2,0,3.5
			c0,35.4,36.3,64.2,92.7,64.2c56.8,0,92.7-28.7,92.7-64.2C240.7,91.9,240.7,91.2,240.7,89.4z"/>
		<path class="st2" d="M237,89.4c0,31.6-40,57.1-89.2,57.1S58.6,121,58.6,89.4s40-57.1,89.2-57.1C197.2,32.5,237,57.9,237,89.4z"/>
		<g>
			<path class="st0" d="M118.2,71.4c0,0.2-0.9,1.1-0.4,1.8c1.4,1.8,5.8,2.8,10.2,1.8c2.6-0.5,6-3.2,9.2-5.8
				c3.5-2.8,7.1-5.6,10.6-6.7c3.7-1.2,6.2-0.7,7.8-0.2c1.8,0.5,3.7,1.6,7.1,4.1c6.2,4.6,30.7,26.1,34.9,29.8
				c3.3-1.6,18.5-8.1,39.1-12.7c-1.8-10.9-8.5-21-18.7-29.3c-14.1,6-31.4,9-48.3,0.7c0,0-9.2-4.4-18.3-4.2C138,51,132.1,56.8,126,63
				L118.2,71.4z"/>
			<path class="st0" d="M196.5,98.4c-0.4-0.2-28.9-25.2-35.3-30.1c-3.7-2.8-5.8-3.5-7.9-3.9c-1.1-0.2-2.6,0-3.9,0.4
				c-3,0.9-6.9,3.5-10.4,6.2c-3.7,2.8-7.1,5.6-10.2,6.3c-4.1,0.9-9-0.2-11.3-1.8c-0.9-0.5-1.6-1.4-1.9-2.1c-0.9-1.9,0.7-3.5,0.9-3.7
				l7.9-8.5c0.9-0.9,1.8-1.8,2.8-2.6c-2.5,0.4-4.9,1.1-7.2,1.6c-2.8,0.9-5.6,1.6-8.5,1.6c-1.2,0-7.4-1.1-8.6-1.4
				c-7.1-1.9-13.4-3.9-22.7-8.3c-11.3,8.3-18.7,18.9-20.8,30.3c1.6,0.4,4.2,1.2,5.3,1.4C90,89.4,97.9,95.2,99.3,96.5
				c1.6-1.8,3.7-2.8,6.3-2.8c2.8,0,5.3,1.4,6.9,3.5c1.4-1.2,3.5-2.1,6-2.1c1.2,0,2.5,0.2,3.7,0.7c2.8,1.1,4.4,2.8,5.1,4.6
				c0.9-0.4,2.1-0.7,3.5-0.7s2.8,0.4,4.2,0.9c4.8,1.9,5.5,6.5,4.9,10c0.4,0,0.7,0,1.1,0c5.5,0,10,4.6,10,10c0,1.8-0.4,3.3-1.2,4.8
				c1.6,0.9,5.3,2.8,8.8,2.3c2.6-0.4,3.7-1.2,4.1-1.8c0.2-0.4,0.5-0.7,0.4-1.1l-7.2-7.9c0,0-1.2-1.1-0.7-1.6
				c0.4-0.5,1.1,0.2,1.6,0.7c3.7,3,8.1,7.6,8.1,7.6s0.4,0.7,1.9,0.9c1.4,0.2,3.9,0.2,5.6-1.2c0.4-0.4,0.9-0.9,1.2-1.2l0,0
				c1.8-2.3-0.2-4.8-0.2-4.8l-8.3-9.3c0,0-1.2-1.1-0.7-1.6c0.4-0.4,1.1,0.2,1.6,0.7c2.6,2.3,6.3,6,10,9.5c0.7,0.5,3.9,2.5,7.9-0.4
				c2.5-1.6,3-3.7,3-5.3c-0.2-2.1-1.8-3.5-1.8-3.5l-11.5-11.5c0,0-1.2-1.1-0.7-1.6c0.4-0.4,1.1,0.2,1.6,0.7c3.7,3,13.4,12,13.4,12
				c0.2,0.2,3.5,2.5,7.8-0.2c1.6-0.9,2.5-2.5,2.5-4.1C198.4,100.2,196.5,98.4,196.5,98.4z"/>
			<path class="st0" d="M141.1,113c-1.8,0-3.7,1.1-3.9,0.9c-0.2-0.2,0.2-0.9,0.4-1.2c0.2-0.4,2.5-7.4-3.2-9.9
				c-4.4-1.9-7.1,0.2-7.9,1.2c-0.2,0.2-0.4,0.2-0.4,0c0-1.2-0.7-4.8-4.4-5.8c-5.3-1.6-8.8,2.1-9.7,3.5c-0.4-3-3-5.5-6.2-5.5
				c-3.3,0-6.2,2.8-6.2,6.2c0,3.5,2.8,6.2,6.2,6.2c1.6,0,3.2-0.7,4.2-1.8v0.2c-0.2,1.6-0.7,7.1,5.1,9.3c2.3,0.9,4.4,0.2,6-0.9
				c0.5-0.4,0.5-0.2,0.5,0.2c-0.2,1.4,0,4.6,4.4,6.3c3.3,1.4,5.3,0,6.5-1.2c0.5-0.5,0.7-0.4,0.7,0.4c0.2,4.2,3.7,7.4,7.8,7.4
				c4.4,0,7.8-3.5,7.8-7.8C148.9,116.6,145.4,113,141.1,113z"/>
		</g>
		<path class="st1" d="M197.5,95.4c-8.8-7.8-29.1-25.4-34.7-29.4c-3.2-2.3-5.3-3.7-7.2-4.2c-0.9-0.2-1.9-0.5-3.5-0.5
			c-1.4,0-2.8,0.2-4.4,0.7c-3.5,1.1-7.1,3.9-10.6,6.7l-0.2,0.2c-3.2,2.5-6.5,5.1-9,5.6c-1.1,0.2-2.3,0.4-3.3,0.4
			c-2.8,0-5.3-0.9-6.2-1.9c-0.2-0.2,0-0.5,0.4-1.1l0,0l7.8-8.3c6-6,11.8-11.8,25-12.2c0.2,0,0.5,0,0.7,0c8.3,0,16.4,3.7,17.3,4.1
			c7.8,3.7,15.7,5.6,23.6,5.6c8.3,0,16.9-2.1,25.9-6.2c-1.1-0.9-2.1-1.6-3.2-2.5c-7.9,3.3-15.5,5.1-22.7,5.1c-7.4,0-14.8-1.8-22-5.3
			c-0.4-0.2-9.5-4.4-18.9-4.4c-0.2,0-0.5,0-0.7,0C140.4,48,134.2,52,130,55.4c-4.1,0.2-7.6,1.1-10.8,1.9c-2.8,0.7-5.3,1.4-7.6,1.4
			c-0.9,0-2.6-0.2-2.8-0.2c-2.6,0-16.4-3.3-27.2-7.6c-1.1,0.7-2.1,1.6-3.2,2.5c11.3,4.6,25.2,8.3,29.4,8.5c1.2,0,2.5,0.2,3.9,0.2
			c2.8,0,5.8-0.9,8.5-1.6c1.6-0.5,3.5-0.9,5.3-1.4c-0.5,0.5-1.1,1.1-1.6,1.6l-7.9,8.5c-0.7,0.7-1.9,2.3-1.1,4.4
			c0.4,0.9,1.1,1.6,2.1,2.3c1.9,1.2,5.3,2.1,8.3,2.1c1.2,0,2.3-0.2,3.3-0.4c3.3-0.7,6.7-3.5,10.4-6.3c3-2.3,7.1-5.3,10.2-6.2
			c0.9-0.2,1.9-0.4,2.8-0.4c0.2,0,0.5,0,0.7,0c2.1,0.4,4.1,1.1,7.8,3.7c6.5,4.9,35.1,29.8,35.3,30.1c0,0,1.8,1.6,1.8,4.2
			c0,1.4-0.9,2.8-2.3,3.7c-1.2,0.7-2.5,1.2-3.7,1.2c-1.9,0-3.2-0.9-3.3-0.9c-0.2,0-9.9-9-13.6-12.2c-0.5-0.5-1.1-0.9-1.8-0.9
			c-0.4,0-0.5,0.2-0.7,0.4c-0.5,0.7,0,1.6,0.9,2.3l11.5,11.5c0,0,1.4,1.4,1.6,3.2c0.2,1.9-0.9,3.5-2.6,4.8c-1.4,0.9-2.6,1.4-4.1,1.4
			c-1.8,0-3-0.9-3.3-1.1l-1.6-1.6c-3-3-6.2-6-8.3-7.9c-0.5-0.5-1.1-0.9-1.8-0.9c-0.4,0-0.5,0.2-0.7,0.4c-0.2,0.4-0.4,0.9,0.2,1.6
			c0.4,0.4,0.5,0.7,0.5,0.7l8.3,9.3c0,0,1.8,2.1,0.2,4.1l-0.4,0.4c-0.2,0.4-0.5,0.5-0.7,0.7c-1.4,1.2-3.3,1.2-4.1,1.2
			c-0.4,0-0.7,0-1.1-0.2c-0.9-0.2-1.4-0.4-1.6-0.7l-0.2-0.2c-0.5-0.5-4.6-4.8-8.1-7.8c-0.5-0.4-1.1-0.9-1.6-0.9
			c-0.4,0-0.5,0.2-0.7,0.4c-0.7,0.7,0.4,1.9,0.7,2.3l7.1,7.9c0,0-0.2,0.2-0.4,0.5c-0.2,0.4-1.1,1.2-3.7,1.6c-0.4,0-0.7,0-0.9,0
			c-2.6,0-5.5-1.2-7.1-2.1c0.7-1.4,1.1-3,1.1-4.6c0-5.8-4.8-10.6-10.6-10.6c-0.2,0-0.2,0-0.4,0c0.2-2.6-0.2-7.8-5.5-10
			c-1.4-0.7-3-1.1-4.4-1.1c-1.1,0-2.3,0.2-3.2,0.5c-1.1-2.1-2.8-3.7-5.1-4.4c-1.2-0.5-2.6-0.7-3.9-0.7c-2.1,0-4.2,0.7-6,1.9
			c-1.8-2.1-4.2-3.3-7.1-3.3c-2.3,0-4.6,0.9-6.3,2.6c-2.3-1.8-10.9-7.2-34.6-12.7c-1.1-0.2-3.7-1.1-5.3-1.4
			c-0.4,1.2-0.5,2.6-0.5,3.9c0,0,4.4,1.1,5.1,1.2c24,5.3,31.9,10.9,33.3,12c-0.5,1.1-0.7,2.3-0.7,3.5c0,4.9,4.1,9,9,9
			c0.5,0,1.1,0,1.6-0.2c0.7,3.7,3.2,6.3,6.9,7.8c1.1,0.4,2.1,0.7,3.2,0.7c0.7,0,1.4,0,2.1-0.2c0.7,1.8,2.1,3.9,5.6,5.3
			c1.2,0.5,2.5,0.7,3.5,0.7c0.9,0,1.9-0.2,2.8-0.5c1.6,3.9,5.5,6.5,9.9,6.5c2.8,0,5.6-1.2,7.6-3.2c1.8,0.9,5.3,2.6,9,2.6
			c0.5,0,0.9,0,1.4,0c3.7-0.5,5.3-1.9,6.2-3c0.2-0.2,0.4-0.4,0.4-0.5c0.9,0.2,1.8,0.5,2.8,0.5c1.9,0,3.9-0.7,5.8-2.1
			c1.9-1.4,3.2-3.3,3.3-4.9l0,0c0.7,0.2,1.2,0.2,1.9,0.2c2.1,0,4.1-0.7,6-1.9c3.7-2.5,4.4-5.6,4.2-7.8c0.7,0.2,1.2,0.2,1.9,0.2
			c1.9,0,3.9-0.5,5.6-1.8c2.3-1.4,3.7-3.7,3.9-6.3c0.2-1.8-0.4-3.5-1.2-5.1c6.2-2.6,20.5-7.8,37-11.6c-0.2-1.2-0.4-2.6-0.5-3.9
			C216.4,87.3,201.2,93.8,197.5,95.4z M141.1,128c-3.9,0-7.1-3-7.2-6.9c0-0.4,0-1.2-0.9-1.2c-0.4,0-0.5,0.2-0.9,0.5
			c-0.9,0.9-1.9,1.6-3.5,1.6c-0.7,0-1.6-0.2-2.3-0.5c-4.1-1.8-4.2-4.6-4.1-5.6c0-0.4,0-0.7-0.2-0.9l-0.2-0.2h-0.2
			c-0.2,0-0.4,0-0.7,0.4c-1.2,0.9-2.3,1.2-3.5,1.2c-0.7,0-1.2-0.2-1.9-0.4c-5.5-2.1-4.9-7.2-4.8-8.8c0-0.4,0-0.5-0.2-0.7l-0.4-0.4
			l-0.4,0.4c-1.1,1.1-2.5,1.6-3.9,1.6c-3.2,0-5.6-2.5-5.6-5.6c0-3.2,2.5-5.6,5.6-5.6c2.8,0,5.3,2.1,5.6,4.9l0.2,1.6l0.9-1.2
			c0.2-0.2,2.5-3.5,6.5-3.5c0.9,0,1.6,0.2,2.5,0.4c3.3,1.1,3.9,4.1,4.1,5.3c0,0.7,0.5,0.7,0.7,0.7c0.4,0,0.5-0.2,0.7-0.4
			c0.7-0.7,1.9-1.8,4.2-1.8c1.1,0,2.1,0.2,3.2,0.7c5.3,2.3,3,9,2.8,9.2c-0.5,1.1-0.5,1.6,0,1.9l0.2,0.2h0.2c0.2,0,0.5-0.2,1.1-0.4
			c0.7-0.2,1.8-0.7,2.8-0.7l0,0c4.1,0,7.2,3.3,7.2,7.2C148.4,124.9,145,128,141.1,128z"/>
	</g>
</g>
</svg>
