<?xml version="1.0" encoding="utf-8"?>
<!-- Generator: Adobe Illustrator 23.0.2, SVG Export Plug-In . SVG Version: 6.00 Build 0)  -->
<svg version="1.1" id="Layer_1" xmlns="http://www.w3.org/2000/svg" xmlns:xlink="http://www.w3.org/1999/xlink" x="0px" y="0px"
	 viewBox="0 0 296 185.9" style="enable-background:new 0 0 296 185.9;" xml:space="preserve">
<style type="text/css">
	.st0{fill:url(#SVGID_1_);}
	.st1{fill:#0E4595;}
	.st2{fill:#FFFFFF;}
	.st3{fill:#92DBEF;}
	.st4{fill:#B02444;}
	.st5{fill:#0079BE;}
	.st6{fill:#26A6D1;}
	.st7{fill:#8EB829;}
	.st8{fill:#00A7DE;}
	.st9{fill-rule:evenodd;clip-rule:evenodd;fill:#FFFFFF;stroke:#FFFFFF;stroke-width:0.5669;stroke-miterlimit:10;}
	.st10{fill-rule:evenodd;clip-rule:evenodd;fill:#EE7D00;stroke:#FFFFFF;stroke-width:0.216;stroke-miterlimit:10;}
	.st11{fill-rule:evenodd;clip-rule:evenodd;fill:#FFFFFF;}
	.st12{fill-rule:evenodd;clip-rule:evenodd;fill:#FCDD14;}
	.st13{fill-rule:evenodd;clip-rule:evenodd;fill:#E21E84;}
	.st14{fill:#1A5EA8;}
	.st15{fill:#9D1A7E;}
	.st16{fill:#FAD00B;}
	.st17{fill:#067853;}
	.st18{fill:#E8232B;}
	.st19{fill:#263B80;}
	.st20{fill:#232C65;}
	.st21{fill:#139AD6;}
	.st22{fill:#E23221;}
	.st23{fill:#382D71;}
	.st24{fill:none;}
	.st25{fill:#036EB1;}
	.st26{fill:url(#SVGID_2_);}
	.st27{fill:url(#SVGID_3_);}
	.st28{fill:url(#SVGID_4_);}
	.st29{fill:url(#SVGID_5_);}
	.st30{fill:url(#SVGID_6_);}
	.st31{fill:url(#SVGID_7_);}
	.st32{fill:url(#SVGID_8_);}
	.st33{fill:url(#SVGID_9_);}
	.st34{fill:url(#SVGID_10_);}
	.st35{fill:#9B2A2B;}
	.st36{fill:#E95527;}
	.st37{fill:#F2AE14;}
	.st38{fill:#FF5F00;}
	.st39{fill:#EB001B;}
	.st40{fill:#F79E1B;}
	.st41{fill:#7673C0;}
	.st42{fill:#00A1DF;}
	.st43{fill:#000F9F;}
	.st44{fill:#009EE2;}
</style>
<path id="Rectangle-1_9_" class="st2" d="M15.8,0h264.4c8.7,0,15.8,7.1,15.8,15.8v154.3c0,8.7-7.1,15.8-15.8,15.8H15.8
	c-8.7,0-15.8-7.1-15.8-15.8V15.8C0,7.1,7.1,0,15.8,0z"/>
<g>
	<linearGradient id="SVGID_1_" gradientUnits="userSpaceOnUse" x1="71.7857" y1="85.3493" x2="135.935" y2="85.3493">
		<stop  offset="0.1061" style="stop-color:#F49824"/>
		<stop  offset="0.2942" style="stop-color:#EE7123"/>
		<stop  offset="0.4916" style="stop-color:#E95022"/>
		<stop  offset="0.6802" style="stop-color:#E63822"/>
		<stop  offset="0.8543" style="stop-color:#E42921"/>
		<stop  offset="1" style="stop-color:#E32421"/>
	</linearGradient>
	<path class="st0" d="M135.9,82.9l-23.4-42.2c-1-1.9-1.5-4-1.5-6.2v36.4c0,2.6-0.3,5.2-0.8,7.7c-0.5,2.5-1.3,5-2.2,7.4
		c-1,2.4-2.2,4.6-3.6,6.8c-1.4,2.1-3.1,4.1-4.9,5.9c-1.8,1.8-3.8,3.5-5.9,4.9c-2.1,1.5-4.4,2.6-6.8,3.6c-2.4,1-4.9,1.8-7.4,2.2
		c-2.5,0.5-5.1,0.8-7.7,0.8v26.1c3.8,0,7.5-0.3,11.2-1c3.8-0.7,7.4-1.7,10.9-2.9c3.5-1.3,6.9-2.9,10.3-4.8c3.3-1.9,6.3-4.1,9.2-6.5
		c2.9-2.4,5.6-5,8-7.9c2.4-2.9,4.6-5.9,6.5-9.2c1.9-3.3,3.5-6.7,4.9-10.2C134.2,90.2,135.2,86.6,135.9,82.9"/>
	<path class="st35" d="M199.1,150.6c0,0.4-0.2,0.8-0.4,1.2L199.1,150.6 M183.4,160.1l-0.8-0.3L183.4,160.1z M198.4,153
		c0,0.4-0.4,0.7-0.6,1.1L198.4,153z M180.5,158.9l-0.8-0.4L180.5,158.9z M177.3,156.6l-0.3-0.3L177.3,156.6z M190.3,159.9l-0.9,0.2
		L190.3,159.9z M197,155.1l-0.8,1L197,155.1z M192.8,158.9l0.5-0.3l-0.9,0.5L192.8,158.9z M195.4,157l-1,0.8L195.4,157z"/>
	<path class="st35" d="M112.6,40.7l23.4,42.2l39.1,70.8l0.3,0.4c-1.2-2-1.8-4.2-1.8-6.6V96.8l-38-68.6c-1.4-2.6-3.5-4.5-6.2-5.7
		c-2.7-1.2-5.5-1.4-8.4-0.7c-2.9,0.7-5.2,2.3-7.1,4.6c-1.8,2.3-2.7,5-2.7,8C111,36.6,111.5,38.7,112.6,40.7 M199.5,148
		c0,0.5,0,1,0,1.4C199.6,149,199.6,148.5,199.5,148"/>
	<path class="st36" d="M175.3,154c0.5,0.8,1,1.6,1.7,2.3l0.3,0.3c0.7,0.7,1.5,1.3,2.4,1.8l0.8,0.4c0.7,0.4,1.4,0.7,2.2,0.9l0.8,0.3
		c1,0.2,2,0.4,3,0.4c0.9,0,1.8-0.1,2.7-0.3l0.8-0.2c0.7-0.2,1.4-0.5,2.1-0.8l0.9-0.5l1.2-0.8l1-0.8l0.9-0.9l0.8-1l0.7-1.1
		c0-0.4,0.4-0.7,0.6-1.1l0.5-1.2l0.4-1.2c0,0,0-0.8,0.2-1.2c0-0.5,0-0.9,0-1.4V34.5c0.1-2.4-0.4-4.7-1.5-6.8
		c-1.1-2.1-2.7-3.9-4.8-5.1c-2.1-1.3-4.4-1.9-6.8-1.9c-2.4,0-4.7,0.6-6.8,1.9c-2,1.3-3.7,3-4.8,5.1c-1.1,2.1-1.6,4.4-1.5,6.8v113
		C173.2,149.8,173.9,152,175.3,154"/>
</g>
</svg>
