<?xml version="1.0" encoding="utf-8"?>
<!-- Generator: Adobe Illustrator 23.0.2, SVG Export Plug-In . SVG Version: 6.00 Build 0)  -->
<svg version="1.1" id="Layer_1" xmlns="http://www.w3.org/2000/svg" xmlns:xlink="http://www.w3.org/1999/xlink" x="0px" y="0px"
	 viewBox="0 0 296 185.9" style="enable-background:new 0 0 296 185.9;" xml:space="preserve">
<style type="text/css">
	.st0{fill:url(#SVGID_1_);}
	.st1{fill:#0E4595;}
	.st2{fill:#FFFFFF;}
	.st3{fill:#92DBEF;}
	.st4{fill:#B02444;}
	.st5{fill:#0079BE;}
	.st6{fill:#26A6D1;}
	.st7{fill:#8EB829;}
	.st8{fill:#00A7DE;}
	.st9{fill-rule:evenodd;clip-rule:evenodd;fill:#FFFFFF;stroke:#FFFFFF;stroke-width:0.5669;stroke-miterlimit:10;}
	.st10{fill-rule:evenodd;clip-rule:evenodd;fill:#EE7D00;stroke:#FFFFFF;stroke-width:0.216;stroke-miterlimit:10;}
	.st11{fill-rule:evenodd;clip-rule:evenodd;fill:#FFFFFF;}
	.st12{fill-rule:evenodd;clip-rule:evenodd;fill:#FCDD14;}
	.st13{fill-rule:evenodd;clip-rule:evenodd;fill:#E21E84;}
	.st14{fill:#1A5EA8;}
	.st15{fill:#9D1A7E;}
	.st16{fill:#FAD00B;}
	.st17{fill:#067853;}
	.st18{fill:#E8232B;}
	.st19{fill:#263B80;}
	.st20{fill:#232C65;}
	.st21{fill:#139AD6;}
	.st22{fill:#E23221;}
	.st23{fill:#382D71;}
	.st24{fill:none;}
	.st25{fill:#036EB1;}
	.st26{fill:url(#SVGID_2_);}
	.st27{fill:url(#SVGID_3_);}
	.st28{fill:url(#SVGID_4_);}
	.st29{fill:url(#SVGID_5_);}
	.st30{fill:url(#SVGID_6_);}
	.st31{fill:url(#SVGID_7_);}
	.st32{fill:url(#SVGID_8_);}
	.st33{fill:url(#SVGID_9_);}
	.st34{fill:#F49824;}
	.st35{clip-path:url(#SVGID_11_);}
	.st36{fill:#9B2A2B;}
	.st37{fill:#E95527;}
	.st38{fill:#F2AE14;}
	.st39{fill:#FF5F00;}
	.st40{fill:#EB001B;}
	.st41{fill:#F79E1B;}
	.st42{fill:#7673C0;}
	.st43{fill:#00A1DF;}
	.st44{fill:#000F9F;}
	.st45{fill:#009EE2;}
</style>
<path id="Rectangle-1_8_" class="st3" d="M15.8,0h264.4c8.7,0,15.8,7.1,15.8,15.8v154.3c0,8.7-7.1,15.8-15.8,15.8H15.8
	c-8.7,0-15.8-7.1-15.8-15.8V15.8C0,7.1,7.1,0,15.8,0z"/>
<g>
	<path class="st19" d="M187.5,36.7c-5.8-6.6-16.6-9.9-31.4-9.9h-41.4c-2.5,0-5,2.5-5.8,5L92.3,140.1c0,2.5,1.7,4.1,3.3,4.1h25.7
		l6.6-40.6v1.7c0.8-2.5,3.3-5,5.8-5h12.4c24,0,42.2-9.9,48-37.2v-2.5c-0.8,0-0.8,0,0,0C194.9,49.9,193.2,43.3,187.5,36.7"/>
	<path class="st20" d="M194.1,63.1v-2.5c0-0.1,0-0.2,0-0.2c-1.5-1-2.9-1.7-3.9-2.2c-5-2.1-10.2-2.5-12.5-2.5l0,0h-12.1c0,0,0,0,0,0
		h-25.3c-4.3,0.2-5.5,3.6-5.8,5.1l-6.6,42.9v1v0.6c0.8-2.5,3.3-5,5.8-5h12.4C170.1,100.4,188.3,90.5,194.1,63.1z"/>
	<path class="st21" d="M202.2,70.9c-1.9-5.2-5.2-8.5-8.1-10.5c0,0.1,0,0.2,0,0.2v2.5c-5.8,27.3-24,37.2-48,37.2h-12.4
		c-2.5,0-5,2.5-5.8,5v-0.6c-0.1,0.2-0.2,0.4-0.3,0.6l-4.7,28.5l-1.7,10.4h0l-1.9,11.6c0,1.7,0.8,3.3,3.3,3.3h20.6
		c4.2,0,5.5-3.2,5.9-5l0.2-1.1v0l4-24.6c0,0,0.5-5.8,6.2-5.8h2.1c20.7,0,37.2-8.3,41.4-33.1C204.1,82.7,204,76.2,202.2,70.9z"/>
</g>
</svg>
