<?xml version="1.0" encoding="utf-8"?>
<!-- Generator: Adobe Illustrator 23.0.2, SVG Export Plug-In . SVG Version: 6.00 Build 0)  -->
<svg version="1.1" id="Layer_1" xmlns="http://www.w3.org/2000/svg" xmlns:xlink="http://www.w3.org/1999/xlink" x="0px" y="0px"
	 viewBox="0 0 296 185.9" style="enable-background:new 0 0 296 185.9;" xml:space="preserve">
<style type="text/css">
	.st0{fill:url(#SVGID_1_);}
	.st1{fill:#0E4595;}
	.st2{fill:#FFFFFF;}
	.st3{fill:#92DBEF;}
	.st4{fill:#B02444;}
	.st5{fill:#0079BE;}
	.st6{fill:#26A6D1;}
	.st7{fill:#8EB829;}
	.st8{fill:#00A7DE;}
	.st9{fill-rule:evenodd;clip-rule:evenodd;fill:#FFFFFF;stroke:#FFFFFF;stroke-width:0.5669;stroke-miterlimit:10;}
	.st10{fill-rule:evenodd;clip-rule:evenodd;fill:#EE7D00;stroke:#FFFFFF;stroke-width:0.216;stroke-miterlimit:10;}
	.st11{fill-rule:evenodd;clip-rule:evenodd;fill:#FFFFFF;}
	.st12{fill-rule:evenodd;clip-rule:evenodd;fill:#FCDD14;}
	.st13{fill-rule:evenodd;clip-rule:evenodd;fill:#E21E84;}
	.st14{fill:#1A5EA8;}
	.st15{fill:#9D1A7E;}
	.st16{fill:#FAD00B;}
	.st17{fill:#067853;}
	.st18{fill:#E8232B;}
	.st19{fill:#263B80;}
	.st20{fill:#232C65;}
	.st21{fill:#139AD6;}
	.st22{fill:#E23221;}
	.st23{fill:#382D71;}
	.st24{fill:none;}
	.st25{fill:#036EB1;}
	.st26{fill:url(#SVGID_2_);}
	.st27{fill:url(#SVGID_3_);}
	.st28{fill:url(#SVGID_4_);}
	.st29{fill:url(#SVGID_5_);}
	.st30{fill:url(#SVGID_6_);}
	.st31{fill:url(#SVGID_7_);}
	.st32{fill:url(#SVGID_8_);}
	.st33{fill:url(#SVGID_9_);}
	.st34{fill:#F49824;}
	.st35{clip-path:url(#SVGID_11_);}
	.st36{fill:#9B2A2B;}
	.st37{fill:#E95527;}
	.st38{fill:#F2AE14;}
	.st39{fill:#FF5F00;}
	.st40{fill:#EB001B;}
	.st41{fill:#F79E1B;}
	.st42{fill:#7673C0;}
	.st43{fill:#00A1DF;}
	.st44{fill:#000F9F;}
	.st45{fill:#009EE2;}
</style>
<path id="Rectangle-1_10_" class="st2" d="M15.8,0h264.4c8.7,0,15.8,7.1,15.8,15.8v154.3c0,8.7-7.1,15.8-15.8,15.8H15.8
	c-8.7,0-15.8-7.1-15.8-15.8V15.8C0,7.1,7.1,0,15.8,0z"/>
<g>
	<path class="st11" d="M228,92.9c0,44.2-35.8,80-80,80c-44.2,0-80-35.8-80-80c0-44.2,35.8-80,80-80C192.2,12.9,228,48.8,228,92.9"/>
	<path class="st12" d="M224.1,92.9c0,42-34.1,76.1-76.1,76.1S71.9,135,71.9,92.9S106,16.8,148,16.8S224.1,50.9,224.1,92.9"/>
	<path class="st2" d="M213.2,80.2c-0.2-0.1-0.5-0.1-0.8-0.1c-0.2,0-0.4,0-0.6,0.1l-24.4,6.3l-11.6-42.8c-0.3-1.1-1.3-1.8-2.3-1.8
		c-0.2,0-0.4,0-0.6,0.1l-69.7,18.2c-1.3,0.3-2.1,1.6-1.7,2.9l10.7,42.4l-23.5,6.3c-1,0.3-1.7,1.1-1.8,2.2c0,0.1,0,0.3,0,0.4
		c0.1,0.9,0.6,1.7,1.4,2.1l74.3,32.5c0.3,0.1,0.6,0.2,1,0.2c0.7,0,1.5-0.3,1.9-1l48.9-64.1c0.3-0.4,0.5-0.9,0.5-1.5
		C214.9,81.5,214.2,80.5,213.2,80.2"/>
	<polyline class="st13" points="212.4,82.6 212.5,82.5 185.7,89.4 173.5,44.3 103.8,62.5 115.1,107.3 89.3,114.1 89.4,114.2 
		89.3,114.2 163.6,146.7 212.5,82.6 212.4,82.6 	"/>
	<path class="st2" d="M211,65.5C211,65.5,211,65.4,211,65.5l-0.3-1.1c0-0.2-0.1-0.3-0.2-0.4l-0.6-1.2c-0.5-0.9-1-1.7-1.6-2.5
		c-0.6-0.7-1.2-1.4-2-2c0,0,0,0,0,0c-1.5-1.2-3.1-2.1-5-2.7c-3.7-1.3-8.3-1.3-13.6,0.1c-4,1-7.3,2.6-10,4.7
		c-2.8,2.2-4.7,4.6-5.6,7.1c0,0.1-0.1,0.3-0.1,0.4c-0.9-0.9-1.9-1.7-3-2.3c-2.1-1.2-4.5-1.8-7.2-1.9c-1.5-0.1-2.9,0-4.2,0.1
		c-1.2,0.2-2.7,0.4-4.2,0.8c-3,0.8-5.6,1.8-7.8,3.1c-0.3,0.2-0.6,0.3-0.8,0.5c-0.4,0.2-0.7,0.4-0.9,0.7c-1.5,1.1-2.7,2.4-3.8,3.7
		c-1.7,2.3-2.7,4.7-3,7.3l-6-7.3c-0.7-0.8-1.8-1.2-2.8-0.9l-10.9,2.8c-1,0.3-1.8,1-2,2.1l-0.9,4.1c-0.6-0.5-1.2-0.8-1.9-1.2
		c-1.7-0.8-3.8-1.2-6.2-1.2c-2.2,0-4.7,0.3-7.8,1.1l-15.6,4c-1.4,0.4-2.3,1.8-2,3.3l5.6,23.9c0.2,0.7,0.6,1.3,1.2,1.7
		c0.4,0.3,0.9,0.4,1.4,0.4c0.2,0,0.5,0,0.7-0.1l33.2-8.6c1.1-0.3,1.9-1.2,2-2.3l0.2-1.6l7-1.8l0.9,1.3c0.7,0.9,1.8,1.3,2.9,1.1
		l10.6-2.8c0.9-0.2,1.6-0.9,1.9-1.8c0-0.1,0-0.1,0.1-0.2c3.2,0.6,6.7,0.5,10.6-0.5c3.1-0.8,5.7-2,7.8-3.6l0,0
		c0.6,0.4,1.5,0.6,2.3,0.4l6.8-1.8c1.4-0.4,2.3-1.8,2-3.3c0,0,1.6-1.3,2.9-0.9c3.8,1.3,8.4,1.3,13.8-0.1c3.9-1,7.3-2.6,10-4.7
		c2.8-2.2,4.7-4.7,5.7-7.5C211.7,71.1,211.8,68.2,211,65.5L211,65.5z"/>
	<path class="st14" d="M190.2,64.6c1.6-0.4,3-0.4,4.1,0.1c1.1,0.5,2,1.4,2.6,2.6c1,1.9,1.2,3.9,0.7,5.9c-0.5,2-2,3.2-4.5,3.9
		c-3.1,0.8-5.3-0.1-6.6-2.7c-1-3.1-1.1-5.5-0.2-7.2C187,66,188.4,65.1,190.2,64.6L190.2,64.6L190.2,64.6z M209.2,66.1l-0.3-1
		l-0.6-1.3c-0.4-0.8-0.8-1.5-1.3-2.1c-0.5-0.6-1-1.2-1.6-1.7c-1.3-1-2.7-1.8-4.3-2.4c-3.3-1.2-7.4-1.1-12.3,0.2
		c-3.7,0.9-6.7,2.4-9.2,4.3c-2.4,1.9-4.1,4-4.9,6.1c-0.8,2.2-1,4.5-0.5,6.9l0.7,2.1l0.3,0.9l0,0.1c1.4,2.7,3.8,4.7,7.1,5.9
		c1.6,0.6,3.4,0.9,5.4,0.9c2.1,0,4.5-0.3,7-1c3.6-0.9,6.7-2.4,9.1-4.3c2.4-1.9,4.1-4.1,5-6.5C209.7,70.8,209.8,68.4,209.2,66.1
		L209.2,66.1z"/>
	<path class="st14" d="M97.6,93.7l-1.3-4.8c0,0,2.4-0.6,3.8-1c2.1-0.6,3.6-0.7,4.4,0.6c0.4,0.6,0.4,2-0.1,2.6
		c-0.6,0.7-1.4,1.2-2.7,1.6C100.7,92.9,97.6,93.7,97.6,93.7L97.6,93.7z M130.9,91l-6.8,1.8l1.4-9.5L130.9,91L130.9,91z M157.8,78
		l1.3,5.3l4.8-1.4c-0.3,0.8-0.8,1.9-1.5,2.5c-0.8,0.7-2,1.3-3,1.6c-3.5,0.9-5.8,0.1-7.1-2.4c-1.1-3.2-1.3-5.6-0.4-7.3
		c0.7-1.3,2-2.2,3.9-2.7c2.7-0.7,4.5-0.2,5.7,1.4l0.2,0.3l11-2.9l-0.3-0.6c-0.9-1.8-2.3-3.2-4-4.2c-1.8-1-3.9-1.5-6.2-1.6
		c-1.4-0.1-2.6,0-3.8,0.1c-1.1,0.1-2.5,0.4-4,0.8c-2.8,0.7-5.2,1.7-7.2,2.9c-2,1.2-3.6,2.7-4.9,4.3c-2.4,3.3-3.2,6.9-2.3,10.8
		l0.3,1.3l0.7,1.5c0.1,0.3,0.3,0.5,0.4,0.8l-11.9-14.5l-11.5,3l-2.2,9.6c-0.2-0.6-0.4-1.2-0.6-1.7c-0.7-1.4-1.8-2.5-3.3-3.2
		c-1.4-0.7-3.2-1-5.3-1c-2,0-4.4,0.3-7.3,1.1l-16,4.2l5.8,24.8l11.6-3l-1.8-7.5l5-1.3c4.9-1.3,8.3-3,10.2-5.3l-2.5,11.2l11.4-3
		l0.4-3.5l10-2.6l2,2.8l11.6-3l-4.1-4.9c1.3,1.1,2.8,2,4.7,2.6c3.2,1.1,7,1,11.2-0.1c3.9-1,6.8-2.7,8.8-5L169,90l7.6-2l-3.2-14.1
		L157.8,78L157.8,78z"/>
	<path class="st15" d="M141.4,126.1c-0.8,0-1.5-0.6-1.6-1.5c-0.1-0.9,0.2-1.8,0.5-2.7c1.2-3.2,3-6,5.5-8.4c0.5-0.5,1.1-0.8,1.7-1.2
		c0.3-0.2,0.7-0.4,1-0.4c0.3,0,0.6,0.1,0.9,0.5c0.3-0.2,0.6-0.4,0.9-0.4c0.3,0,0.6,0.1,0.8,0.3c0.3,0.3,0.3,0.6,0.1,0.9
		c-0.7,1.5-1.4,3-2,4.6c-0.3,0.7-0.4,1.5-0.7,2.2c0,0.1,0,0.1,0,0.3c0.3-0.3,0.6-0.6,0.9-0.8c1.9-2.2,3.8-4.5,5.7-6.7
		c0.3-0.4,0.6-0.9,1-1.2c1.7-1.4,3.3-2.9,5.5-3.3c0.1,0,0.2,0,0.4,0c0,0,0,0,0,0c1,0,1.5,0.6,1.4,1.6c-0.2,1.4-1.1,2.4-2.3,3.1
		c-0.5,0.3-1,0.5-1.6,0.6c0,0-0.1,0-0.1,0c-0.2,0-0.4-0.1-0.6-0.2c0.1-0.2,0.1-0.4,0.2-0.6c0.5-0.7,1-1.3,1.5-2
		c0.1-0.2,0.1-0.4,0.1-0.7c-1,0.3-1.7,0.9-2.4,1.6c-1.5,1.6-2.5,3.5-3,5.7c-0.1,0.4-0.1,0.9-0.1,1.3c0,0.4,0.2,0.6,0.5,0.6
		c0.1,0,0.2,0,0.3-0.1c1.8-0.5,3.2-1.5,4.4-2.9c2-2.1,3.8-4.4,5.7-6.6c0.4-0.4,0.5-1,0.8-1.5c0.6-1.1,1.4-1.3,2.3-1.3
		c0.1,0,0.2,0,0.3,0c0.5,0,0.4,0.3,0.2,0.6c-0.5,1.1-1.1,2.2-1.5,3.4c-0.4,1.2-0.7,2.5-1,3.7c0,0.1-0.1,0.2,0,0.3
		c0,0.2,0.1,0.5,0.2,0.6c0,0,0.1,0,0.1,0c0.1,0,0.3-0.1,0.4-0.1c0.2-0.1,0.4-0.3,0.6-0.5c1.9-2,3.8-4,5.7-6.1
		c0.2-0.2,0.4-0.6,0.5-0.9c1.7-6,5.5-11.6,10.3-15.5c0.4-0.3,0.8-0.5,1.1-0.5c0.4,0,0.7,0.2,1.1,0.6c0.3,0.3,0.4,0.6,0.2,1
		c-0.5,1.2-1.4,3-2,4.2c-1.9,3.6-4.3,6.8-6.9,9.9c-0.5,0.6-1,1.2-1.5,1.9c-0.5,0.7-0.8,1.5-0.5,2.4c0.1,0.5,0.3,0.7,0.6,0.7
		c0.2,0,0.4-0.1,0.7-0.3c1.4-1,2.6-2.2,3.7-3.6c1.7-2.1,3.4-4.2,5.1-6.3c0.1-0.1,0.2-0.2,0.3-0.4c0.5,0.4,0.6,0.6,0.3,1
		c-2.3,3.7-4.6,7.3-7.5,10.5c-0.5,0.5-1.1,1-1.8,1.4c-0.5,0.3-1,0.4-1.5,0.4c-0.9,0-1.6-0.6-2.1-1.8c-0.2-0.6-0.4-1.3-0.6-2
		c-0.3,0.4-0.6,0.8-0.9,1.2c-1.1,1.4-2.3,2.8-3.5,4.2c-0.6,0.7-1.4,1.1-2.4,1.2c-0.1,0-0.2,0-0.3,0c-1,0-1.7-0.5-2-1.5
		c-0.3-0.7-0.3-1.4-0.2-2.1c0.1-0.4,0.1-0.8,0.2-1.4c-0.4,0.5-0.7,0.9-1,1.3c-1.6,2-3.2,3.9-5.3,5.4c-0.7,0.5-1.4,0.9-2.1,1.3
		c-0.6,0.3-1.1,0.4-1.6,0.4c-1.3,0-2-1-2.3-2.6c-0.1-0.4-0.1-0.7-0.1-1.2c-0.7,0.9-1.2,1.8-1.9,2.6c-0.8,1-1.5,1.9-2.4,2.8
		c-0.3,0.3-0.6,0.5-0.9,0.5c-0.4,0-0.8-0.3-1-0.9c-0.2-0.6-0.3-1.2-0.4-1.8c0-0.2-0.1-0.5-0.1-0.7c-0.1,0-0.2-0.1-0.2-0.1
		c-0.1,0.2-0.1,0.4-0.2,0.6c-0.8,1.2-1.6,2.5-2.5,3.7c-0.3,0.4-0.7,0.6-1,0.9C142,126,141.7,126.1,141.4,126.1 M148.7,114.1
		c-0.4,0.2-0.8,0.4-1.1,0.7c-2.1,1.9-3.5,4.3-4.5,6.9c-0.1,0.2-0.1,0.4-0.1,0.6c0.1,0,0.1,0.1,0.2,0.1c2.2-2.5,3.9-5.4,5.7-8.1
		C148.8,114.2,148.7,114.1,148.7,114.1 M184.5,95.7c-2.5,3.1-4.5,6.5-6.1,10.2C179.5,105.5,184.5,97.1,184.5,95.7"/>
	<path class="st15" d="M128,128.5c-0.8,0-1.6-0.2-2.2-0.8c-0.2-0.2-0.2-0.6-0.2-0.9c-0.1-2.3,0.7-4.5,1.7-6.5
		c0.2-0.4,0.2-0.7-0.1-0.9c-0.2-0.2-0.5-0.5-0.7-0.7c-0.4-0.5-0.3-0.9,0.2-1.3c0.7-0.4,1.4-0.8,2.2-1.1c0.5-0.2,0.9-0.6,1.2-1
		c1.3-1.9,2.6-3.8,3.9-5.6c0.3-0.4,0.6-0.8,0.9-1.1c0,0,0-0.1,0-0.1c-0.2,0.1-0.4,0.1-0.6,0.2c-1.9,0.7-3.8,1.5-5.8,2.2
		c-1.1,0.4-2.2,0.7-3.3,0.9c-0.1,0-0.2,0-0.4,0c-0.5,0-0.9-0.2-1.3-0.7c-0.4-0.6-0.4-1,0.1-1.5c0.6-0.5,1.2-1,1.8-1.4
		c0.8-0.6,1.7-1,2.6-1.5c0.2-0.1,0.5-0.1,0.9-0.2c-0.1,0.3-0.2,0.5-0.3,0.8c0.8-0.4,1.5-0.7,2.2-1c3.3-1.5,6.7-2.8,10.2-3.7
		c1.5-0.4,3.1-0.6,4.6-0.6c0.2,0,0.4,0,0.6,0c1.3,0.1,2.5,0.5,3.6,1.2c0.1,0.1,0.2,0.2,0.3,0.3c-0.1,0.1-0.2,0.2-0.3,0.3
		c-0.8,0.3-1.6,0.5-2.4,0.7c-3.2,1-6.4,2-9.5,3c-0.4,0.1-0.9,0.3-1.4,0.5c0.8,0.5,0.8,0.6,0.3,1.3c-1,1.6-2,3.1-3,4.7
		c0,0.1-0.1,0.1-0.2,0.4c0.5-0.2,0.9-0.3,1.3-0.4c1.6-0.5,3.1-1,4.8-1.1c0.1,0,0.2,0,0.2,0c0.3,0,0.7,0,1,0.1c0.3,0,0.6,0.1,0.8,0.3
		c0.3,0.3,0.4,0.7,0.7,1c-0.3,0.1-0.5,0.3-0.8,0.4c-3.1,1.3-6.2,2.6-9.3,3.9c-0.8,0.3-1.4,0.9-1.7,1.8c-0.6,1.6-1.2,3.2-1.8,4.9
		c-0.2,0.5-0.4,1.1-0.5,1.7C128.1,127.4,128.1,127.9,128,128.5"/>
	<path class="st15" d="M149.2,110.3c-0.1,0-0.2,0-0.3-0.1c-0.1-0.1-0.2-0.4-0.1-0.6c0.1-0.3,0.2-0.5,0.4-0.7c1.2-1.4,2.2-3,2.6-4.8
		c0.1-0.5,0.5-0.8,0.9-0.8c0.2,0,0.4,0.1,0.6,0.2c0.4,0.3,0.6,0.8,1,1.2c-0.1,0.5-0.1,0.9-0.2,1.3c-0.4,1.1-1.1,1.9-2,2.6
		c-0.8,0.6-1.7,1.1-2.5,1.6C149.5,110.3,149.4,110.3,149.2,110.3"/>
	<path class="st15" d="M170.1,104.1c-0.4,0-0.7-0.2-0.6-0.6c0-0.5,0.1-1.1,0.4-1.5c0.3-0.6,0.8-1,1.3-1.5c0.2-0.2,0.4-0.3,0.6-0.3
		c0.2,0,0.4,0.1,0.5,0.2c0.4,0.4,0.5,0.7,0.3,1.2c-0.4,0.9-0.9,1.7-1.7,2.3c-0.2,0.1-0.3,0.2-0.4,0.2
		C170.4,104.1,170.2,104.1,170.1,104.1"/>
	<path class="st2" d="M142.2,121.5c-0.1,0-0.1-0.1-0.2-0.1c0-0.2,0-0.4,0.1-0.6c1-2.6,2.4-5,4.5-6.9c0.3-0.3,0.7-0.5,1.1-0.7
		c0,0.1,0.1,0.1,0.1,0.2C146.1,116.1,144.4,119,142.2,121.5L142.2,121.5z M183.6,94.9c0,1.4-5,9.8-6.1,10.2
		C179.1,101.4,181.1,98,183.6,94.9L183.6,94.9z M176.4,109c0.5-0.7,1-1.3,1.5-1.9c2.6-3.1,5-6.3,6.9-9.9c0.6-1.1,1.5-3,2-4.1
		c0.2-0.4,0.1-0.7-0.2-1c-0.8-0.8-1.4-0.8-2.3-0.1c-4.9,3.9-8.6,9.5-10.3,15.5c-0.1,0.3-0.3,0.7-0.5,0.9c-1.9,2-3.8,4.1-5.7,6.1
		c-0.2,0.2-0.4,0.3-0.6,0.5c-0.2,0.1-0.4,0.2-0.6,0.1c-0.1-0.1-0.2-0.4-0.2-0.6c0-0.1,0-0.2,0-0.3c0.3-1.2,0.6-2.5,1-3.7
		c0.4-1.2,1-2.3,1.5-3.4c0.1-0.3,0.3-0.6-0.2-0.6c-1.1,0-2,0.1-2.6,1.3c-0.3,0.5-0.4,1.1-0.8,1.5c-1.9,2.2-3.7,4.4-5.7,6.6
		c-1.2,1.3-2.7,2.3-4.4,2.9c-0.5,0.2-0.8,0-0.8-0.5c0-0.4,0-0.9,0.1-1.3c0.5-2.2,1.5-4,3-5.7c0.7-0.7,1.4-1.3,2.4-1.6
		c0,0.2,0,0.5-0.1,0.7c-0.5,0.7-1,1.3-1.5,2c-0.1,0.2-0.2,0.4-0.2,0.6c0.2,0.1,0.5,0.2,0.6,0.2c0.5-0.2,1.1-0.3,1.6-0.6
		c1.2-0.7,2-1.7,2.3-3.1c0.2-1-0.4-1.6-1.4-1.6c-0.1,0-0.3,0-0.4,0c-2.2,0.4-3.9,1.9-5.5,3.3c-0.4,0.3-0.7,0.8-1,1.2
		c-1.9,2.2-3.8,4.5-5.7,6.7c-0.3,0.3-0.6,0.5-0.9,0.8c0-0.2-0.1-0.2,0-0.3c0.2-0.8,0.4-1.5,0.7-2.2c0.6-1.5,1.3-3.1,2-4.6
		c0.1-0.3,0.2-0.6-0.1-0.9c-0.5-0.4-1.1-0.4-1.7,0c-0.6-0.8-1.2-0.6-1.9-0.2c-0.6,0.4-1.2,0.7-1.7,1.2c-2.5,2.3-4.3,5.2-5.5,8.4
		c-0.3,0.9-0.6,1.7-0.5,2.7c0.1,1.2,1.5,2,2.5,1.2c0.4-0.3,0.8-0.6,1-0.9c0.9-1.2,1.7-2.4,2.5-3.7c0.1-0.2,0.1-0.4,0.2-0.6
		c0.1,0,0.2,0.1,0.2,0.1c0,0.2,0.1,0.5,0.1,0.7c0.1,0.6,0.2,1.2,0.4,1.8c0.4,1,1.1,1.2,1.9,0.4c0.8-0.9,1.6-1.8,2.4-2.8
		c0.7-0.8,1.2-1.7,1.9-2.6c0,0.4,0,0.8,0.1,1.2c0.4,2.1,1.6,3.2,3.8,2.2c0.7-0.4,1.5-0.8,2.1-1.3c2-1.5,3.7-3.4,5.3-5.4
		c0.3-0.4,0.6-0.8,1-1.3c-0.1,0.5-0.2,1-0.2,1.4c-0.1,0.7-0.1,1.4,0.2,2.1c0.4,1.1,1.2,1.6,2.3,1.5c0.9-0.1,1.8-0.5,2.4-1.2
		c1.2-1.4,2.3-2.8,3.5-4.2c0.3-0.4,0.6-0.8,0.9-1.2c0.2,0.7,0.3,1.3,0.6,2c0.7,1.8,1.9,2.3,3.6,1.4c0.7-0.3,1.3-0.8,1.8-1.4
		c2.9-3.2,5.2-6.9,7.5-10.5c0.3-0.4,0.2-0.7-0.3-1c-0.1,0.2-0.2,0.3-0.3,0.4c-1.7,2.1-3.4,4.2-5.1,6.3c-1.1,1.3-2.3,2.6-3.7,3.6
		c-0.7,0.5-1.1,0.3-1.3-0.5C175.6,110.6,175.9,109.7,176.4,109L176.4,109z"/>
	<path class="st2" d="M141.5,113.3c-0.2-0.3-0.4-0.7-0.7-1c-0.2-0.2-0.5-0.3-0.8-0.3c-0.4-0.1-0.8-0.1-1.2-0.1
		c-1.6,0.1-3.2,0.6-4.8,1.1c-0.4,0.1-0.8,0.3-1.3,0.4c0.1-0.2,0.1-0.3,0.2-0.4c1-1.6,2-3.2,3-4.7c0.5-0.8,0.5-0.8-0.3-1.3
		c0.5-0.2,0.9-0.4,1.4-0.5c3.2-1,6.4-2,9.5-3c0.8-0.2,1.6-0.5,2.4-0.7c0.1,0,0.2-0.2,0.3-0.3c-0.1-0.1-0.2-0.2-0.3-0.3
		c-1.1-0.7-2.3-1.2-3.6-1.2c-1.8-0.1-3.5,0.2-5.2,0.6c-3.5,0.9-6.9,2.2-10.2,3.7c-0.7,0.3-1.4,0.7-2.2,1c0.1-0.3,0.2-0.4,0.3-0.8
		c-0.4,0.1-0.6,0.1-0.9,0.2c-0.9,0.5-1.8,1-2.6,1.5c-0.7,0.4-1.3,0.9-1.8,1.4c-0.5,0.5-0.5,0.9-0.1,1.5c0.4,0.5,1,0.8,1.6,0.6
		c1.1-0.2,2.2-0.5,3.3-0.9c1.9-0.7,3.9-1.5,5.8-2.2c0.2-0.1,0.4-0.1,0.6-0.2c0,0,0,0.1,0,0.1c-0.3,0.4-0.6,0.7-0.9,1.1
		c-1.3,1.9-2.6,3.8-3.9,5.6c-0.3,0.5-0.7,0.8-1.2,1c-0.7,0.3-1.5,0.7-2.2,1.1c-0.5,0.3-0.6,0.8-0.2,1.3c0.2,0.3,0.4,0.5,0.7,0.7
		c0.3,0.3,0.3,0.6,0.1,0.9c-1.1,2-1.8,4.2-1.7,6.5c0,0.3,0,0.7,0.2,0.9c0.6,0.6,1.4,0.8,2.2,0.8c0.1-0.6,0.1-1.2,0.2-1.7
		c0.1-0.6,0.3-1.1,0.5-1.7c0.6-1.6,1.3-3.2,1.8-4.9c0.3-0.9,0.8-1.5,1.7-1.8c3.1-1.3,6.2-2.6,9.3-3.9
		C141,113.6,141.2,113.4,141.5,113.3L141.5,113.3z"/>
	<path class="st2" d="M147.9,108.8c-0.1,0.2,0,0.5,0.1,0.6c0.1,0.1,0.4,0.1,0.6,0c0.9-0.5,1.7-1,2.5-1.6c0.9-0.7,1.6-1.5,2-2.6
		c0.1-0.4,0.1-0.8,0.2-1.3c-0.3-0.4-0.6-0.9-1-1.2c-0.6-0.5-1.3-0.2-1.5,0.5c-0.4,1.8-1.4,3.4-2.6,4.8
		C148.2,108.2,148,108.5,147.9,108.8L147.9,108.8z"/>
	<path class="st2" d="M169.6,103.2c0.1,0,0.3-0.1,0.4-0.2c0.8-0.6,1.3-1.4,1.7-2.3c0.2-0.5,0.1-0.8-0.3-1.2c-0.4-0.3-0.8-0.3-1.1,0
		c-0.5,0.5-1,0.9-1.3,1.5c-0.3,0.4-0.4,1-0.4,1.5C168.5,103.2,169,103.4,169.6,103.2L169.6,103.2z"/>
</g>
</svg>
