<?xml version="1.0" encoding="utf-8"?>
<!-- Generator: Adobe Illustrator 23.0.2, SVG Export Plug-In . SVG Version: 6.00 Build 0)  -->
<svg version="1.1" id="Layer_1" xmlns="http://www.w3.org/2000/svg" xmlns:xlink="http://www.w3.org/1999/xlink" x="0px" y="0px"
	 viewBox="0 0 296 185.9" style="enable-background:new 0 0 296 185.9;" xml:space="preserve">
<style type="text/css">
	.st0{fill:url(#SVGID_1_);}
	.st1{fill:#0E4595;}
	.st2{fill:#FFFFFF;}
	.st3{fill:#92DBEF;}
	.st4{fill:#B02444;}
	.st5{fill:#0079BE;}
	.st6{fill:#26A6D1;}
	.st7{fill:#8EB829;}
	.st8{fill:#00A7DE;}
	.st9{fill-rule:evenodd;clip-rule:evenodd;fill:#FFFFFF;stroke:#FFFFFF;stroke-width:0.5669;stroke-miterlimit:10;}
	.st10{fill-rule:evenodd;clip-rule:evenodd;fill:#EE7D00;stroke:#FFFFFF;stroke-width:0.216;stroke-miterlimit:10;}
	.st11{fill-rule:evenodd;clip-rule:evenodd;fill:#FFFFFF;}
	.st12{fill-rule:evenodd;clip-rule:evenodd;fill:#FCDD14;}
	.st13{fill-rule:evenodd;clip-rule:evenodd;fill:#E21E84;}
	.st14{fill:#1A5EA8;}
	.st15{fill:#9D1A7E;}
	.st16{fill:#FAD00B;}
	.st17{fill:#067853;}
	.st18{fill:#E8232B;}
	.st19{fill:#263B80;}
	.st20{fill:#232C65;}
	.st21{fill:#139AD6;}
	.st22{fill:#E23221;}
	.st23{fill:#382D71;}
	.st24{fill:none;}
	.st25{fill:#036EB1;}
	.st26{fill:url(#SVGID_2_);}
	.st27{fill:url(#SVGID_3_);}
	.st28{fill:url(#SVGID_4_);}
	.st29{fill:url(#SVGID_5_);}
	.st30{fill:url(#SVGID_6_);}
	.st31{fill:url(#SVGID_7_);}
	.st32{fill:url(#SVGID_8_);}
	.st33{fill:url(#SVGID_9_);}
	.st34{fill:#F49824;}
	.st35{clip-path:url(#SVGID_11_);}
	.st36{fill:#9B2A2B;}
	.st37{fill:#E95527;}
	.st38{fill:#F2AE14;}
	.st39{fill:#FF5F00;}
	.st40{fill:#EB001B;}
	.st41{fill:#F79E1B;}
	.st42{fill:#7673C0;}
	.st43{fill:#00A1DF;}
	.st44{fill:#000F9F;}
	.st45{fill:#009EE2;}
</style>
<path id="Rectangle-1_13_" class="st2" d="M15.8,0h264.4c8.7,0,15.8,7.1,15.8,15.8v154.3c0,8.7-7.1,15.8-15.8,15.8H15.8
	c-8.7,0-15.8-7.1-15.8-15.8V15.8C0,7.1,7.1,0,15.8,0z"/>
<g>
	<path class="st7" d="M154.3,66.4c0-3.5,0-7,0-10.6c0-2.2,1.2-3.5,3.4-3.4c2.6,0.1,5.3-0.1,7.8,0.4c6.6,1.2,11.4,7.5,11,14.4
		c-0.3,6.8-5.6,12.6-12.2,13.3c-2.4,0.2-4.8,0.1-7.2,0.1c-1.7,0-2.8-1.4-2.8-3.1C154.3,73.8,154.3,70.1,154.3,66.4z"/>
	<g>
		<path class="st7" d="M204.6,78.5c0,0.4,0.1,0.7,0.1,1.1c0,23.4,0,46.9,0,70.3c0,5.9-3.7,9.6-9.5,10c-0.3,0-0.7,0-1,0
			c-17.4,0-34.8,0-52.1,0c-8.2,0-16.2-1.3-23.7-4.6c-11.7-5.1-19.2-13.9-23.4-25.8c-2.7-7.5-3.6-15.3-3.6-23.3c0-23.9,0-47.8,0-71.7
			c0-1.8,0.3-3.5,1.3-5.1c1.7-2.5,4.2-3.2,7-3.3c4.7-0.1,9.5,0,14.2,0c12.7,0,25.5,0,38.2,0c0.3,0,0.6,0,0.9,0
			c0.3,0.1,0.6,0.2,0.9,0.3c-0.1,0.3-0.2,0.7-0.4,0.9c-3.2,3.5-6.4,7-9.6,10.5c-1.4,1.5-3.1,2.1-5.2,2.1c-4.1,0-8.2,0-12.3,0
			c-0.5,0-0.9,0-1.4,0.1c-0.9,0.2-1.4,0.8-1.4,1.7c0,0.3,0,0.6,0,0.8c0,19.6,0,39.1,0,58.7c0,3.9-0.1,7.8,0.8,11.6
			c2.3,9.9,9.3,16.4,19.4,18c2.5,0.4,5,0.5,7.5,0.6c2.1,0.1,2.7-0.6,2.7-2.7c0-7.2,0-14.4,0-21.5c0-2.1,0.6-2.7,2.7-2.5
			c6.8,0.6,13.5,0,20-1.8c12.5-3.6,21.6-11.1,26.9-23.1c0.2-0.4,0.4-0.8,0.6-1.2C204.4,78.5,204.5,78.5,204.6,78.5z"/>
	</g>
</g>
</svg>
