<?xml version="1.0" encoding="utf-8"?>
<!-- Generator: Adobe Illustrator 23.0.2, SVG Export Plug-In . SVG Version: 6.00 Build 0)  -->
<svg version="1.1" id="Layer_1" xmlns="http://www.w3.org/2000/svg" xmlns:xlink="http://www.w3.org/1999/xlink" x="0px" y="0px"
	 viewBox="0 0 296 185.9" style="enable-background:new 0 0 296 185.9;" xml:space="preserve">
<style type="text/css">
	.st0{fill:url(#SVGID_1_);}
	.st1{fill:#0E4595;}
	.st2{fill:#FFFFFF;}
	.st3{fill:#92DBEF;}
	.st4{fill:#B02444;}
	.st5{fill:#0079BE;}
	.st6{fill:#26A6D1;}
	.st7{fill:#8EB829;}
	.st8{fill:#00A7DE;}
	.st9{fill-rule:evenodd;clip-rule:evenodd;fill:#FFFFFF;stroke:#FFFFFF;stroke-width:0.5669;stroke-miterlimit:10;}
	.st10{fill-rule:evenodd;clip-rule:evenodd;fill:#EE7D00;stroke:#FFFFFF;stroke-width:0.216;stroke-miterlimit:10;}
	.st11{fill-rule:evenodd;clip-rule:evenodd;fill:#FFFFFF;}
	.st12{fill-rule:evenodd;clip-rule:evenodd;fill:#FCDD14;}
	.st13{fill-rule:evenodd;clip-rule:evenodd;fill:#E21E84;}
	.st14{fill:#1A5EA8;}
	.st15{fill:#9D1A7E;}
	.st16{fill:#FAD00B;}
	.st17{fill:#067853;}
	.st18{fill:#E8232B;}
	.st19{fill:#263B80;}
	.st20{fill:#232C65;}
	.st21{fill:#139AD6;}
	.st22{fill:#E23221;}
	.st23{fill:#382D71;}
	.st24{fill:none;}
	.st25{fill:#036EB1;}
	.st26{fill:url(#SVGID_2_);}
	.st27{fill:url(#SVGID_3_);}
	.st28{fill:url(#SVGID_4_);}
	.st29{fill:url(#SVGID_5_);}
	.st30{fill:url(#SVGID_6_);}
	.st31{fill:url(#SVGID_7_);}
	.st32{fill:url(#SVGID_8_);}
	.st33{fill:url(#SVGID_9_);}
	.st34{fill:#F49824;}
	.st35{clip-path:url(#SVGID_11_);}
	.st36{fill:#9B2A2B;}
	.st37{fill:#E95527;}
	.st38{fill:#F2AE14;}
	.st39{fill:#FF5F00;}
	.st40{fill:#EB001B;}
	.st41{fill:#F79E1B;}
	.st42{fill:#7673C0;}
	.st43{fill:#00A1DF;}
	.st44{fill:#000F9F;}
	.st45{fill:#009EE2;}
</style>
<path id="Rectangle-1_11_" class="st2" d="M15.8,0h264.4c8.7,0,15.8,7.1,15.8,15.8v154.3c0,8.7-7.1,15.8-15.8,15.8H15.8
	c-8.7,0-15.8-7.1-15.8-15.8V15.8C0,7.1,7.1,0,15.8,0z"/>
<g>
	<path class="st22" d="M209.8,44.7c2.8,6.6-2.5,15.2-11.9,19.2c-9.4,4-19.3,2-22.1-4.6c-2.8-6.6,2.5-15.2,11.9-19.2
		C197.1,36,207,38.1,209.8,44.7z"/>
	<g>
		<path class="st23" d="M165.2,90.1L139,90.2l-2.7,6.8h2.9c0,0,1.6,0.5,1,2.3l-10,25h9.9l3.9-9.4h12c0,0,5.8-0.1,9.1-5.7l5.4-13.4
			C170.4,95.8,172.1,91.3,165.2,90.1z M159.1,99.7l-2.8,6.4c0,0-0.5,1.7-3.2,1.7l-6.4-0.2l4.1-10.2h6.9
			C157.7,97.3,159.6,97.3,159.1,99.7z"/>
	</g>
	<g>
		<path class="st23" d="M198.9,104l5.6-13.8h-20.7c0,0-8.3,0.9-10.6,6.3l-4.4,10.6c0,0-2.2,6.9,3.8,7.4h26.7l2.8-6.7
			C202.1,107.8,197,108.4,198.9,104z M187.8,107.8h-7.2c0,0-1.5-0.2-0.8-2.8c0,0,2.3-7.8,5.5-8l6.4,0.2L187.8,107.8z"/>
	</g>
	<g>
		<path class="st23" d="M234.7,97.4l-3.7-3.9c-1.5-1.4,0.1-2.8,0.1-2.8l1.8-1.3l-4.6-4.9C214.6,91.4,203.3,99,203.3,99
			c-2.1,2.6-0.1,5.6-0.1,5.6l8.7,9.1c0.9,2.5-1.7,3-1.7,3l-6.2-0.1l-3.1,6.7c1.6,0,11.1-0.1,11.1-0.1c8.6-4.3,11-7.8,11-7.8
			c1.5-2.1-0.1-4.3-0.1-4.3c-1.1-1.4,0.7-2,0.7-2c7.1-3.9,10.5-7.1,10.5-7.1C236,99.8,234.7,97.4,234.7,97.4z M224.3,101l-7.5,4.7
			c-1.1,0.6-1.8-0.2-1.8-0.2l-3-3.4c-0.8-1,0.5-2.5,0.5-2.5l5.7-3.7c2.5-1.1,3.5,0.1,3.5,0.1l2.5,2.5
			C225.2,99.8,224.3,101,224.3,101z"/>
	</g>
	<g>
		<path class="st23" d="M271.8,98.2c0,0-7.5-7.4-9.3-8.1c0,0-4-1.8-7.9,0.1c0,0-11.7,5.9-17.2,9.5c0,0-3.4,2.6-2.1,5.9
			c0,0,6.9,8.1,9.1,9.1c0,0,2.7,1.9,7.3,0.5c0,0,13.3-5.1,20-11.5C271.7,103.7,273.7,101.4,271.8,98.2z M260.7,103.2
			c-0.1,0.3-6.7,3.9-6.7,3.9c-2.1,1.1-3.7,0.1-3.7,0.1c-1.1-0.6-3.2-3.2-3.2-3.2c-0.8-0.9,0.1-2.1,0.1-2.1c1.3-1.3,7-4.2,7-4.2
			c1.3-0.9,3.5,0.2,3.5,0.2l3.1,2.8C262,101.8,260.7,103.2,260.7,103.2z"/>
	</g>
	<path class="st22" d="M134.9,90.2H125c0,0-6.3,15.3-6.9,17.3c0,0-1.2,3.7,0.6,5.2c0,0,1.9,1.9,4.1,1.9l6.9-0.1l2.9-6.8h-2.2
		c0,0-2.5-0.5-1.5-2.9L134.9,90.2z"/>
	<path class="st22" d="M130.4,80.3c0,0,3.7-1.2,5.7,0.2c0,0,2.7,1.6,0.5,4.5c0,0-1.7,2.8-6.3,2.9c0,0-3.9,0.5-4.1-2.7
		C126.2,85.1,126,81.9,130.4,80.3z"/>
	<g>
		<path class="st22" d="M117.6,91.8c0,0-1.3-1.5-4.7-1.7l-25.1,0.1L85.1,97h2.1c0,0,2.3,0,1,3.4l-9.3,23.9l9.8,0.1l3.6-9.8l12.7,0.1
			c0,0,3.7,0.4,7-3.7c0,0,5.1-8.1,6.4-14.1C118.5,96.8,119.8,93.5,117.6,91.8z M107.4,99.8c0,1.3-2.5,6.1-2.5,6.1
			c-1.3,1.7-3.3,1.7-3.3,1.7h-6.3l4.3-10.3h6.6C108.3,97.4,107.4,99.8,107.4,99.8z"/>
	</g>
	<path class="st22" d="M79.3,103.8l5.5-13.7L65,90c-3,0-6.3,1.5-6.3,1.5c-3.9,1.9-4.7,4.5-4.7,4.5c-1.5,2.2-4.5,10.7-4.5,10.7
		c-1.7,4.2,0,5.7,0,5.7c1.7,2.3,4.9,2.3,4.9,2.3l25.5,0.1l2.8-6.7l-3.1-0.5C77.9,106.8,79.3,103.8,79.3,103.8z M68.1,107.6l-6.6,0.1
		c0,0-2.4-0.1-1.3-3.3c0,0,1.2-4.2,2.5-5.6c0,0,0.9-1.6,3.5-1.6l5.8,0.1L68.1,107.6z"/>
	<path class="st22" d="M53.3,90.2l-2.9,7.1h-7.8c0,0-2.1-0.4-3.5,2.6l-5.8,14.8l-10,0.1l9.7-24.7L53.3,90.2z"/>
	<path class="st23" d="M190,33.7c0,0-9.7,3.3-12.9,7.1c0,0-5.5,4.9-7.3,12.7c0,0-0.9,7.3,2.7,10.9c0,0,3.3,4.3,6.6,5.4
		c0,0,4.7,1.9,11.6,1.3c0,0,11.6-1.5,17.7-8.1c0,0-2.9,6.2-12.3,12.5c0,0-6.4,4.7-16.7,7c0,0-9.4,2.5-17.6,0.4c0,0-8.4-1.7-12.3-6.7
		c0,0-4.3-4.2-4.3-10.2c0,0-0.5-6.7,5-14.3c0,0,5.7-6.9,11.3-10.3c0,0,7.4-4.2,13-5.9C174.4,35.5,182,33.1,190,33.7z"/>
</g>
</svg>
