<?xml version="1.0" encoding="utf-8"?>
<!-- Generator: Adobe Illustrator 23.0.2, SVG Export Plug-In . SVG Version: 6.00 Build 0)  -->
<svg version="1.1" id="Layer_1" xmlns="http://www.w3.org/2000/svg" xmlns:xlink="http://www.w3.org/1999/xlink" x="0px" y="0px"
	 viewBox="0 0 296 185.9" style="enable-background:new 0 0 296 185.9;" xml:space="preserve">
<style type="text/css">
	.st0{fill:#FFFFFF;}
	.st1{fill:#382D71;}
	.st2{fill:#E23221;}
</style>
<path id="Rectangle-1_11_" class="st0" d="M15.8,0h264.4c8.7,0,15.8,7.1,15.8,15.8v154.3c0,8.7-7.1,15.8-15.8,15.8H15.8
	c-8.7,0-15.8-7.1-15.8-15.8V15.8C0,7.1,7.1,0,15.8,0z"/>
<g>
	<g>
		<path class="st1" d="M165.2,80.9L139,81l-2.7,6.8h2.9c0,0,1.6,0.5,1,2.3l-10,25h9.9l3.9-9.4h12c0,0,5.8-0.1,9.1-5.7l5.4-13.4
			C170.4,86.6,172.1,82.1,165.2,80.9z M159.1,90.5l-2.8,6.4c0,0-0.5,1.7-3.2,1.7l-6.4-0.2l4.1-10.2h6.9
			C157.7,88.1,159.6,88.1,159.1,90.5z"/>
	</g>
	<g>
		<path class="st1" d="M198.9,94.8l5.6-13.8h-20.7c0,0-8.3,0.9-10.6,6.3l-4.4,10.6c0,0-2.2,6.9,3.8,7.4h26.7l2.8-6.7
			C202.1,98.6,197,99.2,198.9,94.8z M187.8,98.6h-7.2c0,0-1.5-0.2-0.8-2.8c0,0,2.3-7.8,5.5-8l6.4,0.2L187.8,98.6z"/>
	</g>
	<g>
		<path class="st1" d="M234.7,88.2l-3.7-3.9c-1.5-1.4,0.1-2.8,0.1-2.8l1.8-1.3l-4.6-4.9c-13.7,6.9-25,14.5-25,14.5
			c-2.1,2.6-0.1,5.6-0.1,5.6l8.7,9.1c0.9,2.5-1.7,3-1.7,3l-6.2-0.1l-3.1,6.7c1.6,0,11.1-0.1,11.1-0.1c8.6-4.3,11-7.8,11-7.8
			c1.5-2.1-0.1-4.3-0.1-4.3c-1.1-1.4,0.7-2,0.7-2c7.1-3.9,10.5-7.1,10.5-7.1C236,90.6,234.7,88.2,234.7,88.2z M224.3,91.8l-7.5,4.7
			c-1.1,0.6-1.8-0.2-1.8-0.2l-3-3.4c-0.8-1,0.5-2.5,0.5-2.5l5.7-3.7c2.5-1.1,3.5,0.1,3.5,0.1l2.5,2.5
			C225.2,90.6,224.3,91.8,224.3,91.8z"/>
	</g>
	<g>
		<path class="st1" d="M271.8,89c0,0-7.5-7.4-9.3-8.1c0,0-4-1.8-7.9,0.1c0,0-11.7,5.9-17.2,9.5c0,0-3.4,2.6-2.1,5.9
			c0,0,6.9,8.1,9.1,9.1c0,0,2.7,1.9,7.3,0.5c0,0,13.3-5.1,20-11.5C271.7,94.5,273.7,92.2,271.8,89z M260.7,94
			c-0.1,0.3-6.7,3.9-6.7,3.9c-2.1,1.1-3.7,0.1-3.7,0.1c-1.1-0.6-3.2-3.2-3.2-3.2c-0.8-0.9,0.1-2.1,0.1-2.1c1.3-1.3,7-4.2,7-4.2
			c1.3-0.9,3.5,0.2,3.5,0.2l3.1,2.8C262,92.6,260.7,94,260.7,94z"/>
	</g>
	<path class="st2" d="M134.9,81H125c0,0-6.3,15.3-6.9,17.3c0,0-1.2,3.7,0.6,5.2c0,0,1.9,1.9,4.1,1.9l6.9-0.1l2.9-6.8h-2.2
		c0,0-2.5-0.5-1.5-2.9L134.9,81z"/>
	<path class="st2" d="M130.4,71.1c0,0,3.7-1.2,5.7,0.2c0,0,2.7,1.6,0.5,4.5c0,0-1.7,2.8-6.3,2.9c0,0-3.9,0.5-4.1-2.7
		C126.2,75.9,126,72.7,130.4,71.1z"/>
	<g>
		<path class="st2" d="M117.6,82.6c0,0-1.3-1.5-4.7-1.7L87.8,81l-2.7,6.8h2.1c0,0,2.3,0,1,3.4l-9.3,23.9l9.8,0.1l3.6-9.8l12.7,0.1
			c0,0,3.7,0.4,7-3.7c0,0,5.1-8.1,6.4-14.1C118.5,87.6,119.8,84.3,117.6,82.6z M107.4,90.6c0,1.3-2.5,6.1-2.5,6.1
			c-1.3,1.7-3.3,1.7-3.3,1.7h-6.3l4.3-10.3h6.6C108.3,88.2,107.4,90.6,107.4,90.6z"/>
	</g>
	<path class="st2" d="M79.3,94.6l5.5-13.7L65,80.8c-3,0-6.3,1.5-6.3,1.5c-3.9,1.9-4.7,4.5-4.7,4.5c-1.5,2.2-4.5,10.7-4.5,10.7
		c-1.7,4.2,0,5.7,0,5.7c1.7,2.3,4.9,2.3,4.9,2.3l25.5,0.1l2.8-6.7l-3.1-0.5C77.9,97.6,79.3,94.6,79.3,94.6z M68.1,98.4l-6.6,0.1
		c0,0-2.4-0.1-1.3-3.3c0,0,1.2-4.2,2.5-5.6c0,0,0.9-1.6,3.5-1.6l5.8,0.1L68.1,98.4z"/>
	<path class="st2" d="M53.3,81l-2.9,7.1h-7.8c0,0-2.1-0.4-3.5,2.6l-5.8,14.8l-10,0.1L33,80.9L53.3,81z"/>
</g>
</svg>
