<?xml version="1.0" encoding="utf-8"?>
<!-- Generator: Adobe Illustrator 23.0.2, SVG Export Plug-In . SVG Version: 6.00 Build 0)  -->
<svg version="1.1" id="Layer_1" xmlns="http://www.w3.org/2000/svg" xmlns:xlink="http://www.w3.org/1999/xlink" x="0px" y="0px"
	 viewBox="0 0 296 185.9" style="enable-background:new 0 0 296 185.9;" xml:space="preserve">
<style type="text/css">
	.st0{fill:url(#SVGID_1_);}
	.st1{fill:#0E4595;}
	.st2{fill:#FFFFFF;}
	.st3{fill:#92DBEF;}
	.st4{fill:#B02444;}
	.st5{fill:#0079BE;}
	.st6{fill:#26A6D1;}
	.st7{fill:#8EB829;}
	.st8{fill:#00A7DE;}
	.st9{fill-rule:evenodd;clip-rule:evenodd;fill:#FFFFFF;stroke:#FFFFFF;stroke-width:0.5669;stroke-miterlimit:10;}
	.st10{fill-rule:evenodd;clip-rule:evenodd;fill:#EE7D00;stroke:#FFFFFF;stroke-width:0.216;stroke-miterlimit:10;}
	.st11{fill-rule:evenodd;clip-rule:evenodd;fill:#FFFFFF;}
	.st12{fill-rule:evenodd;clip-rule:evenodd;fill:#FCDD14;}
	.st13{fill-rule:evenodd;clip-rule:evenodd;fill:#E21E84;}
	.st14{fill:#1A5EA8;}
	.st15{fill:#9D1A7E;}
	.st16{fill:#FAD00B;}
	.st17{fill:#067853;}
	.st18{fill:#E8232B;}
	.st19{fill:#263B80;}
	.st20{fill:#232C65;}
	.st21{fill:#139AD6;}
	.st22{fill:#E23221;}
	.st23{fill:#382D71;}
	.st24{fill:none;}
	.st25{fill:#036EB1;}
	.st26{fill:url(#SVGID_2_);}
	.st27{fill:url(#SVGID_3_);}
	.st28{fill:url(#SVGID_4_);}
	.st29{fill:url(#SVGID_5_);}
	.st30{fill:url(#SVGID_6_);}
	.st31{fill:url(#SVGID_7_);}
	.st32{fill:url(#SVGID_8_);}
	.st33{fill:url(#SVGID_9_);}
	.st34{fill:#F49824;}
	.st35{clip-path:url(#SVGID_11_);}
	.st36{fill:#9B2A2B;}
	.st37{fill:#E95527;}
	.st38{fill:#F2AE14;}
	.st39{fill:#FF5F00;}
	.st40{fill:#EB001B;}
	.st41{fill:#F79E1B;}
	.st42{fill:#7673C0;}
	.st43{fill:#00A1DF;}
	.st44{fill:#000F9F;}
	.st45{fill:#009EE2;}
</style>
<g>
	<linearGradient id="SVGID_1_" gradientUnits="userSpaceOnUse" x1="2.694184e-05" y1="46.4668" x2="295.9674" y2="46.4668">
		<stop  offset="0" style="stop-color:#FAD82F"/>
		<stop  offset="0.1778" style="stop-color:#FAD538"/>
		<stop  offset="0.4783" style="stop-color:#FAD341"/>
		<stop  offset="1" style="stop-color:#FAD243"/>
	</linearGradient>
	<path class="st0" d="M296,15.8C296,7.1,288.9,0,280.2,0H15.8C7.1,0,0,7.1,0,15.8v77.1h296V15.8z"/>
	<path class="st1" d="M15.8,185.9h264.4c8.7,0,15.8-7.1,15.8-15.8V92.9H0v77.1C0,178.8,7.1,185.9,15.8,185.9z"/>
</g>
<g>
	<path class="st24" d="M263,77c3.3,0,6.1-2.8,6.1-6.1c0-3.3-2.8-6.1-6.1-6.1c-3.3,0-6.1,2.8-6.1,6.1C256.9,74.2,259.7,77,263,77z
		 M259.6,66.7l3.9,0c0.7,0,1.6,0,2.2,0.4c0.7,0.5,1,1.2,1,2.1c0,1.5-0.8,2.1-2,2.2l1.8,3.4l-2.2,0l-1.6-3.4l-1,0l0,3.4l-1.9,0
		L259.6,66.7z"/>
	<path class="st24" d="M237.9,75.8c-0.2-1.4-0.2-2.7-0.2-4.1l-0.5,0l-4,9.7l5.3,0L237.9,75.8z"/>
	<path class="st24" d="M79.8,75.8c-0.2-1.4-0.2-2.7-0.2-4.1l-0.5,0l-4,9.7l5.3,0L79.8,75.8z"/>
	<path class="st24" d="M116.8,69.8l-1,0l-0.9,5.4l0.9,0c2.2,0,4.4-0.3,4.8-2.7C121,70.1,119.1,69.8,116.8,69.8z"/>
	<polygon class="st24" points="229.6,89 227.9,92.9 240.1,92.9 239.5,89 	"/>
	<path class="st24" d="M264.8,69c0-0.9-1-0.9-1.6-0.8l-1.6,0l0,1.8l1.9,0C264.2,70,264.8,69.8,264.8,69z"/>
	<polygon class="st25" points="161.4,93 158,93 161.4,93 	"/>
	<polygon class="st25" points="126.7,93 124.4,93 19.1,93 19.1,93 	"/>
	<polygon class="st25" points="213.9,92.9 212.7,92.9 213.9,92.9 	"/>
	<path class="st1" d="M146.8,93c5.4-1.3,9.4-5.2,10.3-10.4l3.6-21.5l-12.9,0L144.6,80c-0.2,1.4-0.8,3.5-2.9,3.5c-2.1,0-3.8-2-3.8-2
		l-5.3,8.5c1.7,1.3,3.9,2.4,6.3,3l-5.8,0L127,82.6c-0.6-0.9-1.3-1.4-1.9-1.9l0-0.3c5.2-1.4,7.6-3.5,8.4-8.3
		c1.3-8-5.1-11.1-13.3-11.1l-15.9,0L99,93l12.9,0l1.7-10.2l0.2,0l4.1,10.2l6.5,0l33.6,0L146.8,93z M120.6,72.5
		c-0.4,2.4-2.6,2.7-4.8,2.7l-0.9,0l0.9-5.4l1,0C119.1,69.8,121,70.1,120.6,72.5z"/>
	<path class="st1" d="M276.8,92.9l-22.8,0l-7.6-31.8l-14.6,0l-17.9,31.8L276.8,92.9L276.8,92.9z M237.2,71.7l0.5,0
		c0,1.4,0,2.7,0.2,4.1l0.6,5.6l-5.3,0L237.2,71.7z M227.9,92.9l1.7-3.9l10,0l0.5,3.9L227.9,92.9z"/>
	<polygon class="st1" points="209.9,92.9 213.6,71.2 220.8,71.5 222.5,61.1 194.8,61.1 193,71.4 200.4,71.2 196.7,92.9 186.2,92.9 
		187.6,84.3 176.1,84.3 176.7,81.1 186.8,81.1 188.2,72.8 178,72.8 178.5,69.8 189.7,69.8 191.1,61.1 166.7,61.1 161.4,93 
		212.7,92.9 	"/>
	<path class="st1" d="M172.8,109l-1,0l-0.8,5.2l1.1,0c1.9,0,4.1-0.3,4.4-2.7C176.9,109.1,174.6,109,172.8,109z"/>
	<path class="st1" d="M213.9,92.9L213.9,92.9l-1.2,0l-51.3,0l0,0l-3.4,0l-33.6,0l2.3,0L19.1,93v88.8l257.7-0.1V92.9L213.9,92.9z
		 M48,111.5l2.4,0.6c4.5,1,7.5,3.5,6.8,8.6c-1,7.1-8.2,10.7-14.7,10.7c-3.8,0-8.1-1-11.3-2.7l4.6-8.5l0.5,0.4c1.8,1.5,4,2.7,6.5,2.7
		c1.1,0,2.9-0.4,3.1-1.8c0.2-1.3-1.2-1.5-2.2-1.7l-2.2-0.4c-4.2-0.8-7.5-3.2-6.8-7.9c1-7.1,8.2-11.1,14.8-11.1
		c3.5,0,6.5,0.8,9.2,2.6l-4.1,7.7c-1.7-1.3-3.7-2.3-6.1-2.3c-1,0-2.4,0.4-2.6,1.6C45.9,111.1,47.2,111.3,48,111.5z M87.2,130.7
		l-10.6,0l1.5-10.4l-6.8,0l-1.5,10.4l-10.6,0l4.4-29.9l10.6,0l-1.5,10.1l6.8,0l1.5-10.1l10.6,0L87.2,130.7z M126.9,115.9
		c-1.4,9.6-9.8,15.3-19.1,15.3c-9.3,0-16-5.7-14.6-15.3c1.4-9.4,9.9-15.5,19.1-15.5C121.6,100.4,128.3,106.5,126.9,115.9z
		 M157.7,111.8c-0.9,6.1-5.3,9.9-11.5,9.9l-5.7,0l-1.3,9l-10.6,0l4.4-29.9l14,0C154.1,100.8,158.8,104.4,157.7,111.8z M187.1,111.8
		c-0.9,6.1-5.3,9.9-11.5,9.9l-5.6,0l-1.3,9l-10.6,0l4.4-29.9l14,0C183.4,100.8,188.1,104.4,187.1,111.8z M198.4,130.7l-11,0
		l4.4-29.9l11,0L198.4,130.7z M233.9,130.7l-10.6,0l-7.4-15.7l-0.3,0c0.1,2.1,0.1,4-0.2,6l-1.4,9.7l-10.6,0l4.4-29.9l10.6,0
		l7.5,16.6l0.3,0c-0.1-2.5-0.2-5.1,0.2-7.6l1.3-9l10.6,0L233.9,130.7z M267.9,125.8c-3.7,3.5-9,5.3-13.7,5.3
		c-9.3,0-15.9-5.6-14.5-15.2c1.4-9.7,9.6-15.6,19.1-15.6c5.3,0,12.2,2.6,13.8,7.7l-10.9,3.7c-0.6-1.5-2.1-2.3-3.9-2.3
		c-4,0-6.6,3.3-7.1,6.9c-0.5,3.3,1.2,6.4,4.7,6.4c1.7,0,4.1-0.8,4.9-2.6l-5,0l1-7.1l17,0C272.6,118,272,122,267.9,125.8z"/>
	<path class="st1" d="M110.9,110.2c-3.5,0-6.1,2.7-6.5,5.8c-0.5,3.4,1.5,5.7,4.8,5.7c3.3,0,6-2.3,6.5-5.7
		C116.2,112.9,114.4,110.2,110.9,110.2z"/>
	<path class="st1" d="M143.5,109l-1,0l-0.8,5.2l1.1,0c1.9,0,4.1-0.3,4.4-2.7C147.6,109.1,145.3,109,143.5,109z"/>
	<polygon class="st1" points="38.7,93 51.9,93 55.5,71.2 62.7,71.4 64.4,61.1 36.7,61.1 35,71.4 42.3,71.2 	"/>
	<path class="st1" d="M69.8,93l1.7-4l10,0l0.5,4l14,0l-7.6-31.9l-14.6,0L55.8,93L69.8,93z M79.1,71.7l0.5,0c0,1.4,0,2.7,0.2,4.1
		l0.6,5.6l-5.3,0L79.1,71.7z"/>
	<path class="st1" d="M263,79.1c4.5,0,8.1-3.6,8.1-8.1c0-4.5-3.6-8.1-8.1-8.1c-4.5,0-8.1,3.6-8.1,8.1
		C254.9,75.4,258.5,79.1,263,79.1z M263,64.9c3.3,0,6.1,2.8,6.1,6.1c0,3.2-2.8,6.1-6.1,6.1c-3.3,0-6.1-2.8-6.1-6.1
		C256.9,67.7,259.7,64.9,263,64.9z"/>
	<path class="st1" d="M261.6,71.4l1,0l1.6,3.4l2.2,0l-1.8-3.4c1.2-0.1,2-0.7,2-2.2c0-0.8-0.2-1.6-1-2.1c-0.6-0.4-1.5-0.3-2.2-0.4
		l-3.9,0l0,8l1.9,0L261.6,71.4z M261.6,68.1l1.6,0c0.6,0,1.6,0,1.6,0.8c0,0.8-0.5,1-1.3,1l-1.9,0L261.6,68.1z"/>
	<path class="st1" d="M48.6,108.4c2.4,0,4.4,1,6.1,2.3l4.1-7.7c-2.7-1.8-5.8-2.6-9.2-2.6c-6.6,0-13.8,4-14.8,11.1
		c-0.7,4.7,2.6,7.2,6.8,7.9l2.2,0.4c1,0.2,2.4,0.3,2.2,1.7c-0.2,1.3-2,1.8-3.1,1.8c-2.5,0-4.7-1.2-6.5-2.7l-0.5-0.4l-4.6,8.5
		c3.2,1.7,7.5,2.7,11.3,2.7c6.6,0,13.7-3.5,14.7-10.7c0.7-5.1-2.3-7.5-6.8-8.6l-2.4-0.6c-0.8-0.2-2.2-0.4-2-1.5
		C46.2,108.8,47.7,108.4,48.6,108.4z"/>
	
		<linearGradient id="SVGID_2_" gradientUnits="userSpaceOnUse" x1="-82.6146" y1="87.2077" x2="86.6574" y2="233.4922" gradientTransform="matrix(0.9951 9.885156e-02 -9.885156e-02 0.9951 59.1236 -43.7287)">
		<stop  offset="0" style="stop-color:#FAD82F"/>
		<stop  offset="0.1778" style="stop-color:#FAD538"/>
		<stop  offset="0.4783" style="stop-color:#FAD341"/>
		<stop  offset="1" style="stop-color:#FAD243"/>
	</linearGradient>
	<path class="st26" d="M48.6,108.4c2.4,0,4.4,1,6.1,2.3l4.1-7.7c-2.7-1.8-5.8-2.6-9.2-2.6c-6.6,0-13.8,4-14.8,11.1
		c-0.7,4.7,2.6,7.2,6.8,7.9l2.2,0.4c1,0.2,2.4,0.3,2.2,1.7c-0.2,1.3-2,1.8-3.1,1.8c-2.5,0-4.7-1.2-6.5-2.7l-0.5-0.4l-4.6,8.5
		c3.2,1.7,7.5,2.7,11.3,2.7c6.6,0,13.7-3.5,14.7-10.7c0.7-5.1-2.3-7.5-6.8-8.6l-2.4-0.6c-0.8-0.2-2.2-0.4-2-1.5
		C46.2,108.8,47.7,108.4,48.6,108.4z"/>
	<polygon class="st1" points="79.5,110.9 72.7,110.9 74.2,100.9 63.6,100.9 59.2,130.8 69.8,130.8 71.4,120.4 78.1,120.4 
		76.6,130.8 87.2,130.7 91.6,100.9 81,100.9 	"/>
	
		<linearGradient id="SVGID_3_" gradientUnits="userSpaceOnUse" x1="-68.2177" y1="70.5658" x2="101.0375" y2="216.8357" gradientTransform="matrix(0.9951 9.885156e-02 -9.885156e-02 0.9951 59.1236 -43.7287)">
		<stop  offset="0" style="stop-color:#FAD82F"/>
		<stop  offset="0.1778" style="stop-color:#FAD538"/>
		<stop  offset="0.4783" style="stop-color:#FAD341"/>
		<stop  offset="1" style="stop-color:#FAD243"/>
	</linearGradient>
	<polygon class="st27" points="79.5,110.9 72.7,110.9 74.2,100.9 63.6,100.9 59.2,130.8 69.8,130.8 71.4,120.4 78.1,120.4 
		76.6,130.8 87.2,130.7 91.6,100.9 81,100.9 	"/>
	<path class="st1" d="M112.4,100.4c-9.2,0-17.7,6.1-19.1,15.5c-1.4,9.6,5.3,15.3,14.6,15.3c9.3,0,17.7-5.8,19.1-15.3
		C128.3,106.5,121.6,100.4,112.4,100.4z M115.8,116c-0.5,3.4-3.2,5.7-6.5,5.7c-3.3,0-5.3-2.3-4.8-5.7c0.5-3.2,3-5.8,6.5-5.8
		C114.4,110.2,116.2,112.9,115.8,116z"/>
	
		<linearGradient id="SVGID_4_" gradientUnits="userSpaceOnUse" x1="-51.8046" y1="51.5618" x2="117.4603" y2="197.8401" gradientTransform="matrix(0.9951 9.885156e-02 -9.885156e-02 0.9951 59.1236 -43.7287)">
		<stop  offset="0" style="stop-color:#FAD82F"/>
		<stop  offset="0.1778" style="stop-color:#FAD538"/>
		<stop  offset="0.4783" style="stop-color:#FAD341"/>
		<stop  offset="1" style="stop-color:#FAD243"/>
	</linearGradient>
	<path class="st28" d="M112.4,100.4c-9.2,0-17.7,6.1-19.1,15.5c-1.4,9.6,5.3,15.3,14.6,15.3c9.3,0,17.7-5.8,19.1-15.3
		C128.3,106.5,121.6,100.4,112.4,100.4z M115.8,116c-0.5,3.4-3.2,5.7-6.5,5.7c-3.3,0-5.3-2.3-4.8-5.7c0.5-3.2,3-5.8,6.5-5.8
		C114.4,110.2,116.2,112.9,115.8,116z"/>
	<path class="st1" d="M147,100.8l-14,0l-4.4,29.9l10.6,0l1.3-9l5.7,0c6.2,0,10.6-3.8,11.5-9.9C158.8,104.4,154.1,100.8,147,100.8z
		 M147.2,111.5c-0.4,2.4-2.5,2.7-4.4,2.7l-1.1,0l0.8-5.2l1,0C145.3,109,147.6,109.1,147.2,111.5z"/>
	
		<linearGradient id="SVGID_5_" gradientUnits="userSpaceOnUse" x1="-37.2146" y1="34.6854" x2="132.0459" y2="180.9599" gradientTransform="matrix(0.9951 9.885156e-02 -9.885156e-02 0.9951 59.1236 -43.7287)">
		<stop  offset="0" style="stop-color:#FAD82F"/>
		<stop  offset="0.1778" style="stop-color:#FAD538"/>
		<stop  offset="0.4783" style="stop-color:#FAD341"/>
		<stop  offset="1" style="stop-color:#FAD243"/>
	</linearGradient>
	<path class="st29" d="M147,100.8l-14,0l-4.4,29.9l10.6,0l1.3-9l5.7,0c6.2,0,10.6-3.8,11.5-9.9C158.8,104.4,154.1,100.8,147,100.8z
		 M147.2,111.5c-0.4,2.4-2.5,2.7-4.4,2.7l-1.1,0l0.8-5.2l1,0C145.3,109,147.6,109.1,147.2,111.5z"/>
	<path class="st1" d="M176.3,100.8l-14,0l-4.4,29.9l10.6,0l1.3-9l5.6,0c6.2,0,10.6-3.8,11.5-9.9
		C188.1,104.4,183.4,100.8,176.3,100.8z M176.6,111.5c-0.4,2.4-2.5,2.7-4.4,2.7l-1.1,0l0.8-5.2l1,0
		C174.6,109,176.9,109.1,176.6,111.5z"/>
	
		<linearGradient id="SVGID_6_" gradientUnits="userSpaceOnUse" x1="-23.3031" y1="18.5647" x2="145.9686" y2="164.8489" gradientTransform="matrix(0.9951 9.885156e-02 -9.885156e-02 0.9951 59.1236 -43.7287)">
		<stop  offset="0" style="stop-color:#FAD82F"/>
		<stop  offset="0.1778" style="stop-color:#FAD538"/>
		<stop  offset="0.4783" style="stop-color:#FAD341"/>
		<stop  offset="1" style="stop-color:#FAD243"/>
	</linearGradient>
	<path class="st30" d="M176.3,100.8l-14,0l-4.4,29.9l10.6,0l1.3-9l5.6,0c6.2,0,10.6-3.8,11.5-9.9
		C188.1,104.4,183.4,100.8,176.3,100.8z M176.6,111.5c-0.4,2.4-2.5,2.7-4.4,2.7l-1.1,0l0.8-5.2l1,0
		C174.6,109,176.9,109.1,176.6,111.5z"/>
	<polygon class="st1" points="187.4,130.7 198.4,130.7 202.8,100.8 191.8,100.8 	"/>
	
		<linearGradient id="SVGID_7_" gradientUnits="userSpaceOnUse" x1="-11.4453" y1="4.825" x2="157.835" y2="151.1167" gradientTransform="matrix(0.9951 9.885156e-02 -9.885156e-02 0.9951 59.1236 -43.7287)">
		<stop  offset="0" style="stop-color:#FAD82F"/>
		<stop  offset="0.1778" style="stop-color:#FAD538"/>
		<stop  offset="0.4783" style="stop-color:#FAD341"/>
		<stop  offset="1" style="stop-color:#FAD243"/>
	</linearGradient>
	<polygon class="st31" points="187.4,130.7 198.4,130.7 202.8,100.8 191.8,100.8 	"/>
	<path class="st1" d="M226.4,109.8c-0.4,2.5-0.3,5.1-0.2,7.6l-0.3,0l-7.5-16.6l-10.6,0l-4.4,29.9l10.6,0l1.4-9.7
		c0.3-2,0.3-3.9,0.2-6l0.3,0l7.4,15.7l10.6,0l4.4-29.9l-10.6,0L226.4,109.8z"/>
	
		<linearGradient id="SVGID_8_" gradientUnits="userSpaceOnUse" x1="0.7712" y1="-9.2832" x2="170.0364" y2="136.9953" gradientTransform="matrix(0.9951 9.885156e-02 -9.885156e-02 0.9951 59.1236 -43.7287)">
		<stop  offset="0" style="stop-color:#FAD82F"/>
		<stop  offset="0.1778" style="stop-color:#FAD538"/>
		<stop  offset="0.4783" style="stop-color:#FAD341"/>
		<stop  offset="1" style="stop-color:#FAD243"/>
	</linearGradient>
	<path class="st32" d="M226.4,109.8c-0.4,2.5-0.3,5.1-0.2,7.6l-0.3,0l-7.5-16.6l-10.6,0l-4.4,29.9l10.6,0l1.4-9.7
		c0.3-2,0.3-3.9,0.2-6l0.3,0l7.4,15.7l10.6,0l4.4-29.9l-10.6,0L226.4,109.8z"/>
	<path class="st1" d="M256.3,113.1l-1,7.1l5,0c-0.8,1.8-3.1,2.6-4.9,2.6c-3.6,0-5.2-3.1-4.7-6.4c0.5-3.6,3.2-6.9,7.1-6.9
		c1.8,0,3.2,0.8,3.9,2.3l10.9-3.7c-1.6-5.1-8.5-7.7-13.8-7.7c-9.6,0-17.7,5.9-19.1,15.6c-1.4,9.6,5.3,15.2,14.5,15.2
		c4.7,0,9.9-1.9,13.7-5.3c4.1-3.8,4.7-7.9,5.5-12.8L256.3,113.1z"/>
	
		<linearGradient id="SVGID_9_" gradientUnits="userSpaceOnUse" x1="17.7277" y1="-28.8898" x2="186.9848" y2="117.3818" gradientTransform="matrix(0.9951 9.885156e-02 -9.885156e-02 0.9951 59.1236 -43.7287)">
		<stop  offset="0" style="stop-color:#FAD82F"/>
		<stop  offset="0.1778" style="stop-color:#FAD538"/>
		<stop  offset="0.4783" style="stop-color:#FAD341"/>
		<stop  offset="1" style="stop-color:#FAD243"/>
	</linearGradient>
	<path class="st33" d="M256.3,113.1l-1,7.1l5,0c-0.8,1.8-3.1,2.6-4.9,2.6c-3.6,0-5.2-3.1-4.7-6.4c0.5-3.6,3.2-6.9,7.1-6.9
		c1.8,0,3.2,0.8,3.9,2.3l10.9-3.7c-1.6-5.1-8.5-7.7-13.8-7.7c-9.6,0-17.7,5.9-19.1,15.6c-1.4,9.6,5.3,15.2,14.5,15.2
		c4.7,0,9.9-1.9,13.7-5.3c4.1-3.8,4.7-7.9,5.5-12.8L256.3,113.1z"/>
</g>
</svg>
