<?xml version="1.0" encoding="utf-8"?>
<!-- Generator: Adobe Illustrator 23.0.2, SVG Export Plug-In . SVG Version: 6.00 Build 0)  -->
<svg version="1.1" id="Layer_1" xmlns="http://www.w3.org/2000/svg" xmlns:xlink="http://www.w3.org/1999/xlink" x="0px" y="0px"
	 viewBox="0 0 296 185.9" style="enable-background:new 0 0 296 185.9;" xml:space="preserve">
<style type="text/css">
	.st0{fill:url(#SVGID_1_);}
	.st1{fill:#0E4595;}
	.st2{fill:#FFFFFF;}
	.st3{fill:#92DBEF;}
	.st4{fill:#B02444;}
	.st5{fill:#0079BE;}
	.st6{fill:#26A6D1;}
	.st7{fill:#8EB829;}
	.st8{fill:#00A7DE;}
	.st9{fill-rule:evenodd;clip-rule:evenodd;fill:#FFFFFF;stroke:#FFFFFF;stroke-width:0.5669;stroke-miterlimit:10;}
	.st10{fill-rule:evenodd;clip-rule:evenodd;fill:#EE7D00;stroke:#FFFFFF;stroke-width:0.216;stroke-miterlimit:10;}
	.st11{fill-rule:evenodd;clip-rule:evenodd;fill:#FFFFFF;}
	.st12{fill-rule:evenodd;clip-rule:evenodd;fill:#FCDD14;}
	.st13{fill-rule:evenodd;clip-rule:evenodd;fill:#E21E84;}
	.st14{fill:#1A5EA8;}
	.st15{fill:#9D1A7E;}
	.st16{fill:#FAD00B;}
	.st17{fill:#067853;}
	.st18{fill:#E8232B;}
	.st19{fill:#263B80;}
	.st20{fill:#232C65;}
	.st21{fill:#139AD6;}
	.st22{fill:#E23221;}
	.st23{fill:#382D71;}
	.st24{fill:none;}
	.st25{fill:#036EB1;}
	.st26{fill:url(#SVGID_2_);}
	.st27{fill:url(#SVGID_3_);}
	.st28{fill:url(#SVGID_4_);}
	.st29{fill:url(#SVGID_5_);}
	.st30{fill:url(#SVGID_6_);}
	.st31{fill:url(#SVGID_7_);}
	.st32{fill:url(#SVGID_8_);}
	.st33{fill:url(#SVGID_9_);}
	.st34{fill:#F49824;}
	.st35{clip-path:url(#SVGID_11_);}
	.st36{fill:#9B2A2B;}
	.st37{fill:#E95527;}
	.st38{fill:#F2AE14;}
	.st39{fill:#FF5F00;}
	.st40{fill:#EB001B;}
	.st41{fill:#F79E1B;}
	.st42{fill:#7673C0;}
	.st43{fill:#00A1DF;}
	.st44{fill:#000F9F;}
	.st45{fill:#009EE2;}
</style>
<g id="Page-1">
	<g id="visa">
		<path id="Rectangle-1" class="st1" d="M15.8,0h264.4c8.7,0,15.8,7.1,15.8,15.8v154.3c0,8.7-7.1,15.8-15.8,15.8H15.8
			c-8.7,0-15.8-7.1-15.8-15.8V15.8C0,7.1,7.1,0,15.8,0z"/>
		<polygon id="Shape" class="st2" points="109.8,131.9 122.9,54.6 144,54.6 130.8,131.9 		"/>
		<path id="path13" class="st2" d="M206.9,56.3c-4.2-1.6-10.7-3.2-18.9-3.2c-20.8,0-35.5,10.5-35.6,25.5
			c-0.1,11.1,10.5,17.3,18.5,21c8.2,3.8,11,6.2,10.9,9.6c-0.1,5.2-6.5,7.5-12.6,7.5c-8.4,0-12.9-1.2-19.8-4.1l-2.7-1.2l-3,17.3
			c4.9,2.2,14,4,23.5,4.1c22.1,0,36.5-10.4,36.7-26.4c0.1-8.8-5.5-15.5-17.7-21c-7.4-3.6-11.9-6-11.8-9.6c0-3.2,3.8-6.6,12.1-6.6
			c6.9-0.1,11.9,1.4,15.8,3l1.9,0.9L206.9,56.3"/>
		<path id="Path" class="st2" d="M261.1,54.6h-16.3c-5,0-8.8,1.4-11,6.4l-31.3,70.8h22.1c0,0,3.6-9.5,4.4-11.6c2.4,0,23.9,0,27,0
			c0.6,2.7,2.6,11.6,2.6,11.6h19.5L261.1,54.6z M235.3,104.5c1.7-4.5,8.4-21.6,8.4-21.6c-0.1,0.2,1.7-4.5,2.8-7.4l1.4,6.7
			c0,0,4,18.4,4.9,22.3L235.3,104.5L235.3,104.5z"/>
		<path id="path16" class="st2" d="M91.9,54.6l-20.6,52.7l-2.2-10.7c-3.8-12.3-15.8-25.7-29.2-32.4l18.8,67.6l22.3,0l33.1-77.1H91.9
			"/>
		<path id="path18" class="st38" d="M52.1,54.6h-34l-0.3,1.6C44.3,62.6,61.7,78.1,69,96.7l-7.4-35.5C60.3,56.3,56.6,54.8,52.1,54.6"
			/>
	</g>
</g>
</svg>
