<?xml version="1.0" encoding="utf-8"?>
<!-- Generator: Adobe Illustrator 23.0.2, SVG Export Plug-In . SVG Version: 6.00 Build 0)  -->
<svg version="1.1" xmlns="http://www.w3.org/2000/svg" xmlns:xlink="http://www.w3.org/1999/xlink" x="0px" y="0px"
	 viewBox="0 0 100 90" style="enable-background:new 0 0 100 90;" xml:space="preserve">
<style type="text/css">
	.st0{display:none;opacity:0.44;}
	.st1{display:inline;}
	.st2{fill:#FF00FF;}
	.st3{fill:#FF0000;}
	.st4{display:inline;fill:#FFFFFF;}
	.st5{display:inline;fill:#FF00FF;}
	.st6{fill:#202020;}
	.st7{fill:#F3C95E;}
	.st8{fill-rule:evenodd;clip-rule:evenodd;}
	.st9{fill-rule:evenodd;clip-rule:evenodd;fill:#202020;}
	.st10{fill:#F83B3B;}
	.st11{fill:#FFFF00;}
	.st12{fill:#FFFFFF;}
</style>
<g id="Capa_2" class="st0">
</g>
<g id="Capa_1">
	<g>
		<g id="XMLID_1_">
			<g>
				<path class="st6" d="M94.6,63.7H92h-1.3c-0.1-0.7-0.3-1.1-0.6-1.4c-0.4-0.4-1.1-0.6-2.1-0.6c-1,0-1.7,0.2-2,0.5
					c-0.3,0.2-0.4,0.6-0.4,1c0,0.6,0.8,1.1,2.5,1.4c1.9,0.4,3.2,0.8,4,1c0.2,0.1,0.4,0.1,0.5,0.2c1.7,0.8,2.5,2,2.5,3.6
					c0,1.9-0.8,3.4-2.4,4.3c-0.2,0.1-0.4,0.2-0.6,0.3c-1,0.4-2.3,0.7-3.6,0.7c-2,0-3.7-0.4-5-1.1c-0.8-0.5-1.4-1-1.8-1.7
					c-0.4-0.7-0.6-1.5-0.6-2.4h4.1c0,0.7,0.3,1.3,0.8,1.6c0.5,0.4,1.4,0.6,2.6,0.6c0.9,0,1.6-0.2,2-0.6c0.4-0.3,0.5-0.6,0.5-1
					c0-0.6-0.8-1.1-2.4-1.5c-2.4-0.5-3.9-0.9-4.5-1.2c-1.7-0.8-2.5-2-2.5-3.6c0-1.3,0.4-2.4,1.3-3.4c1.1-1.2,2.7-1.7,4.9-1.7
					c1.8,0,3.2,0.3,4.3,0.8c0.1,0,0.2,0.1,0.3,0.1c0.8,0.4,1.4,1,1.7,1.7C94.4,61.9,94.6,62.8,94.6,63.7z"/>
				<path class="st6" d="M92.5,54.1c0-0.1,0-0.1-0.1-0.2c0-0.1-0.1-0.1-0.2-0.1c-0.1,0-0.1,0-0.3,0h-0.1h-0.5v0.8h0.5
					c0,0,0.1,0,0.1,0c0.2,0,0.3,0,0.4-0.1C92.4,54.3,92.5,54.2,92.5,54.1z M92.8,53.7c0.1,0.1,0.1,0.2,0.1,0.4
					c0,0.2-0.1,0.4-0.2,0.5c-0.1,0.1-0.3,0.2-0.5,0.2c0.1,0,0.2,0.1,0.2,0.1l0.4,0.5l0.3,0.5h-0.5l-0.2-0.4
					c-0.1-0.3-0.3-0.4-0.4-0.5c0,0,0,0-0.1,0l-0.3-0.1h-0.2v1.1h-0.4v-2.5h0.9c0.1,0,0.1,0,0.1,0c0.2,0,0.4,0,0.5,0.1
					C92.6,53.5,92.7,53.6,92.8,53.7z"/>
				<path class="st6" d="M93.9,54.6c0-0.4-0.1-0.7-0.3-1c-0.2-0.3-0.4-0.6-0.7-0.7c-0.3-0.2-0.6-0.3-1-0.3c0,0,0,0,0,0
					c-0.3,0-0.6,0.1-1,0.3c-0.3,0.2-0.6,0.4-0.7,0.7c-0.2,0.3-0.3,0.6-0.3,1c0,0.3,0.1,0.7,0.3,1c0.2,0.3,0.4,0.5,0.7,0.7
					c0.3,0.2,0.6,0.3,1,0.3c0,0,0,0,0,0c0.3,0,0.7-0.1,1-0.3c0.3-0.2,0.6-0.4,0.7-0.7C93.8,55.3,93.9,55,93.9,54.6z M94.3,54.6
					c0,0.4-0.1,0.8-0.3,1.2c-0.2,0.4-0.5,0.7-0.9,0.9C92.8,56.9,92.4,57,92,57c0,0,0,0,0,0c-0.4,0-0.8-0.1-1.2-0.3
					c-0.4-0.2-0.7-0.5-0.9-0.9c-0.2-0.4-0.3-0.8-0.3-1.2c0-0.4,0.1-0.8,0.3-1.2c0.2-0.4,0.5-0.7,0.9-0.9c0.4-0.2,0.8-0.3,1.2-0.3
					c0,0,0,0,0,0c0.4,0,0.8,0.1,1.2,0.3c0.4,0.2,0.7,0.5,0.9,0.9C94.2,53.8,94.3,54.2,94.3,54.6z"/>
				<polygon class="st6" points="71.3,35.5 82.4,54 71.3,54 64.5,54 53.9,36.3 45.9,22.9 53.9,18.1 59,15.1 				"/>
				<path class="st6" d="M79.4,66.9v7.6h-3.7v-0.8c-1.2,0.8-2.7,1.3-4.3,1.3c0,0,0,0,0,0c-4.4,0-8-3.6-8-8c0-4.4,3.6-8,8-8
					c0,0,0,0,0,0c1.6,0,3.1,0.5,4.3,1.3v-0.9h3.7V66.9z M75.7,67.7v-1.7c-0.4-2-2.2-3.6-4.3-3.6c0,0,0,0,0,0c-2.4,0-4.4,2-4.4,4.4
					c0,2.4,2,4.4,4.4,4.4c0,0,0,0,0,0C73.5,71.3,75.3,69.8,75.7,67.7z"/>
				<path class="st6" d="M62,66.9v7.6h-3.7v-0.8c-1.3,0.8-2.7,1.3-4.3,1.3c0,0,0,0,0,0c-4.4,0-8-3.6-8-8c0-4.4,3.6-8,8-8
					c0,0,0,0,0,0c1.6,0,3.1,0.5,4.3,1.3V54H62V66.9z M58.3,67.7v-1.7c-0.4-2-2.2-3.6-4.3-3.6c0,0,0,0,0,0c-2.4,0-4.4,2-4.4,4.4
					c0,2.4,2,4.4,4.4,4.4c0,0,0,0,0,0C56.1,71.3,57.9,69.8,58.3,67.7z"/>
				<polygon class="st6" points="53.9,46.7 58.3,54 53.9,54 40.4,54 30.5,37.5 30.1,36.8 30.5,36.6 43.2,28.9 				"/>
				<rect x="40.5" y="58.9" class="st6" width="4" height="15.6"/>
				<rect x="40.5" y="54.1" class="st6" width="4" height="3.5"/>
				<path class="st6" d="M38.6,66.9v7.6h-3.7v-0.8c-1.3,0.8-2.7,1.3-4.3,1.3c0,0,0,0,0,0c-4.4,0-8-3.6-8-8c0-4.4,3.6-8,8-8
					c0,0,0,0,0,0c1.6,0,3.1,0.5,4.3,1.3V54h3.7V66.9z M34.9,67.7v-1.7c-0.4-2-2.2-3.6-4.3-3.6c0,0,0,0,0,0c-2.4,0-4.4,2-4.4,4.4
					c0,2.4,2,4.4,4.4,4.4c0,0,0,0,0,0C32.7,71.3,34.5,69.8,34.9,67.7z"/>
				<polygon class="st6" points="30.5,47.9 34.2,54 30.5,54 16.3,54 14.3,50.7 27.4,42.8 				"/>
				<path class="st6" d="M21.1,66.9v7.6h-3.7v-0.8c-1.3,0.8-2.8,1.3-4.3,1.3c0,0,0,0,0,0c-4.4,0-8-3.6-8-8c0-4.4,3.6-8,8-8
					c0,0,0,0,0,0c1.6,0,3.1,0.5,4.3,1.3v-0.9h3.7V66.9z M17.4,67.7v-1.7c-0.4-2-2.2-3.6-4.3-3.6c0,0,0,0,0,0c-2.4,0-4.4,2-4.4,4.4
					c0,2.4,2,4.4,4.4,4.4c0,0,0,0,0,0C15.2,71.3,17,69.8,17.4,67.7z"/>
			</g>
		</g>
	</g>
</g>
</svg>
