<?xml version="1.0" encoding="utf-8"?>
<!-- Generator: Adobe Illustrator 23.0.2, SVG Export Plug-In . SVG Version: 6.00 Build 0)  -->
<svg version="1.1" xmlns="http://www.w3.org/2000/svg" xmlns:xlink="http://www.w3.org/1999/xlink" x="0px" y="0px"
	 viewBox="0 0 100 90" style="enable-background:new 0 0 100 90;" xml:space="preserve">
<style type="text/css">
	.st0{display:none;opacity:0.44;}
	.st1{display:inline;}
	.st2{fill:#FF00FF;}
	.st3{fill:#FF0000;}
	.st4{display:inline;fill:#FFFFFF;}
	.st5{display:inline;fill:#FF00FF;}
	.st6{fill:#202020;}
	.st7{fill:#F3C95E;}
	.st8{fill-rule:evenodd;clip-rule:evenodd;}
	.st9{fill-rule:evenodd;clip-rule:evenodd;fill:#202020;}
	.st10{fill:#F83B3B;}
	.st11{fill:#FFFF00;}
	.st12{fill:#FFFFFF;}
</style>
<g id="Capa_2" class="st0">
</g>
<g id="Capa_1">
	<g>
		<path class="st6" d="M5,47.4c0-1.6,0-3.2,0-4.9c0-0.1,0-0.1,0-0.2c0.1-0.7,0.2-1.5,0.4-2.2c0.7-3.3,2.1-6.4,4-9.2
			c2-3,4.5-5.5,7.3-7.7c3.3-2.6,7-4.6,10.9-6.2c5.6-2.3,11.4-3.5,17.3-4c2.3-0.2,4.6-0.2,6.8-0.2c2.9,0.1,5.7,0.4,8.6,0.8
			c2.8,0.5,5.5,1.1,8.2,2c4.5,1.5,8.8,3.5,12.7,6.2c3,2.1,5.7,4.5,8,7.4c2,2.6,3.6,5.4,4.6,8.6c1.1,3.4,1.3,6.8,0.9,10.4
			c-0.3,2.4-1.1,4.7-2.1,7c-1.6,3.4-3.8,6.3-6.5,8.9c-2.2,2.1-4.7,4-7.4,5.5c-3.2,1.9-6.5,3.3-10,4.5c-5.4,1.8-11,2.7-16.7,2.9
			c-4.6,0.2-9.2-0.2-13.7-1c-4.2-0.8-8.2-2-12.1-3.7c-3.8-1.7-7.3-3.8-10.5-6.4c-2.8-2.3-5.2-5-7.1-8.1c-1.8-2.9-3-6-3.5-9.3
			C5.1,48.1,5.1,47.8,5,47.4z M15.4,63.3C15.5,63.3,15.5,63.3,15.4,63.3c1.9,1.7,3.8,3.2,5.9,4.4c2.9,1.8,5.9,3.2,9.1,4.3
			c3.5,1.3,7.2,2.1,10.9,2.7c2.5,0.4,4.9,0.6,7.4,0.6c4.1,0.1,8.1-0.2,12.1-0.9c3.1-0.6,6.1-1.4,9-2.4c4.7-1.7,9.1-4,13-7.2
			c0.6-0.5,1.1-0.9,1.7-1.4c-0.1,0-0.1-0.1-0.1-0.1c-0.7-0.5-1.5-1-2.2-1.4c-2.6-1.6-5.4-2.8-8.3-3.8c-4.2-1.4-8.4-2.4-12.8-3
			c-2.3-0.3-4.7-0.5-7.1-0.7c-2.5-0.1-5.1-0.1-7.6,0c-3.2,0.1-6.4,0.5-9.5,1c-3.5,0.6-6.9,1.4-10.2,2.5c-3.2,1.1-6.2,2.4-9.1,4.1
			C16.8,62.3,16.1,62.8,15.4,63.3z M17.9,24.6C17.9,24.7,17.9,24.7,17.9,24.6c1,0.6,2,1.2,3,1.7c2.6,1.3,5.4,2.4,8.2,3.3
			c3.6,1.1,7.2,1.8,11,2.3c2.4,0.3,4.9,0.5,7.3,0.6c5.2,0.2,10.3-0.1,15.4-0.9c3.4-0.5,6.7-1.3,9.9-2.3c3.3-1.1,6.5-2.4,9.5-4.1
			c0.1-0.1,0.2-0.1,0.4-0.2c-0.1,0-0.1-0.1-0.1-0.1c-3.1-2.5-6.6-4.4-10.3-6c-5.5-2.3-11.1-3.6-17-4.1c-2.3-0.2-4.5-0.3-6.8-0.2
			c-2.9,0.1-5.7,0.3-8.6,0.8c-3,0.5-6,1.3-8.9,2.3c-4,1.4-7.9,3.3-11.4,5.7C18.9,23.9,18.4,24.3,17.9,24.6z M27.5,47.6
			c0.1-0.1,0.2-0.1,0.3-0.1c1.2-0.7,2.2-1.5,3.1-2.6c0.8-1,1.3-2.1,1.4-3.4c0.1-0.8,0.1-1.6,0-2.4c0-0.5-0.1-1-0.2-1.5
			c-0.7-2.1-2-3.7-3.8-5c-0.9-0.6-1.9-1.1-3-1.2c-1-0.1-1.9-0.1-2.9,0.2c-0.9,0.2-1.7,0.7-2.2,1.4c-0.1,0.1-0.1,0.2-0.1,0.3
			c0,8.1,0,16.2,0,24.2c0,0.1,0,0.1,0,0.2c0.1,0,0.2-0.1,0.3-0.1c1.3-0.5,2.5-1,3.8-1.5c0.2-0.1,0.2-0.1,0.2-0.3c0-1.9,0-3.7,0-5.6
			c0-0.1,0-0.1,0-0.2c0.1,0.1,0.1,0.1,0.1,0.2c1,1.4,2,2.8,3,4.2c0.1,0.1,0.2,0.2,0.3,0.1c0.9-0.3,1.8-0.5,2.7-0.8
			c0.5-0.2,1.1-0.3,1.6-0.5C30.6,51.5,29,49.6,27.5,47.6z M73.1,48c-0.1,0-0.2,0.1-0.3,0.1c-0.7,0.3-1.3,0.5-2,0.8
			c-0.4,0.2-0.8,0.4-1.2,0.6c-0.2,0.1-0.2,0.2-0.2,0.4c0,0.2,0,0.5,0.1,0.7c0.3,1.5,1.1,2.6,2.2,3.6c0.7,0.6,1.4,1,2.3,1
			c0.5,0,1,0,1.5,0c1.3,0,2.4-0.4,3.3-1.3c1.6-1.6,2.2-3.4,1.5-5.6c-0.3-0.9-0.8-1.8-1.3-2.6c-0.9-1.5-2.1-2.8-3.2-4.1
			c-0.7-0.9-1.4-1.8-2.1-2.7c-0.4-0.5-0.6-1.2-0.5-1.9c0.2-1,0.7-1.9,2.1-1.7c1.2,0.1,2.3,1.2,2.2,2.6c0,0.3-0.1,0.6-0.2,0.9
			c0.1,0,0.2,0,0.3-0.1c0.3-0.1,0.5-0.2,0.8-0.3c0.8-0.4,1.5-0.8,2.3-1.2c0.3-0.1,0.4-0.3,0.3-0.6c-0.1-1.2-0.7-2.2-1.5-3
			c-1.1-1.1-2.4-1.7-3.9-1.9c-1.2-0.2-2.2,0-3.2,0.7c-0.9,0.7-1.6,1.5-2.2,2.4c-0.6,1.1-0.7,2.2-0.5,3.3c0.3,1.1,0.8,2.1,1.4,3
			c0.8,1.1,1.7,2.1,2.7,3.2c0.9,1,1.8,1.9,2.5,3c0.5,0.8,0.9,1.6,1,2.5c0.1,0.9-0.3,1.7-1.2,2.1c-0.5,0.2-0.9,0.2-1.4,0.1
			c-1-0.1-1.5-0.7-1.7-1.7c-0.1-0.4-0.1-0.8,0-1.2C73.1,48.8,73.1,48.4,73.1,48z M13,60.8c0-10.6,0-21,0-31.6
			c-0.1,0.1-0.1,0.1-0.2,0.2c-0.9,1-1.7,2.1-2.4,3.3c-1.9,3-3.2,6.2-3.6,9.8c-0.4,3.1-0.1,6.1,0.8,9c0.9,3,2.5,5.7,4.4,8.2
			C12.3,60,12.6,60.4,13,60.8z M87,29.3C86.9,29.3,86.9,29.3,87,29.3c0,10.5,0,21,0,31.5c0.1-0.1,0.1-0.1,0.1-0.2
			c1.1-1.3,2.1-2.6,2.9-4c1.8-3.1,3-6.5,3.2-10.1c0.2-2.8-0.2-5.6-1-8.2c-1-2.9-2.5-5.6-4.4-8C87.5,29.9,87.2,29.6,87,29.3z
			 M41.4,42.2c-1.1,0-2.1,0-3.2,0c0-1.4,0-2.8,0-4.3c1.7,0.2,3.4,0.4,5.1,0.6c0-0.1,0-0.1,0-0.1c0-0.9,0-1.7,0-2.6
			c0-0.1-0.1-0.2-0.2-0.2c-0.7-0.1-1.4-0.2-2.1-0.3c-2.2-0.3-4.3-0.7-6.5-1c-0.1,0-0.1,0-0.2,0c0,6.2,0,12.4,0,18.7
			c3-0.4,6-0.8,9-1.2c0-1.1,0-2.1,0-3.2c-1.7,0.2-3.4,0.3-5.1,0.5c0-1.2,0-2.5,0-3.7c1.1,0,2.1,0,3.2,0
			C41.4,44.3,41.4,43.2,41.4,42.2z M67.8,33.7C67.8,33.7,67.8,33.7,67.8,33.7c-3,0.6-5.9,1.3-8.8,1.9c-0.2,0-0.2,0.1-0.2,0.2
			c0,5.2,0,10.5,0,15.7c0,0.2,0,0.2,0.2,0.2c2.6,0.5,5.2,1,7.7,1.5c0.3,0.1,0.7,0.1,1,0.2c0-0.1,0-0.2,0-0.3c0-0.9,0-1.9,0-2.8
			c0-0.2-0.1-0.3-0.2-0.3c-1.6-0.3-3.1-0.6-4.7-0.8c-0.2,0-0.2-0.1-0.2-0.2c0-1.2,0-2.3,0-3.5c0-0.1,0-0.1,0-0.2c1.1,0,2.1,0,3.2,0
			c0-1.1,0-2.2,0-3.3c-1.1,0-2.1,0-3.2,0c0-1.4,0-2.8,0-4.2c1.7-0.3,3.4-0.6,5.1-0.9C67.8,35.8,67.8,34.8,67.8,33.7z M48.1,35.8
			c-1,0.4-2,0.9-3,1.3c0,0-0.1,0.1-0.1,0.2c0.1,0.2,0.1,0.4,0.2,0.6c0.7,1.2,1.3,2.4,2,3.6c0.6,1.1,1.3,2.2,1.9,3.4
			c0.2,0.4,0.3,0.7,0.3,1.1c0,1.7,0,3.4,0,5.1c0,0.1,0,0.2,0,0.3c1.2,0,2.3,0,3.5,0c0-0.1,0-0.2,0-0.2c0-1.7,0-3.4,0-5.1
			c0-0.6,0.1-1.2,0.4-1.7c1-1.8,2.1-3.7,3.1-5.5c0.3-0.5,0.6-1,0.9-1.6c-1-0.5-2.1-0.9-3.1-1.4C53.1,37.9,52,40,51,42.1
			C50,40,49,37.9,48.1,35.8z"/>
		<path class="st6" d="M34.3,62.4c0,1.3,0,2.5,0,3.8c-0.1,0-0.1,0-0.1,0c-0.4,0-0.9,0-1.3,0c-0.1,0-0.2,0-0.2-0.2c0-0.2,0-0.4,0-0.6
			c0-2.4,0-4.8,0-7.2c0-0.1,0-0.1,0-0.2c0.5-0.1,1-0.2,1.5-0.3c0.6,1.5,1.1,2.9,1.7,4.4c0-0.1,0.1-0.2,0.1-0.2c0.5-1.5,1-3,1.6-4.6
			c0.1-0.2,0.1-0.2,0.3-0.2c0.4,0,0.8-0.1,1.3-0.2c0,3.1,0,6.2,0,9.3c-0.5,0-1.1,0-1.6,0c0-1.4,0-2.7,0-4.1c0,0,0,0-0.1,0
			c-0.1,0.4-0.3,0.8-0.4,1.1c-0.2,0.7-0.5,1.3-0.7,2c-0.1,0.2-0.1,0.2-0.3,0.2c-0.4,0-0.4,0-0.6-0.4c-0.3-0.8-0.7-1.7-1-2.5
			C34.4,62.5,34.3,62.4,34.3,62.4C34.3,62.4,34.3,62.4,34.3,62.4z"/>
		<path class="st6" d="M63.1,57c1.9,0.3,3.8,0.6,5.6,1c0,2.8,0,5.5,0,8.3c-1.9,0-3.7,0-5.6,0C63.1,63.2,63.1,60.1,63.1,57z
			 M64.8,58.6c0,0.1,0,0.1,0,0.2c0,2,0,3.9,0,5.9c0,0.2,0.1,0.2,0.2,0.2c0.5,0,1,0,1.6,0c0.2,0,0.3,0,0.5,0c0-0.1,0-0.2,0-0.2
			c0-1.8,0-3.6,0-5.4c0-0.1,0-0.1,0-0.2c0-0.1-0.1-0.1-0.1-0.1C66.2,58.8,65.5,58.7,64.8,58.6z"/>
		<path class="st6" d="M49.1,63c-0.3,0.8-0.5,1.4-0.8,2.1c-0.1,0.3-0.2,0.6-0.4,1c0,0.1-0.1,0.1-0.2,0.1c-0.5,0-1.1,0-1.6,0
			c0-0.1,0.1-0.2,0.1-0.2c0.6-1.5,1.2-3.1,1.9-4.6c0.1-0.2,0.1-0.3,0-0.5c-0.6-1.4-1.3-2.9-1.9-4.3c0-0.1-0.1-0.1-0.1-0.2
			c0.1,0,0.2,0,0.3,0c0.4,0,0.8,0,1.2,0c0.1,0,0.2,0,0.2,0.2c0.3,0.9,0.7,1.7,1.1,2.6c0,0.1,0.1,0.1,0.1,0.2
			c0.2-0.4,0.4-0.8,0.5-1.2c0.2-0.5,0.4-1.1,0.7-1.6c0-0.1,0.1-0.1,0.2-0.1c0.6,0,1.2,0,1.8,0c0,0.1-0.1,0.2-0.1,0.2
			c-0.7,1.5-1.3,2.9-2,4.4c-0.1,0.2-0.1,0.3,0,0.4c0.7,1.6,1.3,3.1,2,4.7c0,0.1,0.1,0.1,0.1,0.2c-0.6,0-1.2,0-1.7,0
			c-0.1,0-0.1-0.1-0.2-0.2c-0.4-1-0.8-1.9-1.2-2.9C49.1,63.2,49.1,63.1,49.1,63z"/>
		<path class="st6" d="M58.2,58c0,2.3,0,4.5,0,6.7c1.2,0,2.4,0,3.7,0.1c0,0.5,0,0.9,0,1.4c-1.8,0-3.6,0-5.4,0c0-3.3,0-6.5,0-9.8
			c1.8,0.1,3.6,0.3,5.4,0.4c0,0.5,0,1,0,1.4C60.6,58.2,59.4,58.1,58.2,58z"/>
		<path class="st6" d="M44.8,56.4c0,0.5,0,1,0,1.5C43.9,58,43,58,42.1,58.1c0,2.2,0,4.4,0,6.6c0.9,0,1.9,0,2.8,0c0,0.5,0,1,0,1.5
			c-1.5,0-3,0-4.5,0c0-3.2,0-6.3,0-9.5C41.8,56.6,43.3,56.5,44.8,56.4z"/>
		<path class="st6" d="M55.1,66.2c-0.6,0-1.1,0-1.7,0c0-3.3,0-6.6,0-9.9c0.6,0,1.1,0,1.7,0C55.1,59.6,55.1,62.9,55.1,66.2z"/>
		<path class="st6" d="M47.4,71c0-1.6,1.3-2.8,2.8-2.8c1.5,0,2.8,1.3,2.8,2.8c0,1.5-1.3,2.8-2.8,2.8C48.6,73.8,47.4,72.5,47.4,71z
			 M50.1,73.2c1.2,0,2.2-0.9,2.2-2.1c0-1.2-0.9-2.2-2.1-2.3c-1.2,0-2.3,0.9-2.3,2.1C48,72.1,48.9,73.1,50.1,73.2z"/>
		<path class="st6" d="M44.4,62.5c-0.2-0.1-0.4-0.3-0.6-0.3c-0.1,0-0.2,0-0.2,0c-0.2,0.1-0.4,0.2-0.6,0.3c0-0.2,0.1-0.4,0.1-0.6
			c0.1-0.2,0-0.3-0.1-0.4c-0.2-0.1-0.3-0.3-0.5-0.4c0.3,0,0.5-0.1,0.7-0.1c0.1,0,0.2-0.1,0.2-0.1c0.1-0.2,0.2-0.4,0.3-0.7
			c0.1,0.2,0.2,0.5,0.3,0.6c0,0.1,0.1,0.1,0.2,0.2c0.2,0,0.4,0.1,0.7,0.1c-0.2,0.2-0.3,0.3-0.5,0.5c-0.1,0.1-0.1,0.2-0.1,0.3
			C44.3,62,44.3,62.2,44.4,62.5z"/>
		<path class="st6" d="M62,29.8c0-3.3,0-6.6,0-9.9c2.2,0,4.4,0,6.7,0c0,2.8,0,5.6,0,8.5C66.5,28.9,64.3,29.4,62,29.8z M64.3,21.9
			c0,1.9,0,3.8,0,5.7c0.9-0.2,1.7-0.3,2.6-0.4c0-1.8,0-3.5,0-5.3C66.1,21.9,65.2,21.9,64.3,21.9z"/>
		<path class="st6" d="M49.5,28.9c1.3,0,2.6,0,3.8,0c0,0.6,0,1.2,0,1.8c-2,0-4,0-6,0c0-3.6,0-7.1,0-10.7c2,0,4,0,6,0
			c0,0.6,0,1.3,0,1.9c-1.3,0-2.6,0-3.8,0C49.5,24.3,49.5,26.6,49.5,28.9z"/>
		<path class="st6" d="M32.6,20c2,0,4,0,6,0c0,0.6,0,1.3,0,1.9c-1.3,0-2.6,0-3.8,0c0,1.8,0,3.5,0,5.3c0.4,0.1,0.9,0.2,1.3,0.3
			c0.8,0.1,1.5,0.3,2.3,0.4c0.2,0,0.2,0.1,0.2,0.3c0,0.5,0,1,0,1.4c0,0.1,0,0.1,0,0.2c-0.4,0-0.7-0.1-1-0.1
			c-1.2-0.2-2.4-0.4-3.6-0.7c-0.4-0.1-0.7-0.3-1.1-0.4c-0.2-0.1-0.3-0.2-0.3-0.4c0-2.7,0-5.3,0-8C32.6,20.1,32.6,20,32.6,20z"/>
		<path class="st6" d="M46.3,28.8c0,0.6,0,1.2,0,1.8c-0.1,0-0.1,0-0.2,0c-1.3,0-2.7-0.1-4-0.1c-0.5,0-1-0.2-1.5-0.3
			c-0.3-0.1-0.4-0.3-0.4-0.6c0-3.1,0-6.2,0-9.3c0-0.1,0-0.2,0-0.3c0.7,0,1.4,0,2.1,0c0,0.1,0,0.2,0,0.2c0,2.6,0,5.1,0,7.7
			c0,0.4,0.1,0.5,0.4,0.6c0.6,0.2,1.2,0.3,1.9,0.3C45.2,28.8,45.8,28.8,46.3,28.8z"/>
		<path class="st6" d="M56.7,21.9c-0.7,0-1.3,0-1.9,0c0-0.6,0-1.3,0-1.9c1.9,0,3.9,0,5.8,0c0,0.6,0,1.3,0,1.9c-0.6,0-1.3,0-1.9,0
			c0,2.8,0,5.6,0,8.5c-0.7,0-1.3,0-1.9,0C56.7,27.5,56.7,24.7,56.7,21.9z"/>
		<path class="st6" d="M51,26.7c0.1-0.4,0.1-0.8,0.1-1.1c0-0.1,0-0.2-0.1-0.3c-0.2-0.1-0.4-0.2-0.6-0.4c0.2,0,0.4,0,0.6-0.1
			c0.1,0,0.2,0,0.3,0c0.4,0,0.4,0,0.5-0.4c0.1-0.2,0.1-0.3,0.2-0.5c0,0,0,0,0-0.1c0.1,0.2,0.2,0.4,0.2,0.7c0,0.2,0.1,0.2,0.3,0.2
			c0.3,0,0.6,0,1,0c-0.1,0.1-0.1,0.2-0.2,0.2c-0.2,0.1-0.3,0.2-0.5,0.4c-0.3,0.2-0.3,0.3-0.2,0.6c0.1,0.2,0.2,0.3,0.3,0.6
			c-0.3-0.2-0.6-0.3-0.8-0.4c-0.1-0.1-0.2-0.1-0.4,0C51.4,26.4,51.2,26.5,51,26.7z"/>
		<path class="st6" d="M24.3,45.4c0-3.5,0-6.9,0-10.4c0.6,0.1,1.2,0.3,1.7,0.6c1,0.6,1.8,1.4,2.3,2.5c0.1,0.3,0.2,0.6,0.2,0.9
			c0,0.7,0,1.4,0,2.1c0,0.8-0.4,1.4-0.8,2c-0.7,1-1.5,1.7-2.7,2.2c-0.1,0.1-0.3,0.1-0.4,0.1C24.5,45.3,24.4,45.3,24.3,45.4z"/>
		<path class="st6" d="M49.7,72.4c-0.2,0-0.4,0-0.6,0c0-1,0-2,0-3c0,0,0.1,0,0.1,0c0.5,0,1,0,1.5,0c0.4,0,0.7,0.2,0.8,0.6
			c0.1,0.4,0,0.7-0.3,1c0.1,0.2,0.2,0.5,0.3,0.7c0.1,0.2,0.1,0.5,0.1,0.7c-0.2,0-0.4,0-0.5,0c0,0-0.1-0.1-0.1-0.2
			c0-0.2,0-0.4-0.1-0.5c-0.1-0.3-0.2-0.4-0.5-0.5c-0.6-0.1-0.6-0.1-0.6,0.5C49.7,72,49.7,72.2,49.7,72.4z M49.7,70
			c0,0.2,0,0.4,0,0.7c0.3,0,0.6,0,0.9,0c0.2,0,0.3-0.2,0.3-0.3c0-0.2,0-0.3-0.2-0.3C50.3,70,50,70,49.7,70z"/>
	</g>
</g>
</svg>
