<?xml version="1.0" encoding="utf-8"?>
<!-- Generator: Adobe Illustrator 23.0.2, SVG Export Plug-In . SVG Version: 6.00 Build 0)  -->
<svg version="1.1" xmlns="http://www.w3.org/2000/svg" xmlns:xlink="http://www.w3.org/1999/xlink" x="0px" y="0px"
	 viewBox="0 0 100 90" style="enable-background:new 0 0 100 90;" xml:space="preserve">
<style type="text/css">
	.st0{display:none;opacity:0.44;}
	.st1{display:inline;}
	.st2{fill:#FF00FF;}
	.st3{fill:#FF0000;}
	.st4{display:inline;fill:#FFFFFF;}
	.st5{display:inline;fill:#FF00FF;}
	.st6{fill:#202020;}
	.st7{fill:#F3C95E;}
	.st8{fill-rule:evenodd;clip-rule:evenodd;}
	.st9{fill-rule:evenodd;clip-rule:evenodd;fill:#202020;}
	.st10{fill:#F83B3B;}
	.st11{fill:#FFFF00;}
	.st12{fill:#FFFFFF;}
</style>
<g id="Capa_2" class="st0">
</g>
<g id="Capa_1">
	<g>
		<polygon class="st6" points="95,19 95,26.9 92.6,27.9 92.6,23.5 90.9,24.2 91,61 92.3,61.6 92.3,64.9 86,62.4 86,59.2 87.5,59.7 
			87.5,25.5 85.9,26.1 85.9,30.3 83.5,31.1 83.5,23.6 		"/>
		<path class="st6" d="M82.4,24.9v6.5l-2.6,0.9v-4.5l-1.9,0.5v6.1c0,0.2,0,0.4,0.1,0.7c0.8,2.4,4.9,7.8,5.5,9.6
			c0,0.1,0.1,0.5,0.1,0.6c0,2.4,0,13.3,0,14.8c0,0.7-0.8,1.2-1.4,1c-1.2-0.2-4.5-1.1-5.9-1.5c-0.3-0.1-0.9-0.6-0.9-1.3
			c0-1.9,0-6.9,0-6.9l2.8,0.6l0,4.9l1.9,0.5V46.3c0-0.1,0-0.5-0.1-0.6c-0.7-1.7-4.6-7.3-5.5-9.4c-0.2-0.4-0.2-0.7-0.2-1
			c0-1.8,0-6.3,0-8.1c0-0.6,0.6-1.4,1.2-1.6c1.1-0.4,4.3-1.3,5.8-1.7C81.8,23.9,82.4,24.3,82.4,24.9"/>
		<path class="st6" d="M22.1,25.1v3.1L21,28c0,0,1.6,17,1.7,16.9c0,0,1.3-16.2,1.3-16.2l-1-0.2l0-3.1l5.3,1.1l0,3.1l-1-0.2l-3,30.3
			l-3.1,0.7l-3.6-33.3l-1-0.3v-3.2L22.1,25.1z"/>
		<polygon class="st6" points="38.2,27.8 38.2,34.4 35.8,34.2 35.8,30.6 34,30.4 34,39.5 37.1,39.5 37.1,42.9 34,42.9 34,54.8 
			35.9,54.6 35.9,49.2 38.7,48.9 38.7,57.4 28.9,58.7 28.9,55.6 30.5,55.3 30.5,29.9 29.3,29.7 29.3,26.6 		"/>
		<polygon class="st6" points="57.6,28.1 57.6,31.1 56.2,31.2 56.2,54 58.2,54.1 58.2,48.3 61,48.4 61,57.4 51.6,56.9 51.6,53.9 
			52.7,53.9 52.8,31.3 51.3,31.4 51.3,28.3 		"/>
		<path class="st6" d="M50.6,53.9c-0.9,0-0.9-0.7-0.9-0.7c0-1.7,0-7,0-8.7c0-2-1.2-2.4-1.2-2.4c0.5-0.4,1.2-1,1.2-2
			c0-1.1,0-5.9,0-8.5c-0.1-1-0.3-2.9-3.3-3.2c-1-0.1-7-0.4-7-0.4v3.1l1.6,0.1l0,23.1l-1.2,0.1l0,3l5.7-0.3l0-3l-1.2,0V43.6
			c0,0,2.4,0,2.4,0l0,9.8c0.1,2.3,0.2,3.6,4,3.5C50.6,56.9,50.6,53.9,50.6,53.9 M44.2,39.8v-8.6l2.2,0.1l0,8.5H44.2z"/>
		<path class="st6" d="M74.3,56.2L73.2,56l-3.8-29.2l-2.9,0.4l-3.4,27.3l-1.1-0.1l0,3l5.5,0.7V55l-0.9-0.1l0.3-4.1l2.2,0.3l0.3,4.2
			l-1-0.2v3.1l5.8,1L74.3,56.2z M67.3,47.4l0.8-8.7c0,0,0.9,8.9,0.9,8.9L67.3,47.4z"/>
		<polygon class="st6" points="15.5,23.3 15.5,30.5 12.9,29.8 12.9,25.6 10.9,24.9 10.9,38.7 14.6,38.7 14.6,42.5 10.8,42.5 
			10.8,60.3 12.9,59.6 12.9,52.7 15.9,51.7 15.9,61.8 5,66.2 5,62.8 7,61.9 6.9,23.4 5,22.5 5,19 		"/>
		<path class="st7" d="M73.5,66.8c-0.4,0-0.8,0-1.1-0.1c0,0-1.9-0.1-2.9,0c-8.1,0.2-15.4,2.5-21,6.1c-0.4,0.2-0.8,0.2-1,0.1
			c-0.9-0.3-5.2-2-5.3-2c-0.2-0.1-0.5-0.1-0.2-0.5c0.7-0.9,1.9-1.5,2.8-2.1c1.6-0.9,3.5-1.6,5.2-2.2c-0.5,0-0.7,0-1,0.1
			c-0.8,0.1-1.6,0.2-2.5,0.4c-2.5,0.5-5.2,1.3-7.5,2.7c-0.4,0.2-0.9,0-0.9,0l-3.2-1.2c0,0-0.5-0.2,0-0.5c3.7-2,8-3.4,12.7-4.1
			c0.5-0.1,1.1-0.2,1.7-0.2c-0.5,0-1.5-0.1-1.6-0.1c-0.8,0-1.6,0-2.4,0c-7.1,0.1-13.5,1.9-18.8,4.8c-0.2,0.1-0.2,0.4-0.1,0.5
			c2.3,1.1,22.6,10.4,22.6,10.5c0.2,0.1,0.5,0,0.7-0.2c4-5.3,10.9-9.4,19.2-11.2C70.5,67.2,72,67,73.5,66.8"/>
	</g>
</g>
</svg>
