<?xml version="1.0" encoding="utf-8"?>
<!-- Generator: Adobe Illustrator 23.0.2, SVG Export Plug-In . SVG Version: 6.00 Build 0)  -->
<svg version="1.1" xmlns="http://www.w3.org/2000/svg" xmlns:xlink="http://www.w3.org/1999/xlink" x="0px" y="0px"
	 viewBox="0 0 100 90" style="enable-background:new 0 0 100 90;" xml:space="preserve">
<style type="text/css">
	.st0{display:none;opacity:0.44;}
	.st1{display:inline;}
	.st2{fill:#FF00FF;}
	.st3{fill:#FF0000;}
	.st4{display:inline;fill:#FFFFFF;}
	.st5{display:inline;fill:#FF00FF;}
	.st6{fill:#202020;}
	.st7{fill:#F3C95E;}
	.st8{fill-rule:evenodd;clip-rule:evenodd;}
	.st9{fill-rule:evenodd;clip-rule:evenodd;fill:#202020;}
	.st10{fill:#F83B3B;}
	.st11{fill:#FFFF00;}
	.st12{fill:#FFFFFF;}
	.st13{fill:#C41230;}
	.st14{fill:#231F20;}
	.st15{fill-rule:evenodd;clip-rule:evenodd;fill:#1B1918;}
	.st16{fill-rule:evenodd;clip-rule:evenodd;fill:#F83B3B;}
	.st17{fill:#1B1918;}
</style>
<g id="Capa_2" class="st0">
	
		<image style="display:inline;overflow:visible;" width="319" height="150" xlink:href="../ringside-logo.png"  transform="matrix(0.3135 0 0 0.3135 0 23)">
	</image>
</g>
<g id="Capa_1">
	<g>
		<polygon class="st17" points="25.1,80 21.7,80 21.7,76.9 19.5,76.9 19.5,85 21.7,85 21.7,81.7 25.1,81.7 25.1,85 27.3,85 
			27.3,76.9 25.1,76.9 		"/>
		<path class="st17" d="M30.4,76.9l-1.5,4.7h-1.1l0.5,1.6l0,0L27.8,85h2.1l0.5-1.7h2.7l0.5,1.7h2.2l-2.5-7.8c0-0.2-0.2-0.3-0.3-0.3
			L30.4,76.9z M30.9,81.7l0.9-3.2l0.9,3.2H30.9z"/>
		<polygon class="st17" points="40.1,76.9 38.4,80.4 36.7,76.9 34.3,76.9 37.3,82.4 37.3,85 39.4,85 39.4,82.4 42.4,76.9 		"/>
		<path class="st17" d="M43.6,76.9l-1.6,4.7h-1.1l0.6,1.6l0,0L40.8,85H43l0.5-1.7h3L47,85h2.4l-2.7-7.8c-0.1-0.2-0.2-0.3-0.4-0.3
			L43.6,76.9z M44.1,81.7l1-3.2l1,3.2H44.1z"/>
		<path class="st17" d="M55.7,80.9c0.7-0.2,1-0.7,1-1.9c0-1.6-0.6-2.1-1.8-2.1h-5.1V85H55c1.2,0,1.8-0.5,1.8-2.2
			C56.8,81.6,56.5,81,55.7,80.9z M51.9,78.5h2.3c0.2,0,0.3,0,0.3,0.8c0,0.8-0.1,0.8-0.3,0.8h-2.3L51.9,78.5z M54.3,83.4h-2.4v-1.8
			h2.4c0.2,0,0.3,0,0.3,0.9C54.6,83.4,54.5,83.4,54.3,83.4L54.3,83.4z"/>
		<path class="st17" d="M62.5,83.1c0,0.1-0.1,0.2-0.3,0.2h-2.2c-0.2,0-0.3-0.1-0.3-0.2V77h-2.2v6.5c0,1,0.6,1.6,1.8,1.6h3.4
			c1.2,0,1.8-0.5,1.8-1.6V77h-2.2L62.5,83.1z"/>
		<path class="st17" d="M70.6,80.3l-2.5-0.5c-0.3-0.1-0.4-0.1-0.4-0.3v-0.7c0-0.2,0.1-0.2,0.3-0.2h1.9c0.2,0,0.3,0,0.3,0.2v0.7h2.2
			v-1c0-1.1-0.6-1.6-1.8-1.6h-3.1c-1.2,0-1.8,0.5-1.8,1.6v1.3c0,1.1,0.7,1.4,1.9,1.7l2.5,0.5c0.3,0.1,0.4,0.1,0.4,0.3v0.8
			c0,0.2-0.1,0.2-0.3,0.2H68c-0.2,0-0.3-0.1-0.3-0.2v-0.8h-2.2v1.1c0,1.1,0.6,1.6,1.8,1.6h3.3c1.2,0,1.8-0.5,1.8-1.6V82
			C72.5,80.9,71.8,80.6,70.6,80.3z"/>
		<path class="st17" d="M78.5,76.9h-2.8l-1.6,4.7h-1.1l0.6,1.6l0,0L72.9,85h2.3l0.5-1.7h3l0.5,1.7h2.4l-2.7-7.8
			C78.8,77,78.6,76.9,78.5,76.9z M76.2,81.7l1-3.2l1,3.2H76.2z"/>
		<path class="st17" d="M59.8,37.4l12.6,1.5l-0.6-3.2l1.2-2C67.5,34.2,63.9,35.4,59.8,37.4z"/>
		<path class="st17" d="M53.4,34.7c4.4-2.8,9.6-6.6,18-7.9l-0.2,3.2l1.5,2.5C72.7,32.6,63.2,32.4,53.4,34.7z"/>
		<path class="st17" d="M36.7,17.1c0.8-0.3,2.6-0.8,3.3-1l-3-0.8l-0.4-1.9c-3.4,0.8-9.2,2.6-14,5.2c0.8,1.7,1.7,3.3,2.4,4.7
			C28.7,20.8,32.5,18.7,36.7,17.1z"/>
		<path class="st17" d="M22.2,17.7c4.5-2.5,10-4.2,13.4-5.1l-2.9-1.1l-0.3-1.9h-0.2c-2.7,0.3-7.6,1.8-12,3.5
			C20.8,14.9,21.5,16,22.2,17.7z"/>
		<path class="st17" d="M63.6,27.1c2.4-0.5,4.6-0.9,6.3-1.2l0.4-0.1l-4-0.7l-1.1-3.9c-4.5,1.8-8.7,4.4-12.4,7.6c0,0-0.1,0.1-0.1,0.1
			c-1.2,1-2.4,2.1-3.4,3.1C54,29.6,59.5,28,63.6,27.1z"/>
		<path class="st17" d="M46.8,24c-1.1-1.2-2.1-2.2-3-3.1c-0.8,0.2-1.6,0.5-2.6,0.9c-3,1.2-7.4,3.4-12.1,7.6c1.3,1.1,2.5,2.4,3.6,3.6
			c3.5-3.3,7.5-6.1,11.8-8.2C45.4,24.5,46.1,24.2,46.8,24z"/>
		<path class="st17" d="M67.7,50.8l-2-1.2l-1-1.9c-0.2,0.1-0.5,0.3-0.7,0.4C59.5,51,55.5,54.7,52.2,59c0.5,0.6,1.6,1.8,3.1,3.3
			C58.8,57.8,62.9,53.9,67.7,50.8z"/>
		<path class="st17" d="M50.6,28.3c-1-1.2-2-2.4-3-3.5c-0.8,0.3-1.7,0.6-2.6,1.1c-4.3,2-8.1,4.7-11.5,8c1,1.3,2,2.7,2.9,4.2
			C39.4,34.9,45.2,30.8,50.6,28.3z"/>
		<path class="st17" d="M44.4,37.6c-2.3,3-4.2,6.4-5.6,9.9l2.1-0.6c1.7-2.9,3.7-5.5,6.1-7.9c2.9-2.9,6.1-5.4,9.6-7.5
			c2-1.2,4-2.2,6.1-3.2c-5.2,1.3-11.2,3.1-15.6,5.9C46.2,35.3,45.1,36.7,44.4,37.6z"/>
		<path class="st17" d="M43,20l-1.5-1.2l-0.3-1.9c-0.9,0.2-3,0.8-4.1,1.2c-4,1.5-7.9,3.6-11.4,6.2c1.4,2.4,2.5,4,2.7,4.3
			c4.9-4.4,9.4-6.7,12.6-7.9C41.7,20.5,42.3,20.2,43,20z"/>
		<path class="st17" d="M72.2,60.1l-1.6-0.9l-0.1-2.4c-2.4,1.9-6.7,5.8-9.7,10.3c1.3,1,2.7,2.1,4.2,3.1C67,66.2,70.3,62.3,72.2,60.1
			z"/>
		<path class="st17" d="M37.5,47.8c1.2-3.2,3.4-7.2,6.1-10.9c2.1-2.8,4.5-5.4,7.2-7.7c-5.2,2.7-11.9,7.8-14.2,10.6L33.7,44l-0.2,2.5
			l0.3,3.7l2.3-2L37.5,47.8z"/>
		<path class="st17" d="M31.6,8.6l-4.8-2.7l-0.7,1.8l-3.4-2l-0.6,2.1L18.4,5c0.2,2.4,0.7,4.8,1.4,7.1C24,10.6,28.9,9,31.6,8.6z"/>
		<path class="st17" d="M63.9,20.7l-4.2,0.1L57,18.5l-5,9.7C55.6,25.1,59.6,22.5,63.9,20.7z"/>
		<path class="st17" d="M72.8,61.2c-1.8,2.1-5,5.9-6.8,9.7c2.1,1.4,4.4,2.5,6.8,3.4l-2-4.6l2.6,0.1L71.9,66l2-0.1L72.8,61.2z"/>
		<path class="st17" d="M63.5,47.2l0.7-0.4c-0.7-1.2-1.5-2.7-2.5-4.2c-0.7,0.4-1.5,0.9-2.4,1.5c-3.8,2.6-7.3,5.8-10.3,9.3
			c0.9,1.3,1.8,2.9,2.7,4.6C54.9,53.7,58.9,50.1,63.5,47.2z"/>
		<path class="st17" d="M70,55.9l-1.9-1.3l0-2.8c-4.6,3-8.6,6.8-12,11.2c1.1,1.1,2.4,2.3,3.9,3.5C63.1,61.8,67.5,57.8,70,55.9z"/>
		<path class="st17" d="M58.6,37.9c-5.2,2.5-9.7,6.1-13.3,10.6c1.1,1.2,2.1,2.6,3.1,3.9c3-3.5,6.5-6.7,10.4-9.3
			c0.9-0.6,1.7-1.1,2.4-1.5C60.3,40.4,59.5,39.2,58.6,37.9"/>
		<path class="st17" d="M51.4,41.1c4.9-3.7,10.5-6.3,16.6-7.5c-5.9,0.3-12.1,1.3-16.5,2.8c-1.3,1-2.5,2.1-3.7,3.3
			c-2,2-3.8,4.3-5.3,6.7l0.9,0.3c0.4,0.3,0.8,0.7,1.1,1.1C46.6,45.2,48.9,43,51.4,41.1z"/>
		<path class="st17" d="M73.6,58.8c5.1-5.7,7.9-13,7.9-20.7c0-17.1-14-31-31.1-31c-5.2,0-10.3,1.3-14.8,3.9l2.3,0.8
			c4.1-2.1,8.6-3.2,13.2-3.2c16.1,0.1,29.1,13.2,29.1,29.3c0,7.5-2.9,14.7-8.1,20.1L73.6,58.8z M57,66.3c-1.9,0.4-3.9,0.6-5.9,0.6
			C34.9,66.8,21.9,53.6,22,37.4c0-4,0.9-7.9,2.5-11.5l-1.3-2.3c-2.4,4.5-3.7,9.5-3.7,14.5c0,17.1,13.8,31,30.9,31
			c2.9,0,5.7-0.4,8.5-1.2L57,66.3z"/>
	</g>
</g>
</svg>
