<?xml version="1.0" encoding="utf-8"?>
<!-- Generator: Adobe Illustrator 23.0.2, SVG Export Plug-In . SVG Version: 6.00 Build 0)  -->
<svg version="1.1" xmlns="http://www.w3.org/2000/svg" xmlns:xlink="http://www.w3.org/1999/xlink" x="0px" y="0px"
	 viewBox="0 0 100 90" style="enable-background:new 0 0 100 90;" xml:space="preserve">
<style type="text/css">
	.st0{display:none;opacity:0.44;}
	.st1{display:inline;}
	.st2{fill:#FF00FF;}
	.st3{fill:#FF0000;}
	.st4{display:inline;fill:#FFFFFF;}
	.st5{display:inline;fill:#FF00FF;}
	.st6{fill:#202020;}
	.st7{fill:#F3C95E;}
	.st8{fill-rule:evenodd;clip-rule:evenodd;}
	.st9{fill-rule:evenodd;clip-rule:evenodd;fill:#202020;}
	.st10{fill:#F83B3B;}
	.st11{fill:#FFFF00;}
	.st12{fill:#FFFFFF;}
	.st13{fill:#C41230;}
	.st14{fill:#231F20;}
	.st15{fill-rule:evenodd;clip-rule:evenodd;fill:#1B1918;}
	.st16{fill-rule:evenodd;clip-rule:evenodd;fill:#F83B3B;}
	.st17{fill:#1B1918;}
	.st18{fill:#008833;}
	.st19{fill:#D60812;}
</style>
<g id="Capa_2" class="st0">
</g>
<g id="Capa_1">
	<g>
		<path id="icon-logo_XMLID_32_" class="st17" d="M8,15.5h10v5.6h-2.7v38l2.8-1.1v-2.4l4.8-1.5V62c0,0-9.3,3.3-14.7,6.4v-6l2-0.9
			V21.3H8V15.5z"/>
		<path id="icon-logo_XMLID_31_" class="st17" d="M24.2,15.5h16.1v8.2h-5.4v-2.5h-3v11.7h1.9v-2.3h3.9v10.8H34v-2.2h-2.2v15.6
			c0,0,1.8-0.3,3-0.4l0.1-2.5c0,0,1.8-0.4,5.2-0.7v7.5c0,0-9,1-15.3,3.2v-5.3c0,0,1.3-0.4,2.2-0.5V21.2h-2.7V15.5z"/>
		<path id="icon-logo_XMLID_30_" class="st17" d="M58,15.6h4.7l5.6,17.1V21.3H66v-5.6h9.2v5.5h-1.9v39.8l-1.6-0.3L65.2,43v11.2
			l2.4,0.4v5.2c0,0-5.6-0.9-9.6-1.3v-5l2.2,0.2V21.2H58L58,15.6L58,15.6z"/>
		<path id="icon-logo_XMLID_29_" class="st17" d="M76.9,15.6H92v8.2h-5.5v-2.5h-2.3v11.7H86v-2.1h3.9v10.6h-3.7v-2.2h-1.9V59
			l2.8,1.1v-2.9c0,0,4.1,1.9,4.8,2.3v8.7c0,0-7.2-3.5-14.7-6.1v-5.6c0,0,1.7,0.5,2.1,0.7V21.2H77L76.9,15.6L76.9,15.6z"/>
		<path class="st17" d="M56.9,22.2c0-0.2-0.4-6.8-8-6.9c-1.9,0-7,1.4-7.3,7.2c0,1.4,0,7.6,0,13.9c0,0,0,0,0,0v15.3
			c0,0.2,0.4,6.8,8,6.9c1.9,0,7-1.4,7.3-7.2c0-1,0-4.4,0-8.6c0,0,0,0,0,0V22.2z M49.4,53.2h-0.3c-1.8,0-2-1.5-2-1.8v-8.1
			c0,0,0,0,0,0V22.7c0-0.2-0.1-1.8,1.9-1.9h0.3c1.8,0,2,1.5,2,1.8v13c0,0,0,0,0,0v15.7C51.4,51.5,51.4,53.1,49.4,53.2z"/>
		<path id="icon-logo_XMLID_28_" class="st17" d="M36,61.1c0-0.2,0.9,0,0.9,0c0,0.2,0,0.9,0,1.4V66c0,0.7,0.1,0.8,0.5,0.9l0.4,0
			c0.1,0.1,0.1,0.3,0,0.3c-0.3,0-0.9,0-1.5,0c-0.6,0-1.2,0-1.5,0c-0.1,0-0.1-0.3,0-0.3l0.4,0c0.4,0,0.5-0.1,0.5-0.9v-3.9
			c0,0-0.2,0.3-1.5,0.3c-0.9-0.1-0.5-0.9-0.5-0.9s0.7-0.2,0.7,0.3C34.5,62.2,35.9,61.7,36,61.1"/>
		<path id="icon-logo_XMLID_26_" class="st17" d="M44.5,65.1c-1.5,0-2.6-0.9-2.6-1.9c0-1.4,1.6-2.3,3.5-2.3c2.2,0,3.5,1.3,3.5,2.7
			c0,1.3-0.5,2.3-1.9,3.1c-1.3,0.8-3.4,1.4-4.7,1.5c-0.2-0.1-0.2-0.3-0.1-0.3c3.9-0.4,5-2.3,5-4.2c0-0.8-0.1-2.2-1.8-2.2
			c-0.7,0-2,0.2-2.1,1.3c-0.1,1.5,1.3,1.8,2.4,1.7c1-0.1,1.4-1.3,1.4-1.1C47.5,65.3,44.5,65.1,44.5,65.1"/>
		<path id="icon-logo_XMLID_25_" class="st17" d="M57.7,66c-0.9,0-0.7-0.5-0.7-0.5c-0.3,0-0.7,0-0.7,0.3V66c0,0.8,0.5,0.8,1.1,0.9
			l0.3,0c0.1,0.1,0.1,0.3,0,0.3c-0.5,0-1.3,0-1.9,0c-0.9,0-1.2,0-1.7,0c-0.1,0-0.2-0.3,0-0.3l0,0c0.7,0,0.8-0.1,0.8-0.9v-0.3
			c0-0.2,0-0.3-0.3-0.3h-3.8c-0.2,0-0.2-0.2-0.2-0.3c0,0,2-1.9,2.7-3.9c0.1-0.3,0.3-0.2,0.5-0.2H55c0.1,0,0.2,0,0.1,0.2
			c-0.5,1-3.2,3.5-3.2,3.5c-0.1,0.1-0.1,0.2,0.3,0.2h2.3c0.3,0,0.3,0,0.3-0.3v-1.3c0-0.2,0.1-0.3,0.3-0.3c0.4-0.1,0.7-0.5,1-0.5
			c0.1,0,0.2,0.3,0.2,0.4v1.8c0,0.2,0.4,0.3,0.7,0.3h0.9C58.4,65,58.6,66,57.7,66"/>
		<path id="icon-logo_XMLID_24_" class="st17" d="M62.3,67c0,0,0-0.1,0-0.1C62.3,65.1,65,63,65,63c0.3-0.4,0.4-0.6,0.4-0.7
			c0-0.1-0.2-0.1-0.4-0.1h-3.2c0,0,0.3,1-1.2,1c-0.7,0-0.9-0.6-0.3-0.6s0.7-0.3,0.7-0.3v-1.2c0.4,0,0.9,0,1.8,0h2.5
			c0.8,0,1.7,0,1.9,0c0.1,0,0.1,0.1,0.1,0.1c-0.3,0.3-0.7,0.8-1.3,1.5c0,0-1.9,2.2-1.7,4.1L62.3,67z"/>
		<g id="icon-logo_XMLID_1_">
			<rect id="icon-logo_XMLID_4_" x="8.1" y="70.3" class="st7" width="27.9" height="4.4"/>
			<rect id="icon-logo_XMLID_3_" x="64" y="70.3" class="st10" width="27.9" height="4.4"/>
			<rect id="icon-logo_XMLID_2_" x="36" y="70.3" class="st12" width="27.9" height="4.4"/>
		</g>
	</g>
</g>
</svg>
