<?xml version="1.0" encoding="utf-8"?>
<!-- Generator: Adobe Illustrator 23.0.2, SVG Export Plug-In . SVG Version: 6.00 Build 0)  -->
<svg version="1.1" xmlns="http://www.w3.org/2000/svg" xmlns:xlink="http://www.w3.org/1999/xlink" x="0px" y="0px"
	 viewBox="0 0 100 90" style="enable-background:new 0 0 100 90;" xml:space="preserve">
<style type="text/css">
	.st0{display:none;opacity:0.44;}
	.st1{display:inline;}
	.st2{fill:#FF00FF;}
	.st3{fill:#FF0000;}
	.st4{display:inline;fill:#FFFFFF;}
	.st5{display:inline;fill:#FF00FF;}
	.st6{fill:#202020;}
	.st7{fill:#F3C95E;}
	.st8{fill-rule:evenodd;clip-rule:evenodd;}
	.st9{fill-rule:evenodd;clip-rule:evenodd;fill:#202020;}
	.st10{fill:#F83B3B;}
	.st11{fill:#FFFF00;}
	.st12{fill:#FFFFFF;}
	.st13{fill:#C41230;}
	.st14{fill:#231F20;}
	.st15{fill-rule:evenodd;clip-rule:evenodd;fill:#1B1918;}
	.st16{fill-rule:evenodd;clip-rule:evenodd;fill:#F83B3B;}
</style>
<g id="Capa_2" class="st0">
</g>
<g id="Capa_1">
	<g>
		<g>
			<path class="st9" d="M63.1,25.3c0.2,0.2,0.6-0.1,0.9-0.1c0.3,0,0.6,0.1,0.9,0C64.6,24.5,63.2,24.7,63.1,25.3z M31.3,26.2
				c0.2,0.5,0.4,0.9,0.6,1.3c0.3,0.5,0.6,1.2,1,1.4c0.2-0.4-0.2-0.5-0.1-0.9c0.6,0.1,1.1,0.3,1.7,0.4c0-0.4-0.4-0.5-0.7-0.7
				c-0.3-0.2-0.5-0.5-0.8-0.7c-0.8-0.8-1.5-1.7-1.8-3c0,0-0.1,0-0.1,0C30.9,24.8,31,25.6,31.3,26.2z M43.4,22.9c0,0.1-0.1,0.1,0,0.1
				c0.3,0.8,1.6,0.7,2.1,0C44.9,22.8,43.9,22.9,43.4,22.9z M65.6,20.3c-0.1-0.2-0.3-0.5-0.4-0.6c-0.6-0.6-1.7-0.5-2.5-0.2
				c0.2,0.4,0.7,0.2,1,0.2c0.5,0.1,1,0.3,1.4,0.6c0.3,0.2,0.4,0.5,0.7,0.7C65.9,20.9,65.7,20.5,65.6,20.3z M32.5,19.5
				c0.2-0.2,0.2-1,0-1.2C32.3,18.5,32.2,19.4,32.5,19.5z M32.7,14.8c-0.1,0,0,0.2,0,0.3c-0.4,0.6-0.7,1.2-1.2,1.8
				c-0.5,0.7-1,1.4-1.3,2.2c-0.1,0.1-0.2,0.2-0.2,0.3c-0.1,0.2,0,0.4-0.1,0.5c0,0.2-0.2,0.3-0.2,0.4c-0.2,0.8-0.1,1.9-0.2,2.6
				c0.3,0,0.1-0.4,0.1-0.6c0.1-0.1,0.2-0.3,0.2-0.4c0-0.6,0.2-1.1,0.3-1.5c0-0.1,0-0.3,0-0.4c0.1-0.4,0.3-0.7,0.5-1
				c0.2-0.4,0.3-0.7,0.5-1c0.7-1,1.6-1.7,1.6-3.3c-0.1,0-0.1-0.1-0.1,0C32.7,14.7,32.7,14.7,32.7,14.8z M33.8,13.3
				c-0.2,0-0.4,0.1-0.5,0.3C33.5,13.9,34.1,13.6,33.8,13.3z M36.1,15.2c-0.3-0.2-0.7-0.5-0.7-0.7c0-0.5,0.7-0.7,0.7-1.2
				c0.1-0.8-0.7-1.4-1.5-1.4c-0.3,0-0.9,0.2-0.9,0.5c0.2,0.3,0.8,0.2,1.3,0.2c0.3,0.2,0.5,0.4,0.5,0.7c0.1,0.8-0.7,0.9-0.9,1.4
				c1.2,0.4,1.7,1.4,1.7,2.7c0,1.8-0.8,3-1.2,4.3c-0.3,0.4-0.4,1-0.8,1.3c-0.1,0.5-0.5,1.2,0,1.6c0-0.5,0.2-0.9,0.3-1.2
				c0.2-0.6,0.4-0.9,0.6-1.4c0.4-0.7,0.7-1.3,1-2c0.2-0.3,0.4-0.6,0.5-1c0.3-0.8,0.3-1.7,0.3-2.6c0.2-0.1,0.5,0.1,0.6-0.2
				C37.1,15.9,36.7,15.7,36.1,15.2z M47.5,19.4C47.1,19.4,47,19.3,47,19c-0.2-0.5-0.5-1.1-0.8-1.5c-0.4-0.6-1-1.1-2.2-1
				c-1.3,0.1-2.9,0.5-4.1,0.7c-0.2,0.2,0,0.5,0.1,0.8c0.4-0.1,0.7-0.3,1.1-0.5c0.3-0.1,0.7-0.4,1.1-0.4c0.3-0.1,0.7,0,1,0
				c0.4,0,0.5,0,1,0c0.6,0.1,1,0,1.4,0.3c0.4,0.3,0.6,0.9,0.9,1.4c0.3,0.5,0.6,1,0.9,1.3c0.7-0.6,0.4-1.8,0.1-2.6
				c-0.2-0.5-0.6-0.8-0.5-1.2c0-0.3,0.3-0.2,0.4-0.2c0.6-0.1,1.6-0.1,2.4-0.2c1.2-0.1,2.3-0.3,3.4-0.5c0.6-0.1,1.1-0.2,1.6-0.3
				c0.9-0.2,1.7-0.6,2.6-0.8c0.3,0,0.6-0.1,0.9-0.1c2-0.3,4.3,0,5.9,0.5c1.6,0.5,2.5,1.1,3.3,2.5c0.4,0.7,0.8,1.5,1,2.5
				c0.1,0.6,0.2,1.2,0.3,1.8c0.1,0.6-0.1,1.5,0,2.2c0.2,0.8,1.1,1.3,1.7,1.8c0.4,0.4,0.9,0.7,1.3,1.1c0.4,0.4,0.6,0.9,1.1,1.2
				c0.3,0.2,1.6,0.6,1.7,0.9c0.1,0.3-0.3,0.7-0.5,0.9c-0.3,0.3-0.6,0.4-0.7,0.7c0.2,0.3,0.7,0.5,1.1,0.6c0.7,0.2,1.6-0.1,1.8,0.4
				c0.1,0.8-0.2,1.6,0,2.3c0.1,0.6,0.5,1,0.8,1.4c0.2,0.7,0.2,1.6-0.5,1.9c-0.2,0.1-0.5,0.1-0.8,0.1c-0.5,0-1.2,0-1.7,0
				c-0.3,0-0.7,0-1-0.1c-0.5-0.1-0.8-0.4-1.5-0.3c-0.3,0.1-0.7,0.4-1.1,0.3c-0.9-0.1-0.8-1.4-0.3-2c0.5-0.6,1.6-0.8,2.3-0.3
				c0.3-0.2,0.8-0.3,0.9-0.6c0-0.2-0.2-0.5-0.2-0.8c0-0.2,0-0.3,0-0.4c-0.2-0.7-0.7-1.4-0.8-1.8c-0.6-0.3-1.1-0.2-1.8-0.3
				c-0.2,0-0.4-0.1-0.6-0.2c-0.2-0.1-0.4,0-0.6-0.1c-0.8-0.2-1.9-0.6-2.8-0.9C65,28.8,63.7,28,62.6,27c-1-0.8-1.6-1.3-2.2-2.3
				c-0.2-0.3-0.4-0.7-0.5-1c-0.1-0.4-0.2-0.8-0.3-1.2c-0.5-1.4-1.3-2.6-3-2.8c-0.6-0.1-1.1,0.1-1.6,0.1c-0.3,0-0.6,0.1-0.8,0.2
				c0,0.3,0.4,0.4,0.6,0.5c0.2,0.1,0.4,0.2,0.7,0.3c0.5,0.2,1.2,0.4,1.2,0.9c0,0.4-0.8,0.5-1.1,0.7c-0.2,0.1-0.4,0.2-0.6,0.3
				c-0.2,0.1-0.5,0.1-0.6,0.3c0.1,0.3,0.5,0.1,0.8,0.1c0.3,0,0.6,0,0.9-0.1c0.6-0.1,1.2-0.3,1.7,0c0.2,0.4-0.2,0.6-0.5,0.7
				c-0.3,0.2-0.6,0.3-0.8,0.4c-1.6,0.8-3.4,1.8-5,2.7c-1.4,0.6-2.7,1.6-4.2,2.2c-0.3,0.1-0.6,0.2-0.9,0.3c-0.6,0.2-1.2,0.7-1.9,0.5
				c-0.2-0.9,0.3-1.9,0.3-3c0-0.9-0.2-1.6-0.6-2.2c-0.4-0.4-1.1-0.5-1.7-0.6c-0.2-1.2-0.8-2-2.1-2.1c0.1,0.4,0.6,0.4,0.8,0.7
				c0.3,0.4,0.5,1,0.5,1.7c0.4,0.2,0.9,0.2,1.3,0.4c0.2,0.1,0.5,0.4,0.6,0.6c0.5,1-0.1,2.6,0.1,4.1c0.2,1.5,0.9,2.7,1.6,3.8
				c0.2,0.8-0.1,1.5-0.4,1.9c0.2,1.6-1.8,1.4-2.9,1c-0.3-0.1-0.4-0.3-0.6-0.3c-0.4,0-0.7,0.5-1.2,0.6c-0.3,0.1-0.5,0-0.9,0
				c-1.4-0.5,0.1-2.5,0.8-2.7c0.5-0.1,0.9,0,1.3,0c0.2-0.1,0.3-0.4,0.4-0.6c-0.1-0.4-0.4-0.5-0.7-0.8c-0.2-0.2-0.5-0.5-0.7-0.7
				c-0.3-0.2-0.7-0.3-0.9-0.6c-0.3-0.3-0.7-1-1.1-1.5C37.7,29,37.3,28.5,37,28c-0.1-0.1,0-0.3-0.1-0.4c-0.1-0.3-0.3-0.9-0.3-1.4
				c0-0.2,0.1-0.4,0.1-0.6c0.1-0.8,0.3-1.3,0.7-1.9c0.1-0.2,0.3-0.4,0.4-0.6c0.2-0.5,0.2-1.2-0.1-1.6c-0.4,0.3-0.2,0.8-0.3,1.3
				c-0.1,0.3-0.3,0.7-0.5,1c-0.4,0.7-0.9,1.5-0.8,2.7c0.1,1.1,0.9,2,1.4,2.9c0.3,0.4,0.5,0.8,0.8,1.1c0.3,0.4,0.7,0.6,0.8,1.1
				c-0.9,0.4-2.4,0.1-3.4,0.1c0,0.3,0.5,0.2,0.6,0.3c0,0.3-0.3,0.4-0.5,0.5c-0.6,0.4-1.3,0.7-2.1,1.1c-0.4,0.2-0.9,0.5-1.4,0.7
				c-0.5,0.2-1.1,0.3-1.5,0.6c-0.3,0.3-0.4,0.7-0.6,1c-0.2,0.3-0.5,0.6-0.8,0.8c-0.5,0.2-1.2,0.3-2,0.3c-0.4,0-0.9,0.1-1.3,0
				c-0.3-0.1-0.3-0.2-0.7-0.4c-0.3,0-0.6,0.3-0.9,0.3c-0.5,0-1.3-0.4-1.3-1.1c0-0.3,0.3-0.9,0.5-1.1c0.1-0.1,0.8-0.6,1-0.6
				c1-0.3,1.9,0.2,2.9,0c0.4-0.1,0.9-0.4,1.2-0.7c0.3-0.3,0.7-0.7,1-1c0.6-0.6,1-1.3,2.2-1.1c0.4,0.1,0.8,0.5,1.3,0.6
				c0.6,0.2,1.2,0.3,1.9,0.2c0.2,0-0.1-0.3,0.1-0.3c0-0.2,0.2-0.1,0.2-0.3c-0.2-0.1-0.6-0.1-0.9-0.2c-0.2,0-0.1,0.4-0.2,0.4
				c-0.6,0.1-0.8-0.3-1.4-0.3c-1.6-0.7-3.1-1.5-4.3-2.6c-0.5,0.5-0.7-0.1-1-0.7c-0.3-0.6-0.3-0.9-0.5-1.5c-0.1-0.2-0.2-0.3-0.2-0.4
				c0-0.2-0.1-0.4-0.1-0.6c-0.2-1.1-0.3-3-0.1-4.4c0.1-0.6,0.2-1.1,0.4-1.6c0.2-0.8,0.5-1.5,0.9-2.1c0.3-0.5,0.7-1,1-1.4
				c0.4-1,0.3-2.3,0.9-3.1c0.2-0.3,0.5-0.3,0.7-0.6c0.1-0.3-0.5-0.5-0.6-0.7c-0.1-0.2,0-0.5,0-0.6C29.8,11,29.5,11,29.3,11
				c-0.2-0.3-0.7-0.4-0.7-0.8c0-0.3,0.6-0.7,0.8-0.9c0.3-0.3,0.7-0.6,1-0.7c0.3-0.1,0.9,0,1.3-0.1c0.9-0.1,2.4-0.1,3.2,0.4
				c0.9,0.6,1.7,1.5,2.6,2.2c0.7,0.5,1.3,0.9,2.3,1.2c0.2,0.1,0.5,0.1,0.8,0.1c0.5,0.1,1,0.5,1.5,0.7c0.9,0.6,1.7,1.1,2.6,1.7
				c0.8,0.6,1.5,0.9,2.1,1.8c0.1,0.2,0.2,0.4,0.3,0.6C47.2,17.7,47.6,18.8,47.5,19.4z"/>
			<path class="st9" d="M29.4,12.4c-0.2,0.2-0.3,0.3-0.5,0.3c-0.4,0-0.8-0.7-1.4-0.8c-0.2,0-0.6,0.1-0.8,0.1c-0.4,0.1-0.7,0.4-1,0.4
				c-0.2,0-0.4-0.2-0.6-0.2c-0.3,0-0.6,0.3-0.6,0.6c0,0.5,0.3,1.6,0.5,1.9c0.7-0.3,0.6-1.3,1.5-1.3c0.2,0,0.7,0.1,1,0.1
				c0.4,0.1,0.7,0.3,0.9,0.4c0.6,1.4-0.9,1.8-2,1.3c-0.2,0.8,0.3,1.6,0.4,2.4c0,0.4,0.1,1.2,0,1.6c-0.1,0.3-0.4,0.9-0.7,1
				c-0.4,0.1-1-0.4-1.5-0.5c-0.4-0.1-1-0.1-1.5,0.1c-0.4,0.2-1.2,1.5-1.7,0.6c-0.1-0.2-0.2-1.2-0.1-1.5c0.1-0.5,0.4-0.9,0.7-1.1
				c0.3,0,0.5,0.3,0.7,0.3c1.1,0.2,2.1-0.8,1.6-1.9c-0.3-0.6-1.4-0.9-2.1-0.4c-0.3,0.2-0.2,0.6-0.5,0.9c-0.5-0.4-0.8-1.9-0.4-2.6
				c0.2-0.3,0.5-0.4,0.7-0.6c-0.1-0.3-0.5-0.2-0.6-0.5c0.1-0.5,0.3-0.9,0.6-1.2c0.4-0.1,0.8,0.2,1.2,0.2c1,0.1,2.1-0.3,2.7-0.8
				c0.7-0.2,1.5-0.5,2.3-0.2C28.8,11.2,29.2,11.8,29.4,12.4z"/>
			<path class="st9" d="M27.5,12.8c0,0.1,0.1,0.2,0.1,0.3c-0.3,0.3-1,0.3-1.3,0C26.2,12.7,27,12.6,27.5,12.8z"/>
			<path class="st9" d="M74.5,29.9c0.2-0.4,0.6-0.4,0.9-0.7c0.5-0.5,0.7-1.3,1.4-1.7c0.2-0.1,0.4,0,0.6,0c0.5-1.1-0.2-2-0.8-2.7
				c-0.4-0.5-0.8-0.9-1.2-1.2c-0.7-0.5-1.4-1-2.1-1.6c-0.6-0.5-1-1.2-1.4-1.8c-0.7-1-1.6-2-3.2-2.2c-0.3-0.6-0.6-1.3-0.9-1.9
				c0,0,0,0,0-0.1c0,0,0,0,0.1,0c0,0,0.1,0,0.1,0c1.2,0.7,2.4,1.3,3.2,2.3c0.3,0.3,0.4,0.7,0.7,1.1c0.3,0.4,0.8,0.7,1.2,1
				c0.4,0.3,0.8,0.7,1.2,1c0.7,0.6,1.4,1.2,2,1.8c0.8,0.8,1.3,1.9,2,2.9c0.1,0.8,0.5,1.4,0.3,2.3c0,0.2-0.3,0.4-0.4,0.7
				c-0.3,0.6-0.2,0.8-0.9,1.1C76.6,30.4,75.2,30.7,74.5,29.9z"/>
			<path class="st9" d="M57.7,24.7c0.3,0.1,0.2,0.6,0.5,0.7c0.4-0.1,0.3-0.6,0.8-0.6c0.5,0,0.9,0.7,1.2,0.9c0.4,0.4,1.1,0.8,1,1.6
				c-0.1,0.8-0.5,1.1-0.3,2c0.2,0.7,1,1.1,1,1.8c0,0.2-0.2,0.7-0.3,0.8c-0.4,0.5-1.4,0.7-1.9,1.3c-0.3,0.3-0.5,0.8-0.7,1.2
				c-0.4,0.7-0.7,1.8-1.8,1.9c-0.3,0-0.6,0-0.9,0c-0.3,0-0.6-0.2-0.8-0.2c-1.3-0.1-3.4,0.8-3.5-0.8c0-0.6,0.3-1.1,0.5-1.3
				c0.2-0.2,0.6-0.4,0.9-0.4c0.7-0.1,1.4,0.2,2.2-0.1c0.4-0.1,0.6-0.6,0.9-1c0.3-0.4,0.5-0.7,0.8-1.1c0.2-0.6,0.4-1.2,0.3-1.8
				c-0.1-0.3-0.4-0.9-0.6-1.2c-0.2-0.3-0.6-0.7-0.9-0.9c-0.6-0.5-1.4-0.7-1.9-1.1c0.3-0.6,1.1-0.9,1.8-1.2
				C56.5,24.9,57,24.7,57.7,24.7z"/>
		</g>
		<g>
			<path class="st16" d="M0,34.1l4.1,1.6L8,36.6v4.1l-1.5-0.3V75c0,0,19.8-6.6,43.9-6.6s46.1,7.8,46.1,7.8v-7.7c0,0,0.8-0.3,1.9,0.2
				c1.1,0.4,1.6,1.1,1.6,1.1v11.8c0,0-18.8-9.7-49.6-9.7S0.1,81.6,0.1,81.6v-4.4l1.4-1V39.3L0,38.6V34.1z"/>
			<path class="st16" d="M14.4,67.2c-1.3,0.2-1.5-1.7-1.5-1.7V44.1c0,0,0-0.9,1-1.2c0.9-0.3,1.8,0.7,1.8,1.2c0,0.5,0,22,0,22
				S15.7,67,14.4,67.2z M13.3,38.5C8.8,38.6,9,41.9,9,41.9v26.9c0,0-0.1,3.1,5.2,2.7c5.3-0.5,5.6-4.7,5.6-4.7s0-21,0-22.8
				C19.8,42.2,17.9,38.4,13.3,38.5z"/>
			<polygon class="st16" points="20.8,40.5 25.7,41.6 30.5,53.6 30.5,46.1 28.9,45.5 28.9,42.3 34.3,43.3 34.3,46.4 33.5,46.3 
				33.5,64.5 34.6,64.2 34.6,67.5 30.3,68.3 25.8,55 25.8,65.3 27.6,65.2 27.6,68.8 20.9,69.8 20.9,66.3 22,65.9 22,44.8 20.7,44.2 
							"/>
			<path class="st16" d="M35.8,58.6v8.8l2.9-0.2c0,0,0-1.1,0.7-1.1c0.7-0.1,1.4,0.9,2.9,0.8c1.5-0.1,4.1-1.3,3.9-5.3
				c-0.3-4-1.3-5.1-1.3-5.1l-5.1-6.2c0,0-1.2-2.6-0.2-3.7c1-1.1,3,1,3.2,1.7c0.2,0.7,0.1,2.2,0.1,2.2h2.4v-6.8l-2.2-0.3
				c0,0-0.1,0.7-0.7,0.8c-0.6,0.1-0.1-1.2-2.7-1.2c-0.9,0.1-4.3,1.4-4.3,5.4c0.1,4,1.6,4.9,1.6,4.9s4.5,5.1,4.9,6
				c0.5,1,1.2,4-0.7,4.3c-1.9,0.3-2.5-2.5-2.5-2.5l-0.1-2.5L35.8,58.6z"/>
			<path class="st16" d="M51.8,63.4V46.4c0,0,3.1,1,3.1,8.3C54.9,61.9,51.8,63.4,51.8,63.4z M53.2,43.4l-6.6,0.2v3l1,0.1v16.6h-0.6
				v3.3l6.7-0.1c0,0,5.6-1.8,5.6-12.4C59.2,43.4,53.2,43.4,53.2,43.4z"/>
			<path class="st16" d="M63.9,57l1.3-5.6l1.1,5.6H63.9z M71.4,64.6L68.6,45l1.5-0.5V41l-9.3,1.7V46l1.6-0.4l-3,18.1l-0.8-0.1v2.9
				l5.5,0.6v-2.8L62.7,64l0.8-3.7h3.2l0.8,4l-1.6-0.1v3.4l6.6,0.9V65L71.4,64.6z"/>
			<polygon class="st16" points="73.2,40.2 79.5,38.6 79.5,43.3 78.8,43.6 78.8,65.8 79.8,65.8 79.8,59.5 82.8,59.8 82.8,70.5 
				73.6,68.6 73.6,65 74.3,64.8 74.3,43.8 73.1,44.1 			"/>
			<polygon class="st16" points="95.8,34.6 83.7,38.1 83.7,42.2 85.1,42.4 85.1,67.1 84.2,66.8 84.2,70.5 95,74.1 95,62.5 
				91.6,61.3 91.6,68.8 89.8,68.1 89.8,55.5 91.5,55.7 91.6,57.9 95.4,58.7 95.4,48.7 91.6,48.7 91.6,51.8 89.8,51.7 89.8,40.9 
				91.6,40.6 91.6,45.8 95.6,44.8 			"/>
			<path class="st16" d="M62.8,80.7v-5.8H64l2.4,3.9v-3.9h1.1v5.8h-1.2l-2.4-3.8v3.8H62.8z M57.5,77.8c0,0.7,0.2,1.2,0.5,1.5
				c0.3,0.3,0.7,0.5,1.2,0.5c0.5,0,0.9-0.2,1.2-0.5c0.3-0.3,0.5-0.8,0.5-1.5c0-0.7-0.1-1.2-0.4-1.5c-0.3-0.3-0.7-0.5-1.2-0.5
				c-0.5,0-0.9,0.2-1.2,0.5C57.6,76.6,57.5,77.1,57.5,77.8z M56.2,77.8c0-0.6,0.1-1.1,0.3-1.5c0.1-0.3,0.3-0.6,0.5-0.8
				c0.2-0.2,0.5-0.4,0.8-0.5c0.4-0.2,0.8-0.2,1.3-0.2c0.9,0,1.5,0.3,2.1,0.8c0.5,0.5,0.8,1.3,0.8,2.2c0,0.9-0.3,1.7-0.8,2.2
				c-0.5,0.5-1.2,0.8-2.1,0.8c-0.9,0-1.6-0.3-2.1-0.8C56.5,79.4,56.2,78.7,56.2,77.8z M51.8,75.8v3.9h0.9c0.3,0,0.6,0,0.7-0.1
				c0.2,0,0.3-0.1,0.5-0.2c0.1-0.1,0.2-0.3,0.3-0.6c0.1-0.3,0.1-0.6,0.1-1.1c0-0.5,0-0.8-0.1-1c-0.1-0.2-0.2-0.4-0.3-0.6
				c-0.1-0.1-0.3-0.2-0.5-0.3c-0.2,0-0.5-0.1-1-0.1H51.8z M50.6,74.8h2.2c0.5,0,0.9,0,1.1,0.1c0.3,0.1,0.6,0.3,0.9,0.5
				c0.2,0.3,0.4,0.6,0.6,0.9c0.1,0.4,0.2,0.8,0.2,1.4c0,0.5-0.1,0.9-0.2,1.2c-0.1,0.4-0.4,0.8-0.6,1c-0.2,0.2-0.5,0.4-0.8,0.5
				c-0.3,0.1-0.6,0.1-1,0.1h-2.2V74.8z M44.7,80.7v-5.8h1.1l2.4,3.9v-3.9h1.1v5.8h-1.2l-2.4-3.8v3.8H44.7z M39.3,77.8
				c0,0.7,0.2,1.2,0.5,1.5c0.3,0.3,0.7,0.5,1.2,0.5c0.5,0,0.9-0.2,1.2-0.5c0.3-0.3,0.5-0.8,0.5-1.5c0-0.7-0.1-1.2-0.4-1.5
				c-0.3-0.3-0.7-0.5-1.2-0.5c-0.5,0-0.9,0.2-1.2,0.5C39.5,76.6,39.3,77.1,39.3,77.8z M38.1,77.8c0-0.6,0.1-1.1,0.3-1.5
				c0.1-0.3,0.3-0.6,0.5-0.8c0.2-0.2,0.5-0.4,0.8-0.5c0.4-0.2,0.8-0.2,1.3-0.2c0.9,0,1.5,0.3,2.1,0.8c0.5,0.5,0.8,1.3,0.8,2.2
				c0,0.9-0.3,1.7-0.8,2.2c-0.5,0.5-1.2,0.8-2.1,0.8c-0.9,0-1.6-0.3-2.1-0.8C38.4,79.4,38.1,78.7,38.1,77.8z M33.4,80.7v-5.8h1.2
				v4.8h2.9v1H33.4z"/>
			<path class="st16" d="M98,67.5v-1.6h0.5l0.3,1.1l0.3-1.1h0.5v1.6h-0.3v-1.3l-0.3,1.3h-0.3l-0.3-1.3v1.3H98z M96.9,67.5v-1.3h-0.5
				v-0.3h1.3v0.3h-0.5v1.3H96.9z"/>
		</g>
	</g>
</g>
</svg>
