<?xml version="1.0" encoding="utf-8"?>
<!-- Generator: Adobe Illustrator 23.0.2, SVG Export Plug-In . SVG Version: 6.00 Build 0)  -->
<svg version="1.1" xmlns="http://www.w3.org/2000/svg" xmlns:xlink="http://www.w3.org/1999/xlink" x="0px" y="0px"
	 viewBox="0 0 100 90" style="enable-background:new 0 0 100 90;" xml:space="preserve">
<style type="text/css">
	.st0{display:none;opacity:0.44;}
	.st1{display:inline;}
	.st2{fill:#FF00FF;}
	.st3{fill:#FF0000;}
	.st4{display:inline;fill:#FFFFFF;}
	.st5{display:inline;fill:#FF00FF;}
	.st6{fill:#202020;}
	.st7{fill:#F3C95E;}
	.st8{fill-rule:evenodd;clip-rule:evenodd;}
	.st9{fill-rule:evenodd;clip-rule:evenodd;fill:#202020;}
	.st10{fill:#F83B3B;}
	.st11{fill:#FFFF00;}
	.st12{fill:#FFFFFF;}
</style>
<g id="Capa_2" class="st0">
</g>
<g id="Capa_1">
	<g>
		<path class="st10" d="M61,45.4c0.1,0.1,0.1,0.2,0.1,0.2c2,3.5,3.9,7,5.9,10.5c0.1,0.1,0.1,0.2,0,0.4c-2.4,4.2-4.9,8.4-7.3,12.7
			c0,0.1-0.1,0.1-0.1,0.2C53.9,59.2,48.2,49,42.5,38.8c0.1,0,0.2,0,0.3,0c3.4,0,6.8,0,10.3,0c0.9,0,1.7-0.1,2.5-0.7
			c0.3-0.2,0.7-0.5,0.9-0.8c0.9-1.2,1.8-2.4,2.6-3.7c0.3-0.4,0.5-0.9,0.6-1.4c0.1-0.7-0.1-1.2-0.8-1.5c-0.5-0.2-1.1-0.3-1.7-0.3
			c-0.3,0-0.6,0-0.9,0c-6.1,0-12.2,0-18.4,0c-0.2,0-0.3-0.1-0.4-0.2c-1.8-3.1-3.5-6.3-5.3-9.4c0-0.1-0.1-0.1-0.1-0.2
			c0.1,0,0.2,0,0.3,0c6.7,0,13.4,0,20.1,0c10,0,20,0,30,0c0.6,0,1.2,0.1,1.8,0.3c1,0.4,1.6,1.2,1.4,2.3c-0.1,1.1-0.6,2.1-1.1,3.1
			c-2.3,4-4.6,8-7,12c-1,1.7-2.1,3.2-3.5,4.5c-1.6,1.4-3.4,2.3-5.6,2.6c-0.6,0.1-1.2,0.1-1.7,0.1c-1.8,0-3.6,0-5.5,0
			C61.3,45.4,61.2,45.4,61,45.4z"/>
		<path class="st10" d="M50.6,85C38.5,63.5,26.4,42,14.2,20.5c0.1,0,0.2,0,0.3,0c4.2,0,8.3,0,12.5,0c0.2,0,0.3,0.1,0.4,0.2
			c5,8.8,9.9,17.7,14.9,26.5c4.9,8.7,9.8,17.4,14.7,26.1c0.1,0.2,0.1,0.3,0,0.4c-2.1,3.7-4.2,7.3-6.4,11
			C50.7,84.8,50.6,84.9,50.6,85z"/>
		<path class="st10" d="M42.6,5c0.1,0,0.2,0,0.3,0c6.4,0,12.9,0,19.3,0c0.6,0,1.1,0.1,1.7,0.2c0.7,0.1,0.9,0.5,0.9,1.2
			c0,0.3-0.1,0.6-0.1,0.9c-0.7,2.5-1.4,5.1-2.1,7.6c-0.1,0.4-0.3,0.9-0.6,1.3c-0.4,0.7-1,1-1.8,1.1c-0.7,0.1-1.3,0.1-2,0.1
			c-6.2,0-12.5,0-18.7,0c-0.1,0-0.2,0-0.3,0C40.3,13.3,41.5,9.1,42.6,5z M46.1,14.9c0.1,0,0.2,0,0.3,0c2.7,0,5.5,0,8.2,0
			c0.2,0,0.5,0,0.7,0c0.7,0,1-0.3,1.3-0.9c0-0.1,0.1-0.2,0.1-0.3c0.4-1.4,0.7-2.7,1.1-4.1C57.9,9.2,58,8.8,58,8.4
			c0.1-0.4-0.1-0.7-0.5-0.8c-0.2,0-0.5-0.1-0.8-0.1c-2.8,0-5.6,0-8.3,0c-0.2,0-0.2,0.1-0.2,0.2c-0.6,2.1-1.1,4.1-1.7,6.2
			C46.3,14.2,46.2,14.5,46.1,14.9z"/>
		<path class="st10" d="M31.6,12.8c1.5,1.6,3,3.1,4.5,4.6c-0.1,0-0.2,0-0.2,0c-2.2,0-4.5,0-6.7,0c-0.2,0-0.3,0-0.4-0.2
			c-1.3-1.3-2.5-2.6-3.8-3.8c-0.1-0.1-0.2-0.1-0.3-0.1c-0.8,0-1.6,0-2.4,0c-0.2,0-0.3,0-0.3,0.2c-0.3,1.2-0.7,2.5-1,3.7
			c0,0.1-0.1,0.2-0.2,0.2c-2,0-4,0-6,0c0,0-0.1,0-0.1,0c1.1-4.1,2.3-8.3,3.4-12.4c0.1,0,0.2,0,0.2,0C24.8,5,31.4,5,38,5
			c0.3,0,0.6,0,0.9,0.1c0.5,0.1,0.7,0.4,0.7,0.9c0,0.2,0,0.4-0.1,0.6c-0.4,1.5-0.8,3-1.3,4.4c-0.1,0.2-0.1,0.3-0.2,0.5
			c-0.2,0.7-0.7,1-1.4,1.1c-0.4,0-0.8,0.1-1.2,0.1c-1.1,0-2.3,0-3.4,0C31.8,12.8,31.7,12.8,31.6,12.8z M22.6,10.8c0.1,0,0.2,0,0.3,0
			c2.6,0,5.2,0,7.8,0c0.2,0,0.3,0,0.5,0c0.4,0,0.7-0.2,0.9-0.6c0.3-0.7,0.5-1.3,0.7-2c0.1-0.3-0.1-0.5-0.3-0.6
			c-0.2-0.1-0.5-0.1-0.7-0.1c-2.7,0-5.3,0-8,0c-0.1,0-0.2,0-0.2,0.2c-0.2,0.7-0.4,1.3-0.5,2C22.9,10,22.8,10.4,22.6,10.8z"/>
		<path class="st10" d="M70.5,48.8c0,0.6,0,1.2,0,1.7c0,0.4,0,0.4-0.4,0.4c-0.1,0-0.1,0-0.2,0c0-0.9,0-1.8,0-2.8c0.3,0,0.6,0,0.9,0
			c0,0,0.1,0.1,0.1,0.2c0.2,0.5,0.3,1,0.5,1.5c0,0.1,0,0.1,0.1,0.2c0.2-0.6,0.4-1.2,0.6-1.8c0.3,0,0.7,0,1,0c0,0.1,0,0.1,0,0.2
			c0,0.8,0,1.6,0,2.3c0,0.2-0.1,0.2-0.2,0.2c-0.1,0-0.2,0-0.4,0c0-0.7,0-1.4,0-2.1c0,0,0,0,0,0c0,0,0,0.1-0.1,0.1
			c-0.2,0.6-0.4,1.2-0.6,1.8c0,0.1-0.1,0.2-0.2,0.2c-0.4,0-0.4,0-0.6-0.4C70.9,49.9,70.7,49.4,70.5,48.8
			C70.5,48.8,70.5,48.8,70.5,48.8z"/>
		<path class="st10" d="M68.4,50.9c-0.3,0-0.5,0-0.7,0c0-0.3,0-0.6,0-1c0-0.4,0-0.8,0-1.2c0-0.1-0.1-0.2-0.2-0.2c-0.3,0-0.5,0-0.8,0
			c0-0.2,0-0.3,0-0.4c0.9,0,1.8,0,2.6,0c0,0.1,0,0.3,0,0.4c-0.3,0-0.6,0-1,0C68.4,49.4,68.4,50.1,68.4,50.9z"/>
		<path class="st10" d="M85.4,5c-2,0-4,0-6,0c-0.1,0-0.2,0.1-0.2,0.1C78.1,6.1,77,7,75.9,7.9c-0.1,0.1-0.1,0.1-0.2,0.2
			c-0.1-0.1-0.2-0.2-0.2-0.3C74.7,6.9,74,6,73.2,5.1C73.2,5,73.1,5,73,5c-1.9,0-3.9,0-5.8,0c0,0-0.1,0-0.2,0c1.7,2.1,3.3,4.1,5,6.2
			c-2.4,2-4.8,4.1-7.3,6.2c0.1,0,0.2,0,0.2,0c1.9,0,3.8,0,5.7,0c0.1,0,0.2-0.1,0.3-0.1c1.1-0.9,2.2-1.8,3.3-2.8
			c0.1-0.1,0.2-0.1,0.3-0.2c0.1,0.1,0.1,0.1,0.1,0.2c0.7,0.9,1.5,1.9,2.2,2.8c0.1,0.1,0.2,0.2,0.3,0.2c1.9,0,3.8,0,5.8,0
			c0.1,0,0.1,0,0.2,0c-1.7-2.1-3.3-4.1-5-6.2C80.5,9.1,83,7.1,85.4,5z"/>
	</g>
</g>
</svg>
