<?xml version="1.0" encoding="utf-8"?>
<!-- Generator: Adobe Illustrator 23.0.2, SVG Export Plug-In . SVG Version: 6.00 Build 0)  -->
<svg version="1.1" xmlns="http://www.w3.org/2000/svg" xmlns:xlink="http://www.w3.org/1999/xlink" x="0px" y="0px"
	 viewBox="0 0 100 90" style="enable-background:new 0 0 100 90;" xml:space="preserve">
<style type="text/css">
	.st0{display:none;opacity:0.44;}
	.st1{display:inline;}
	.st2{fill:#FF00FF;}
	.st3{fill:#FF0000;}
	.st4{display:inline;fill:#FFFFFF;}
	.st5{display:inline;fill:#FF00FF;}
	.st6{fill:#202020;}
	.st7{fill:#F3C95E;}
	.st8{fill-rule:evenodd;clip-rule:evenodd;}
	.st9{fill-rule:evenodd;clip-rule:evenodd;fill:#202020;}
	.st10{fill:#F83B3B;}
	.st11{fill:#FFFF00;}
	.st12{fill:#FFFFFF;}
	.st13{fill:#C41230;}
	.st14{fill:#231F20;}
	.st15{fill-rule:evenodd;clip-rule:evenodd;fill:#1B1918;}
	.st16{fill-rule:evenodd;clip-rule:evenodd;fill:#F83B3B;}
</style>
<g id="Capa_2" class="st0">
	
		<image style="display:inline;overflow:visible;" width="319" height="150" xlink:href="../ringside-logo.png"  transform="matrix(0.3135 0 0 0.3135 0 23)">
	</image>
</g>
<g id="Capa_1">
	<g>
		<g>
			<g>
				<path class="st6" d="M7.6,66.9c2.3,0,4.6,0,6.9,0c1,0,2,0,3,0.2c1.3,0.3,2.5,0.9,3.3,1.9c0.9,1.1,1.1,2.7,0.9,4.1
					c-0.2,1.3-0.9,2.5-1.9,3.2c-1.1,0.8-2.5,1-3.9,0.9c1.9,2.2,3.9,4.3,5.8,6.5c0.2,0.2,0.4,0.4,0.6,0.7c-1.4,0-2.9,0-4.3,0
					c-2-2.3-4.1-4.5-6.1-6.8c-0.3-0.3-0.5-0.6-0.8-0.9c0,2.5,0,5.1,0,7.6c-1.1,0.1-2.3,0-3.4,0V66.9z M11,69.9c0,1.6,0,3.2,0,4.8
					c1.5,0,2.9,0,4.4,0c0.8,0,1.6-0.1,2.2-0.5c0.5-0.3,0.8-0.8,0.9-1.3c0.1-0.7,0-1.5-0.5-2.1c-0.6-0.7-1.6-0.9-2.5-0.9
					C14.1,69.9,12.5,69.9,11,69.9z"/>
			</g>
			<g>
				<path class="st6" d="M50.9,66.9c1.1,0,2.3,0,3.4,0c0,1.4,0,2.8,0,4.3c0.6-0.4,1.2-0.6,1.9-0.7c1.7-0.3,3.6,0,5.1,1.1
					c1.3,1,2.1,2.6,2.1,4.3c0,1.1,0,2.3,0,3.4c0,1.4-0.5,2.8-1.5,3.8c-1.1,1.1-2.6,1.6-4.1,1.7h-1.3c-1.2-0.1-2.4-0.5-3.4-1.3
					c-0.7,0.2-1.3,1-2.1,0.8C50.9,78.5,50.9,72.7,50.9,66.9z M56.2,73.4c-1,0.2-1.8,1.1-1.9,2.1c0,1.2,0,2.4,0,3.7
					c0,0.9,0.5,1.8,1.4,2.2c0.9,0.4,2.1,0.4,3,0c0.8-0.4,1.3-1.2,1.3-2.1c0-1.1,0-2.3,0-3.4c0-0.8-0.4-1.6-1.1-2.1
					C58.1,73.3,57.1,73.2,56.2,73.4z"/>
			</g>
			<path class="st6" d="M79.2,66.9c1.1,0,2.2,0,3.4,0c0,3.1,0,6.2,0,9.3c0.9-0.9,1.7-1.9,2.5-2.8c0.9-1,1.8-2.1,2.7-3.1
				c1.4,0,2.8,0,4.1,0c0,0.2-0.1,0.3-0.2,0.4c-1.9,2.2-3.8,4.3-5.7,6.5c1.6,1.8,3.2,3.6,4.8,5.4c0.5,0.6,1.1,1.1,1.5,1.7
				c-1.4,0-2.7,0-4.1,0c-0.3,0-0.4-0.2-0.5-0.4C86,82,84.3,80,82.6,78.1c0,2,0,4.1,0,6.1c-1.1,0-2.3,0-3.4,0
				C79.2,78.5,79.2,72.7,79.2,66.9z"/>
			<g>
				<path class="st6" d="M24.2,71.9c1.2-1.2,2.9-1.6,4.5-1.6c1.5,0,3.1,0.3,4.3,1.2c1,0.7,1.7,1.9,1.9,3.1c0.2,0.9,0.1,1.9,0.1,2.9
					c0,0.3,0,0.7,0,1c-3,0-6,0-9,0c0,0.9,0.1,1.9,0.8,2.6c0.6,0.6,1.5,0.7,2.3,0.8c0.8,0,1.7-0.1,2.3-0.6c0.3-0.2,0.4-0.6,0.5-1
					c1,0,2.1,0,3.1,0c-0.1,1.1-0.5,2.2-1.3,3c-0.9,0.9-2.2,1.3-3.4,1.4c-0.9,0-1.7,0-2.6,0c-1.3-0.2-2.6-0.7-3.6-1.7
					c-1-1-1.5-2.4-1.5-3.8c0-1.1,0-2.3,0-3.4C22.7,74.2,23.2,72.8,24.2,71.9z M26.6,73.9c-0.5,0.5-0.6,1.3-0.6,2c1.9,0,3.8,0,5.8,0
					c0-0.6-0.1-1.2-0.4-1.7c-0.4-0.7-1.3-1-2-1.1C28.4,73.1,27.3,73.2,26.6,73.9z"/>
			</g>
			<g>
				<path class="st6" d="M38.4,71.8c1.2-1.1,2.9-1.5,4.5-1.5c1.7,0,3.4,0.5,4.6,1.6c1.1,1.1,1.6,2.6,1.6,4.2c0,0.8,0.1,1.6,0,2.4
					c-3,0-6,0-9,0c-0.1,0.8,0,1.8,0.6,2.5c0.6,0.7,1.6,0.8,2.5,0.9c0.9,0,2-0.1,2.5-0.9c0.2-0.2,0.1-0.5,0.3-0.7c1,0,2,0,3,0
					c-0.1,1.2-0.5,2.3-1.4,3.1c-0.9,0.8-2.1,1.2-3.3,1.3c-0.8,0-1.7,0-2.5,0c-1.6-0.2-3.2-1-4.2-2.4c-0.6-0.9-0.9-2-0.9-3
					c0-1.1,0-2.3,0-3.4C36.8,74.3,37.3,72.7,38.4,71.8z M40.7,73.9c-0.5,0.5-0.7,1.3-0.6,2c1.9,0,3.8,0,5.7,0c0-0.7-0.1-1.3-0.5-1.9
					c-0.5-0.6-1.3-0.9-2.1-1C42.3,73.1,41.3,73.2,40.7,73.9z"/>
			</g>
			<g>
				<path class="st6" d="M70,70.4c1.7-0.2,3.6-0.1,5.2,0.9c1.1,0.7,1.9,1.8,2.2,3.1c0.3,1,0.2,2.1,0.2,3.1c0,1,0.1,2-0.2,3
					c-0.3,1.3-1,2.5-2.1,3.2c-0.8,0.5-1.8,0.9-2.7,1c-0.8,0-1.5,0-2.3,0c-1.6-0.1-3.1-0.9-4.1-2.1c-0.5-0.7-0.9-1.6-1-2.5
					c-0.1-0.8-0.1-1.5-0.1-2.3c0-1.2-0.1-2.4,0.3-3.6c0.3-1.2,1.1-2.2,2.2-2.8C68.2,70.7,69.1,70.5,70,70.4z M70.2,73.4
					c-0.5,0.2-1,0.4-1.4,0.9c-0.3,0.5-0.5,1.1-0.5,1.7c0,1,0,2,0,3c0,0.6,0.1,1.3,0.6,1.8c0.4,0.5,1.1,0.8,1.7,0.9
					c0.9,0.1,2,0,2.7-0.7c0.6-0.5,0.8-1.3,0.8-2c0-1,0-2.1,0-3.1c0-0.7-0.3-1.5-0.9-2C72.4,73.2,71.2,73.1,70.2,73.4z"/>
			</g>
		</g>
		<g>
			<path class="st10" d="M45.4,4.6h2.4C48,5,47.9,5.5,47.9,6c-0.4,6.5-0.8,13.1-1.2,19.6c-0.1,0.8,0,1.7-0.4,2.5
				c-3.5,6-7,12.1-10.5,18.1c-0.7,0.9-1.7,1.3-2.6,1.9c-4.7,3.2-9.5,6.4-14.2,9.6c-0.9,0.6-1.7,1.2-2.6,1.6c-0.4-0.8-1-1.4-1.2-2.3
				C25.2,39.5,35.4,22.1,45.4,4.6z"/>
			<path class="st10" d="M50.2,4.6H53c1.7,3.2,3.6,6.3,5.4,9.5c5.5,9.6,11.1,19.2,16.6,28.8c2.7,4.7,5.4,9.4,8.2,14.1v0.5
				c-0.6,0.6-0.9,1.4-1.4,2.1c-6.1-4.1-12.1-8.1-18.2-12.2c-0.5-0.3-1.1-0.6-1.4-1.2c-3.5-6.1-7-12.2-10.6-18.3
				c-0.2-0.4-0.2-1-0.2-1.4C51.1,19.1,50.6,11.8,50.2,4.6z"/>
			<path class="st10" d="M38.1,50.9c2.8-0.1,5.7,0,8.5-0.1c4.3,0,8.5,0,12.8,0c0.6,0,1.1,0.3,1.7,0.5c6.5,3.3,13.1,6.6,19.6,9.9
				c0,0.8-0.8,1.4-1,2.2H18.8c-0.4-0.7-1.1-1.4-1.2-2.3c3.2-1.7,6.5-3.3,9.8-5C31,54.5,34.5,52.6,38.1,50.9z"/>
		</g>
	</g>
</g>
</svg>
