<?xml version="1.0" encoding="utf-8"?>
<!-- Generator: Adobe Illustrator 23.0.2, SVG Export Plug-In . SVG Version: 6.00 Build 0)  -->
<svg version="1.1" xmlns="http://www.w3.org/2000/svg" xmlns:xlink="http://www.w3.org/1999/xlink" x="0px" y="0px"
	 viewBox="0 0 100 90" style="enable-background:new 0 0 100 90;" xml:space="preserve">
<style type="text/css">
	.st0{display:none;opacity:0.44;}
	.st1{display:inline;}
	.st2{fill:#FF00FF;}
	.st3{fill:#FF0000;}
	.st4{display:inline;fill:#FFFFFF;}
	.st5{display:inline;fill:#FF00FF;}
	.st6{fill:#202020;}
	.st7{fill:#F3C95E;}
	.st8{fill-rule:evenodd;clip-rule:evenodd;}
	.st9{fill-rule:evenodd;clip-rule:evenodd;fill:#202020;}
	.st10{fill:#F83B3B;}
	.st11{fill:#FFFF00;}
	.st12{fill:#FFFFFF;}
</style>
<g id="Capa_2" class="st0">
	
		<image style="display:inline;overflow:visible;" width="319" height="150" xlink:href="../ringside-logo.png"  transform="matrix(0.3135 0 0 0.3135 0 23)">
	</image>
</g>
<g id="Capa_1">
	<g>
		<g>
			<g>
				<path class="st6" d="M50,69.2c-7.1,0-13.9-3.4-18.2-9.1H3.1c-1.4,0-2.5-1.1-2.5-2.5V35.2c0-1.4,1.1-2.5,2.5-2.5H32
					c4.3-5.6,11-8.9,18-8.9s13.7,3.3,18,8.9h28.9c1.4,0,2.5,1.1,2.5,2.5v22.5c0,1.4-1.1,2.5-2.5,2.5H68.2
					C63.9,65.8,57.1,69.2,50,69.2z"/>
				<path class="st10" d="M50,24.4c7.2,0,13.7,3.5,17.7,8.9h29.2c1,0,1.8,0.8,1.8,1.8v22.5c0,1-0.8,1.8-1.8,1.8H67.9
					c-4,5.5-10.5,9.1-17.9,9.1S36.2,65,32.1,59.5h-29c-1,0-1.8-0.8-1.8-1.8V35.2c0-1,0.8-1.8,1.8-1.8h29.2
					C36.3,27.9,42.8,24.4,50,24.4 M50,23.1c-7.1,0-13.9,3.3-18.3,8.9H3.1c-1.7,0-3.1,1.4-3.1,3.1v22.5c0,1.7,1.4,3.1,3.1,3.1h28.4
					c4.4,5.7,11.3,9.1,18.5,9.1s14.1-3.4,18.5-9.1h28.4c1.7,0,3.1-1.4,3.1-3.1V35.2c0-1.7-1.4-3.1-3.1-3.1H68.3
					C63.9,26.5,57.1,23.1,50,23.1L50,23.1z"/>
			</g>
			<circle class="st12" cx="50" cy="46.5" r="20.3"/>
			<g>
				<path class="st12" d="M9.3,36.8l0.3,1.1l0.1,2.2v2.8l-0.1,1.7c-0.1,0.4-0.2,0.8-0.3,1.2c-0.3,0.4-0.5,0.6-0.8,0.8l0.5,0.5
					c0.4,0.6,0.6,1.5,0.6,2.9v7.3H7.1v-8.1l0-0.5c-0.1-0.1-0.2-0.3-0.3-0.3l-0.3-0.1H6.3l-0.1,0v9H3.6V35.7h3.8L8.5,36
					C8.8,36.1,9.1,36.4,9.3,36.8z M6.7,38.6l-0.3-0.1H6.2v6.6l0.1,0h0.1l0.3,0L7,44.9l0.1-0.3v-5.3l0-0.4l-0.1-0.2L6.7,38.6z"/>
				<path class="st12" d="M11.1,35.7h2.6v21.6h-2.6V35.7z"/>
				<path class="st12" d="M21,35.7v21.6h-2.3l-1.5-11.1h-0.1l0.1,11.1h-2.4V35.7h2.4l1.4,10.8h0.1V35.7H21z"/>
				<path class="st12" d="M26.8,35.9c0.6,0.1,1.1,0.5,1.3,1.4c0.1,0.6,0.2,1.1,0.2,1.4l0,4.5h-2.6V39l-0.1-0.2l-0.2-0.2l-0.2-0.1
					l-0.2,0.1l-0.1,0.2l-0.1,14.7l0,0.5l0.1,0.2l0.2,0.1l0.1,0.1l0.2-0.1l0.2-0.2l0.1-0.3v-5h-0.4v-2.8h3v11h-1.1l-0.4-1.2
					c-0.4,0.9-1.1,1.4-1.9,1.4l-0.3,0l-1.2-0.2c-0.8-0.5-1.2-1.4-1.2-2.9V40l0.1-2.2c0-0.2,0.1-0.6,0.2-1c0.2-0.3,0.4-0.6,0.7-0.8
					c0.3-0.2,0.6-0.3,1-0.3l1.1-0.1L26.8,35.9z"/>
				<path class="st12" d="M76.6,35.8c0.7,0.2,1.1,0.6,1.2,1.3l0.2,1.4l0,4.7h-2.6v-3.7l0-0.5l-0.1-0.3l-0.2-0.1H75l-0.2,0l-0.1,0.2
					l-0.1,0.3v4.2c0,0.3,0.1,0.4,0.3,0.6l0.3,0.3l1.6,1.3c0.8,0.6,1.2,1.5,1.2,2.5l0,5.2c0,1,0,1.7-0.1,2.2l-0.2,1
					c-0.1,0.3-0.4,0.6-0.7,0.8l-1,0.2l-2.6-0.1l-0.8-0.4c-0.2-0.3-0.4-0.6-0.5-0.9L72,54.5v-6.1h2.6v5.2l0,0.5l0.1,0.2l0.2,0.1
					l0.1,0l0.2-0.1l0.1-0.2l0.1-0.4v-5.3l-0.2-0.5l-0.3-0.4l-1.7-1.3c-0.8-0.6-1.2-1.6-1.2-2.9v-3.5c0-1,0-1.7,0.1-2.2l0.2-1
					c0.2-0.4,0.5-0.6,0.8-0.8l1-0.2l0.9,0L76.6,35.8z"/>
				<path class="st12" d="M79.4,35.7H82v21.6h-2.6V35.7z"/>
				<path class="st12" d="M89.7,36.8l0.2,1L90,54.4l-0.2,1.4c-0.1,0.3-0.2,0.6-0.4,0.9l-0.8,0.4l-1.4,0.2h-3.2V35.7l4.1,0l0.9,0.2
					C89.2,36.1,89.5,36.4,89.7,36.8z M87.1,38.6l-0.5-0.1v16h0.3l0.2-0.1l0.2-0.2l0.1-15l0-0.4l-0.1-0.2L87.1,38.6z"/>
				<path class="st12" d="M96,44.1v2.8h-1.6v7.6H96v2.9h-4.2V35.7H96v2.8h-1.6v5.5H96z"/>
			</g>
			<path class="st10" d="M61.6,40.8v-5c0-3.2-2.6-5.8-5.8-5.8h-17v16v16.7h6.8h1.9V52.4v-3.2h5.1v3.2v10.2h3.1h5.8v-5.8v-4.4v-0.7
				c0-2.5-1.6-4.7-3.9-5.5C60,45.5,61.6,43.4,61.6,40.8z M47.6,37h5.1v6.4h-5.1V37z"/>
		</g>
		<path class="st6" d="M67.9,66c0-1.2,1-2.2,2.2-2.2c1.2,0,2.2,1,2.2,2.2c0,1.2-1,2.2-2.2,2.2C68.9,68.2,67.9,67.2,67.9,66z
			 M70.1,67.7c0.9,0,1.7-0.7,1.8-1.7c0-0.9-0.7-1.7-1.6-1.8c-1,0-1.8,0.7-1.8,1.6C68.3,66.9,69.1,67.7,70.1,67.7z"/>
		<path class="st6" d="M69.7,67.1c-0.2,0-0.3,0-0.5,0c0-0.8,0-1.6,0-2.4c0,0,0.1,0,0.1,0c0.4,0,0.8,0,1.2,0c0.3,0,0.5,0.2,0.6,0.5
			c0.1,0.3,0,0.6-0.2,0.8c0.1,0.2,0.2,0.4,0.2,0.5c0,0.2,0.1,0.4,0.1,0.6c-0.1,0-0.3,0-0.4,0c0,0-0.1-0.1-0.1-0.1
			c0-0.1,0-0.3-0.1-0.4c0-0.2-0.2-0.3-0.4-0.4c-0.5-0.1-0.5-0.1-0.5,0.4C69.7,66.8,69.7,66.9,69.7,67.1z M69.7,65.2
			c0,0.2,0,0.4,0,0.5c0.2,0,0.5,0,0.7,0c0.2,0,0.2-0.1,0.2-0.3c0-0.1,0-0.2-0.2-0.3C70.2,65.2,70,65.2,69.7,65.2z"/>
	</g>
</g>
</svg>
