<?xml version="1.0" encoding="utf-8"?>
<!-- Generator: Adobe Illustrator 23.0.2, SVG Export Plug-In . SVG Version: 6.00 Build 0)  -->
<svg version="1.1" xmlns="http://www.w3.org/2000/svg" xmlns:xlink="http://www.w3.org/1999/xlink" x="0px" y="0px"
	 viewBox="0 0 100 90" style="enable-background:new 0 0 100 90;" xml:space="preserve">
<style type="text/css">
	.st0{display:none;opacity:0.44;}
	.st1{display:inline;}
	.st2{fill:#FF00FF;}
	.st3{fill:#FF0000;}
	.st4{display:inline;fill:#FFFFFF;}
	.st5{display:inline;fill:#FF00FF;}
	.st6{fill:#202020;}
	.st7{fill:#F3C95E;}
	.st8{fill-rule:evenodd;clip-rule:evenodd;}
	.st9{fill-rule:evenodd;clip-rule:evenodd;fill:#202020;}
	.st10{fill:#F83B3B;}
	.st11{fill:#FFFF00;}
	.st12{fill:#FFFFFF;}
	.st13{fill:#C41230;}
	.st14{fill:#231F20;}
	.st15{fill-rule:evenodd;clip-rule:evenodd;fill:#1B1918;}
	.st16{fill-rule:evenodd;clip-rule:evenodd;fill:#F83B3B;}
	.st17{fill:#1B1918;}
</style>
<g id="Capa_2" class="st0">
</g>
<g id="Capa_1">
	<g>
		<g>
			<polygon class="st17" points="54.7,41.8 62.5,33.7 62.5,26.9 49.7,26.9 49.7,33.4 44.7,37.7 44.7,35.8 44.7,26.9 34.1,26.9 
				5,26.9 11.3,35.8 18.1,35.8 18.1,56.7 28.7,56.7 28.7,35.8 34.1,35.8 34.1,56.7 44.7,56.7 44.7,48.4 46.4,46.9 49.7,50.3 
				49.7,56.7 62.5,56.7 62.5,49.9 62.4,49.9 62.5,49.8 			"/>
			<path class="st17" d="M91,41.7l4-5.6l-4.5-9.2H73.5h-3.6h-5.6v7.3l-7.2,7.6l7.2,7.4v7.5h9.3h16.9l4.6-9.2L91,41.7z M84.9,33.5
				l1.3,2.6l0,0l-1.5,2.8H73.5v-5.4H84.9z M73.5,44.7H85l1.3,2.8l-1.4,2.6H73.5V44.7z"/>
		</g>
		<g>
			<polygon class="st17" points="9.4,58.7 10.1,60.2 11.7,60.4 10.6,61.5 10.8,63.1 9.4,62.3 8,63.1 8.3,61.5 7.2,60.4 8.7,60.2 			
				"/>
			<polygon class="st17" points="16.1,58.7 16.8,60.2 18.3,60.4 17.2,61.5 17.5,63.1 16.1,62.3 14.6,63.1 14.9,61.5 13.8,60.4 
				15.4,60.2 			"/>
			<polygon class="st17" points="22.8,58.7 23.5,60.2 25.1,60.4 24,61.5 24.2,63.1 22.8,62.3 21.4,63.1 21.7,61.5 20.6,60.4 
				22.1,60.2 			"/>
			<polygon class="st17" points="29.6,58.7 30.3,60.2 31.9,60.4 30.8,61.5 31,63.1 29.6,62.3 28.2,63.1 28.5,61.5 27.3,60.4 
				28.9,60.2 			"/>
			<polygon class="st17" points="36.2,58.7 36.9,60.2 38.5,60.4 37.4,61.5 37.6,63.1 36.2,62.3 34.8,63.1 35.1,61.5 34,60.4 
				35.5,60.2 			"/>
			<g>
				<path class="st17" d="M41.3,59.3h3.5v0.9h-1.2V63h-1.1v-2.8h-1.2V59.3z"/>
				<path class="st17" d="M45,61.2c0-0.6,0.2-1.1,0.5-1.4c0.3-0.3,0.8-0.5,1.4-0.5c0.6,0,1.1,0.2,1.4,0.5c0.3,0.3,0.5,0.8,0.5,1.4
					c0,0.4-0.1,0.8-0.2,1.1c-0.1,0.3-0.4,0.5-0.6,0.6c-0.3,0.2-0.6,0.2-1,0.2c-0.4,0-0.8-0.1-1-0.2c-0.3-0.1-0.5-0.3-0.7-0.6
					C45.1,62,45,61.6,45,61.2z M46.2,61.2c0,0.4,0.1,0.6,0.2,0.8s0.3,0.2,0.6,0.2c0.2,0,0.4-0.1,0.6-0.2c0.1-0.2,0.2-0.4,0.2-0.9
					c0-0.3-0.1-0.6-0.2-0.8c-0.1-0.2-0.3-0.2-0.6-0.2c-0.2,0-0.4,0.1-0.6,0.2C46.2,60.5,46.2,60.8,46.2,61.2z"/>
				<path class="st17" d="M49.5,59.3h1.9c0.4,0,0.7,0.1,0.9,0.3c0.2,0.2,0.3,0.5,0.3,0.8c0,0.4-0.1,0.7-0.3,0.9
					c-0.2,0.2-0.6,0.3-1,0.3h-0.6V63h-1.2V59.3z M50.6,60.9h0.3c0.2,0,0.4,0,0.5-0.1c0.1-0.1,0.1-0.2,0.1-0.3c0-0.1,0-0.2-0.1-0.3
					c-0.1-0.1-0.2-0.1-0.4-0.1h-0.3V60.9z"/>
				<path class="st17" d="M55,59.3h1.1v1.4l1.2-1.4h1.5l-1.4,1.4l1.4,2.3h-1.4l-0.8-1.5l-0.6,0.6V63H55V59.3z"/>
				<path class="st17" d="M59.3,59.3h1.1V63h-1.1V59.3z"/>
				<path class="st17" d="M61.3,59.3h1.1l1.4,2.1v-2.1h1.1V63h-1.1l-1.4-2v2h-1.1V59.3z"/>
				<path class="st17" d="M67.5,61.7v-0.8h1.8v1.6c-0.3,0.2-0.6,0.4-0.9,0.5c-0.3,0.1-0.6,0.1-0.9,0.1c-0.4,0-0.8-0.1-1.1-0.2
					c-0.3-0.2-0.5-0.4-0.6-0.7c-0.2-0.3-0.2-0.6-0.2-1c0-0.4,0.1-0.8,0.3-1.1c0.2-0.3,0.4-0.5,0.7-0.7c0.3-0.1,0.6-0.2,1-0.2
					c0.4,0,0.7,0,0.9,0.1c0.2,0.1,0.4,0.2,0.5,0.3c0.1,0.2,0.2,0.4,0.3,0.6l-1.1,0.2c0-0.1-0.1-0.2-0.2-0.3
					c-0.1-0.1-0.2-0.1-0.4-0.1c-0.3,0-0.5,0.1-0.6,0.3c-0.1,0.2-0.2,0.5-0.2,0.8c0,0.4,0.1,0.7,0.2,0.9c0.2,0.2,0.4,0.3,0.6,0.3
					c0.1,0,0.3,0,0.4-0.1c0.1,0,0.2-0.1,0.4-0.2v-0.3H67.5z"/>
				<path class="st17" d="M71.6,59.3h2.1c0.4,0,0.6,0.1,0.8,0.3c0.2,0.2,0.3,0.4,0.3,0.7c0,0.2-0.1,0.4-0.2,0.6
					c-0.1,0.1-0.2,0.2-0.4,0.2c0.3,0.1,0.5,0.2,0.6,0.3c0.1,0.2,0.2,0.4,0.2,0.6c0,0.2,0,0.4-0.1,0.5c-0.1,0.2-0.2,0.3-0.4,0.4
					c-0.1,0.1-0.2,0.1-0.4,0.1c-0.3,0-0.4,0.1-0.5,0.1h-2V59.3z M72.8,60.8h0.5c0.2,0,0.3,0,0.4-0.1c0.1-0.1,0.1-0.2,0.1-0.3
					c0-0.1,0-0.2-0.1-0.3c-0.1-0.1-0.2-0.1-0.4-0.1h-0.5V60.8z M72.8,62.2h0.6c0.2,0,0.3,0,0.4-0.1c0.1-0.1,0.1-0.2,0.1-0.3
					c0-0.1,0-0.2-0.1-0.3c-0.1-0.1-0.2-0.1-0.4-0.1h-0.6V62.2z"/>
				<path class="st17" d="M75.5,61.2c0-0.6,0.2-1.1,0.5-1.4c0.3-0.3,0.8-0.5,1.4-0.5c0.6,0,1.1,0.2,1.4,0.5c0.3,0.3,0.5,0.8,0.5,1.4
					c0,0.4-0.1,0.8-0.2,1.1c-0.1,0.3-0.4,0.5-0.6,0.6c-0.3,0.2-0.6,0.2-1,0.2c-0.4,0-0.8-0.1-1-0.2c-0.3-0.1-0.5-0.3-0.7-0.6
					S75.5,61.6,75.5,61.2z M76.7,61.2c0,0.4,0.1,0.6,0.2,0.8c0.1,0.2,0.3,0.2,0.6,0.2c0.2,0,0.4-0.1,0.6-0.2s0.2-0.4,0.2-0.9
					c0-0.3-0.1-0.6-0.2-0.8c-0.1-0.2-0.3-0.2-0.6-0.2c-0.2,0-0.4,0.1-0.6,0.2C76.7,60.5,76.7,60.8,76.7,61.2z"/>
				<path class="st17" d="M79.5,59.3h1.3l0.7,1.1l0.6-1.1h1.2l-1.2,1.8l1.3,1.9h-1.3l-0.7-1.2L80.6,63h-1.3l1.3-1.9L79.5,59.3z"/>
				<path class="st17" d="M83.8,59.3h1.1V63h-1.1V59.3z"/>
				<path class="st17" d="M85.8,59.3h1.1l1.4,2.1v-2.1h1.1V63h-1.1l-1.4-2v2h-1.1V59.3z"/>
				<path class="st17" d="M91.9,61.7v-0.8h1.8v1.6c-0.3,0.2-0.6,0.4-0.9,0.5c-0.3,0.1-0.6,0.1-0.9,0.1c-0.4,0-0.8-0.1-1.1-0.2
					c-0.3-0.2-0.5-0.4-0.6-0.7c-0.2-0.3-0.2-0.6-0.2-1c0-0.4,0.1-0.8,0.3-1.1c0.2-0.3,0.4-0.5,0.7-0.7c0.3-0.1,0.6-0.2,1-0.2
					c0.4,0,0.7,0,0.9,0.1c0.2,0.1,0.4,0.2,0.5,0.3c0.1,0.2,0.2,0.4,0.3,0.6l-1.1,0.2c0-0.1-0.1-0.2-0.2-0.3
					c-0.1-0.1-0.2-0.1-0.4-0.1c-0.3,0-0.5,0.1-0.6,0.3c-0.1,0.2-0.2,0.5-0.2,0.8c0,0.4,0.1,0.7,0.2,0.9c0.2,0.2,0.4,0.3,0.6,0.3
					c0.1,0,0.3,0,0.4-0.1c0.1,0,0.2-0.1,0.4-0.2v-0.3H91.9z"/>
			</g>
		</g>
	</g>
</g>
</svg>
