<?xml version="1.0" encoding="utf-8"?>
<!-- Generator: Adobe Illustrator 23.0.2, SVG Export Plug-In . SVG Version: 6.00 Build 0)  -->
<svg version="1.1" xmlns="http://www.w3.org/2000/svg" xmlns:xlink="http://www.w3.org/1999/xlink" x="0px" y="0px"
	 viewBox="0 0 100 90" style="enable-background:new 0 0 100 90;" xml:space="preserve">
<style type="text/css">
	.st0{display:none;opacity:0.44;}
	.st1{display:inline;}
	.st2{fill:#FF00FF;}
	.st3{fill:#FF0000;}
	.st4{display:inline;fill:#FFFFFF;}
	.st5{display:inline;fill:#FF00FF;}
	.st6{fill:#202020;}
	.st7{fill:#F3C95E;}
	.st8{fill-rule:evenodd;clip-rule:evenodd;}
	.st9{fill-rule:evenodd;clip-rule:evenodd;fill:#202020;}
	.st10{fill:#F83B3B;}
	.st11{fill:#FFFF00;}
	.st12{fill:#FFFFFF;}
	.st13{fill:#C41230;}
	.st14{fill:#231F20;}
	.st15{fill-rule:evenodd;clip-rule:evenodd;fill:#1B1918;}
	.st16{fill-rule:evenodd;clip-rule:evenodd;fill:#F83B3B;}
	.st17{fill:#1B1918;}
	.st18{fill:#008833;}
	.st19{fill:#D60812;}
	.st20{fill:#ED1C24;}
</style>
<g id="Capa_2" class="st0">
</g>
<g id="Capa_1">
	<g>
		<g>
			<path class="st17" d="M100,41.7V30v-1.2h-1H1H0V30v11.4v1.2h1h5.4V60v1.2h1h13h1V60V42.6H24V60h0v1.2h0h1h37.1h1V60v-7.9h7.9h1
				V60v1.2h1h13h1V60v-7.9h7.8h1v-1.2v-8H99h1h0L100,41.7L100,41.7z M95.9,41.7h-1v1.2v8h-7.8h-1v1.2V60h-13v-7.9v-1.2v-9.3h-1h-1
				v9.3h-7.9h-1v1.2V60H25V42.6v-1.2h-1h-2.5h-1h0v1.2h0V60h-13V41.4h0h-1H1V30h98v11.7H95.9z"/>
			<polygon class="st17" points="93,55.8 89.7,55.9 89.7,56.7 90.8,56.7 90.9,60.2 91.9,60.2 91.9,56.7 93,56.7 			"/>
			<polygon class="st17" points="96.1,55.8 95.6,58.8 94.9,55.8 93.3,55.8 93.4,60.2 94.3,60.2 94.2,56.5 95.1,60.2 96,60.2 
				96.8,56.5 96.8,60.2 97.8,60.2 97.8,55.7 			"/>
		</g>
		<g>
			<path class="st17" d="M79.1,30.7c-0.6,0-1.2,0-1.7,0c-0.5,0-1,0.2-1.4,0.2c-0.3,0-0.6-0.1-0.9-0.2c-0.1,0-0.3,0-0.4,0
				c0,0.1,0,0.1,0,0.2c0.3,0.2,0.7,0.3,1,0.4c0.3,0.1,0.7,0.3,1.1,0.3c0.5,0.1,1.1,0.2,1.6,0.2c0.6,0,1.2,0,1.8,0
				c0.3,0,0.5-0.1,0.8-0.1c0.1,0,0.3,0,0.4,0c0.9-0.1,1.7-0.2,2.6-0.3c0.7-0.1,1.3-0.3,1.9-0.4c0-0.1,0-0.2,0-0.2
				c-0.1-0.1-0.3-0.1-0.4-0.2c-0.2,0-0.4,0.1-0.5,0c-0.1,0-0.2-0.2-0.2-0.4c0-0.1,0.2-0.2,0.3-0.3c0,0,0,0,0,0h-3.5
				c0.1,0,0.2,0.2,0.2,0.4c0,0.5-0.4,0.3-0.8,0.5c-0.2-0.1-0.5-0.3-0.5-0.4c0-0.5,0.4-0.4,0.6-0.4c0,0,0.1,0,0.1,0h-1.4
				C79.6,30.5,79.4,30.7,79.1,30.7z M83.7,30.2c-0.4,0.6-1.4,0.8-1.9,0.4C82,30.1,83.2,29.8,83.7,30.2z"/>
			<path class="st17" d="M45.1,52.7C45,52.6,45,52.4,45,52.3c0.1-0.5-0.4-1-0.8-0.8c0.2-0.6,0.1-1.1-0.2-1.6
				c-0.4-0.8-0.8-1.7-1.2-2.5c-0.1-0.3-0.2-0.6-0.6-0.7c-0.1,0-0.3-0.3-0.3-0.4c0.1-0.7-0.3-1.2-0.4-1.7c-0.3-1-0.8-1.8-1.3-2.6
				c-0.1-0.2-0.2-0.5-0.5-0.3c0-0.1-0.2-0.3-0.1-0.4c0.1-0.5,0-1.1-0.4-1.4c0,0.6-0.1,1.2-0.1,1.8c0,1.2,0.1,2.3,0.2,3.5
				c0,0.3,0,0.5,0,0.8c0,1.1,0,2.3,0,3.4c0,0.2-0.1,0.4,0.2,0.3c0.2-0.1,0.3,0,0.2,0.3c-0.3,0.5-0.4,1-0.3,1.6
				c0.1,0.2,0.1,0.4,0.3,0.4c0.1,0,0.3,0.2,0.2,0.3c0,0.2-0.2,0.3-0.3,0.5c-0.1-0.1-0.3-0.1-0.3-0.3c-0.1-0.3-0.3-0.4-0.5-0.3
				c-0.5,0-1,0-1.5,0c-0.1,0-0.2,0.1-0.3,0.2c-0.2,0.1-0.3,0.3-0.5,0.5c-0.2-0.2-0.3-0.5-0.4-0.6c-0.4-0.2-0.3-0.6-0.3-1
				c0.1-0.4,0-0.8,0-1.2c0-0.4,0-0.8,0-1.2c0-0.2,0-0.4,0-0.6c0-0.9,0-1.8,0-2.8c0-0.5,0.1-1.1-0.2-1.6c-0.1-0.1,0-0.5,0-0.6
				c0.3-0.3,0.2-0.4,0-0.6c-0.1-0.1-0.2-0.4-0.3-0.6c0.2-0.1,0.4,0,0.5-0.1c0-0.1,0-0.3,0-0.3c-0.3,0-0.6,0.1-0.8,0
				c-0.3-0.2-0.2-0.5-0.1-0.8c0.1-0.1,0-0.3,0.1-0.4c0.1-0.2,0.2-0.4,0.5-0.3c0.1,0,0.2-0.1,0.4-0.1c-0.1-0.1-0.1-0.3-0.2-0.4
				c-0.3-0.4-0.3-0.9,0-1.2c0.2-0.3,0.2-1,0-1.1c-0.4-0.2-0.2-0.3,0-0.5c0.1-0.1,0.2-0.2,0.2-0.3c0-0.6,0-1.2,0-1.9
				c0-0.4-0.1-0.7-0.1-1.1c0.1-0.6-0.3-1.4-0.9-1.6c0,0,0,0,0,0c0,0,0,0,0,0c-0.1,0.4-0.1,0.8-0.2,1.2c0,0.1-0.2,0.2-0.3,0.2
				c-0.1,0-0.2-0.2-0.3-0.2c0.1-0.1,0.2-0.2,0.2-0.3c0.1-0.1,0.1-0.2,0.2-0.4c0-0.3,0.1-0.5,0.4-0.5c0,0,0,0,0,0c0,0,0,0,0,0
				c-0.1-0.2-0.2-0.4-0.3-0.4c-0.6,0-1.3-0.1-1.7,0.4c-0.5-0.1-1-0.2-1.4-0.3c-0.1,0.2-0.1,0.4-0.2,0.5c-0.1,0.1-0.3,0-0.3,0
				c-0.1-0.7-0.4-0.5-0.8-0.4c-0.2,0-0.4-0.1-0.6-0.2c-0.3-0.2-0.5-0.4-0.7,0.1c0,0-0.1,0.1-0.1,0.1c-0.3-0.4-0.7,0-1.1-0.1
				c-0.2,0-0.5-0.1-0.7-0.1c-0.4,0-0.8,0.1-1.2,0.2c-1.1,0.1-2.2,0.2-3.3,0.2c-2.3,0.1-4.5,0.1-6.8,0.2c-0.6,0-1.1,0-1.7,0
				c-1.1,0.1-2.3,0.1-3.4,0.2c-0.6,0-1.3,0-1.9,0c-1,0-2.1,0.1-3.1,0.2c-0.9,0-1.9,0.1-2.8,0.1c-0.1,0-0.3,0.2-0.3,0.3
				c0,0.8,0,1.6,0.1,2.4c0,0.5,0.1,1,0.1,1.5c0,0.7,0,1.3,0,2c0,0.6,0,0.6,0.5,0.6c1.8-0.1,3.7-0.1,5.5-0.1c0.2,0,0.3,0.1,0.4,0.4
				c0,1,0.1,2.1,0.1,3.1c0,1,0,1.9,0,2.9C9,47,9,48.3,9,49.5c0,0.4,0,0.7,0,1.1c0.7,0.1,0.6,0.1,0.8,0.8c0.2,0.7,0.4,1.4,0.7,2.2
				c0,0.1,0,0.3-0.1,0.4c-0.1-0.1-0.3-0.1-0.4-0.2c-0.1-0.1-0.2-0.3-0.2-0.5c0-0.5-0.3-0.7-0.6-0.9c-0.1-0.1-0.2-0.1-0.3,0
				C9,52.3,8.9,52.5,9,52.6c0.1,0.6,0.3,1.2,0,1.8c0,0.1,0,0.2,0,0.3c0,0.4,0,0.8,0,1.2c0,0.2-0.1,0.5-0.1,0.7
				c0,0.3,0.1,0.5,0.2,0.8c0,0.2,0,0.5,0.1,0.6c0.3,0.2,0.5,0.4,0.9,0.1c0.1-0.1,0.2-0.2,0.3-0.2c0.8,0,1.5,0.1,2.3,0.1
				c0.2,0,0.4,0,0.7,0c0.2,0,0.5-0.1,0.7-0.2c0.6,0,1.2,0,1.8,0c0.7,0,1.5-0.1,2.2,0c0.3,0,0.3-0.1,0.3-0.3c0-0.3,0-0.6,0-0.9
				c0-0.8,0-1.7,0-2.5c0,0,0,0,0,0c0-0.1-0.1-0.3-0.3-0.2c-0.1,0-0.2-0.1-0.3-0.1c0,0,0-0.1,0.1-0.1c0.1,0,0.3-0.1,0.4-0.1
				c0-0.5,0-0.9,0-1.3c0-0.4,0-0.7,0-1.1c0-0.3,0-0.6,0-0.9c0-0.5-0.1-1-0.1-1.5c0-0.8,0.1-1.7,0.1-2.5c0-0.8-0.3-1.7,0-2.5
				c0-0.1,0-0.1,0-0.2c0-0.9-0.1-1.8-0.1-2.7c0-0.4-0.1-0.8-0.1-1.2c0-0.3,0.1-0.4,0.3-0.4c0.9,0,1.8,0.1,2.7,0.1c0.7,0,1.3,0,2-0.1
				c0.7-0.1,1.4-0.1,2-0.2c0.3,0,0.5-0.1,0.8-0.1c0.1,0,0.4,0.1,0.4,0.3c0.2,0.5,0.1,1,0.1,1.6c0,1.3,0,2.6,0.1,4
				c0,0.4-0.1,0.9-0.1,1.3c0,0.7,0.3,1.4,0,2.1c0,0.1,0,0.1,0,0.2c0.2,0.8,0.2,1.7,0.2,2.5c0,1.3,0.1,2.6,0.1,3.9
				c0,0.5-0.1,1-0.1,1.4c0,0.3,0.1,0.5,0.1,0.8c-0.1,0.5,0,0.7,0.5,0.7c0.5,0,0.9,0,1.4,0c0.4,0,0.7,0.1,1.1,0.1
				c0.6,0,1.3-0.2,1.9-0.2c0.5,0,1,0.1,1.5,0.1c0.9,0,1.9,0,2.8,0c0.4,0,0.9-0.1,1.3-0.1c0.5,0,0.9-0.1,1.4-0.1c0.5,0,1,0.1,1.4,0.1
				c0.4,0,0.7,0,1.1,0c0.7,0,1.3-0.1,2-0.1c0.3,0,0.6-0.3,0.8-0.2c0.2,0.1,0.4,0.2,0.7,0.1c0.2,0,0.5-0.1,0.7,0
				c0.3,0.1,0.3,0,0.4-0.3c0.1-0.7,0.3-1.4,0.5-2.2c-0.1-0.1-0.2-0.3-0.3-0.6C45.8,53.7,45.6,53.1,45.1,52.7z M17.4,50.2
				c0.1,0.3,0.3,0.7,0.4,1C17,50.9,17,50.7,17.4,50.2z M16.3,56.9c-0.1,0.2-0.2,0.4-0.3,0.6c0,0.1-0.2,0-0.3,0c0,0,0-0.1-0.1-0.1
				c0.1-0.1,0.2-0.3,0.3-0.4c-0.3-0.4-0.1-0.8,0.2-1.2c0.1-0.1,0.2-0.1,0.3-0.1c0,0.3,0,0.6,0,0.9C16.3,56.7,16.3,56.8,16.3,56.9z
				 M16.5,55.6c-0.1-0.2-0.3-0.3-0.3-0.4c0-0.1,0.1-0.2,0.2-0.3c0.1,0.1,0.2,0.2,0.3,0.3C16.7,55.2,16.6,55.4,16.5,55.6z M17.6,56.5
				c-0.1,0.1-0.1,0.3-0.1,0.5c-0.1,0.2-0.1,0.4-0.2,0.4c-0.2,0-0.4,0-0.5-0.1c-0.1,0,0-0.3,0-0.4c0.2-0.3,0.4-0.6,0.6-0.9
				c0-0.1,0.2-0.1,0.2,0c0.1,0,0.1,0.2,0.1,0.3C17.7,56.3,17.7,56.4,17.6,56.5z M18,54.2c0.2,0.2,0.2,0.9,0,1c-0.1,0-0.2,0-0.3-0.1
				c-0.1-0.1-0.1-0.3-0.1-0.4C17.7,54.5,17.9,54.4,18,54.2z M34.7,33.7c0.1-0.1,0.3-0.1,0.4-0.1c0,0.1,0,0.2,0.1,0.2
				c-0.2,0.1-0.3,0.2-0.5,0.3C34.8,34,34.7,33.7,34.7,33.7z M35.1,37.1c-0.2,0.2-0.2,0.3-0.3,0.4c-0.1-0.1-0.2-0.2-0.3-0.4
				c0,0,0.1-0.3,0.2-0.3C34.8,36.9,34.9,37,35.1,37.1z M34.1,33.5c0.1,0,0.2,0.2,0.4,0.4c-0.2,0.3-0.4,0.5-0.5,0.7
				c-0.1-0.1-0.2-0.3-0.2-0.4C33.9,33.9,33.7,33.5,34.1,33.5z M33.6,35c0.1,0,0.2,0.2,0.3,0.3c0,0.1-0.1,0.2-0.2,0.4
				c-0.1-0.2-0.2-0.4-0.3-0.5C33.4,35.1,33.6,34.9,33.6,35z M32.8,32.6c0.2,0,0.4,0.1,0.5,0.1c0,0.1,0,0.3-0.1,0.3
				c-0.2,0-0.4-0.1-0.5-0.1C32.8,32.8,32.8,32.7,32.8,32.6z M32.7,33.9c0.1-0.1,0.3,0,0.4,0c0,0.1,0,0.1,0,0.2
				c-0.1,0.1-0.3,0.3-0.4,0.4c0,0-0.1-0.1-0.1-0.1C32.6,34.2,32.6,34,32.7,33.9z M31,42.7c0.1,0,0.2,0.1,0.3,0.2
				c-0.1,0.2-0.2,0.3-0.3,0.3c-0.1,0-0.2-0.2-0.2-0.3C30.8,42.9,30.9,42.7,31,42.7z M27.8,34.9c0-0.1,0.2-0.3,0.3-0.3
				c0.3,0,0.5,0.5,0.4,1.1C28,35.6,27.8,35.4,27.8,34.9z M29,45.4c0-0.2,0-0.4-0.3-0.5c-0.1,0-0.1-0.4-0.1-0.5
				c-0.1-0.1-0.2-0.2-0.3-0.3c-0.2-0.7-0.4-1.4-0.5-2.2c-0.1-0.4,0-0.8,0.3-1.1c0.3-0.2,0.5-0.1,0.7,0.1c0.1,0.2,0,0.5,0,0.7
				c0,0.4-0.1,0.8,0,1.1c0.2,1.1,0.6,2.1,0.9,3.1c0,0.1,0,0.3,0,0.5C29.1,46.2,29,45.8,29,45.4z M29.5,47.9c0-0.1,0.1-0.3,0.2-0.5
				c-0.1,0-0.2-0.1-0.2-0.2c-0.1-0.2-0.1-0.4-0.1-0.6c0,0,0.2-0.1,0.2-0.1c0.1,0.2,0.3,0.3,0.4,0.5c0.1,0.3,0.2,0.6,0.3,0.9
				c0,0.2,0,0.4,0,0.6c0,0-0.1,0-0.1,0C30,48.5,29.8,48.2,29.5,47.9z M30.9,50.7c-0.2-0.5-0.4-1-0.6-1.4c0-0.1,0-0.2,0.1-0.2
				c0,0,0.2,0,0.2,0c0.2,0.4,0.3,0.8,0.5,1.3C31,50.4,31,50.5,30.9,50.7z M31,45.1c0.1-0.2,0.3-0.3,0.5-0.5c0,0,0.2,0.1,0.3,0.3
				c-0.2,0.2-0.4,0.4-0.6,0.5C31.2,45.4,31,45.1,31,45.1z M31.3,56.4c0-0.2,0.2-0.3,0.3-0.5c0.1,0.3,0.2,0.6,0.4,1
				C31.4,57,31.2,56.8,31.3,56.4z M32.1,54.6c0.1-0.5,0.3-0.5,0.5-0.3c0.1,0.1,0.1,0.3,0.1,0.4C32.5,54.6,32.3,54.6,32.1,54.6z
				 M33.7,57.5c-0.4-0.3-0.5-0.5,0-0.8C33.7,57,33.7,57.2,33.7,57.5z M34.1,46.3c-0.1,0.2-0.3,0.3-0.4,0.3c-0.6,0-0.8-0.4-1-0.8
				c0-0.1,0-0.2,0-0.3c0.1,0,0.2,0,0.2,0c0.2,0.2,0.4,0.3,0.6,0c0.1-0.1,0.4,0,0.5,0.1C34,45.8,34.1,46.1,34.1,46.3z M34.4,42.8
				c-0.1-0.2-0.2-0.4-0.2-0.5c0-0.1,0.1-0.2,0.2-0.4c0.1,0.1,0.3,0.2,0.3,0.3C34.7,42.4,34.6,42.6,34.4,42.8z M34.9,46.3
				c0.1-0.1,0.2-0.3,0.3-0.3c0.1,0,0.2,0.1,0.5,0.3c-0.2,0.2-0.3,0.3-0.4,0.3C35.1,46.5,35,46.4,34.9,46.3z M37.4,56.1
				c-0.1,0.2-0.2,0.3-0.4,0.6c-0.1,0-0.2,0-0.3-0.1c0,0.1,0,0.2,0,0.3c0,0.1-0.1,0.2-0.2,0.3c-0.1-0.1-0.1-0.2-0.2-0.3
				c-0.1-0.1-0.1-0.3-0.2-0.4c0,0.1-0.1,0.1-0.1,0.2c-0.2-0.1-0.3-0.1-0.5-0.2c0,0,0-0.3,0.1-0.3c0.3,0,0.7-0.2,0.9,0
				c0.3,0.2,0.5,0.2,0.6-0.3c0-0.1,0.1-0.2,0.3-0.3C37.4,55.7,37.5,55.9,37.4,56.1z M38.7,55.6c0-0.1,0.1-0.2,0.2-0.5
				c0.1,0.2,0.2,0.4,0.2,0.5c0,0.1-0.1,0.2-0.2,0.3C38.8,55.8,38.7,55.7,38.7,55.6z M39.2,56.5c0,0.2,0,0.5,0.1,0.8
				C38.7,57,38.8,56.8,39.2,56.5z M40,54.7c-0.1,0-0.1,0-0.2,0c-0.1-0.4-0.3-0.9-0.4-1.3c0.1-0.1,0.1-0.1,0.2-0.2
				c0.1,0.1,0.3,0.2,0.4,0.4C40.2,54,40.2,54.4,40,54.7z M40,51.5c-0.1,0-0.2-0.2-0.4-0.3c0,0,0.1-0.1,0.1-0.1
				c0-0.3-0.2-0.6,0.2-0.6c0.1,0,0.3,0.4,0.3,0.6C40.3,51.2,40.1,51.5,40,51.5z M40.2,45.4c0-0.1,0.1-0.3,0.2-0.5
				c0.1,0.1,0.3,0.1,0.4,0.2c0.1,0.2,0.2,0.5,0.2,0.8C41,46,40.9,46,40.9,46.1C40.6,45.8,40.4,45.6,40.2,45.4z M40.9,57
				c-0.1-0.2-0.3-0.3-0.4-0.5c0-0.1,0.1-0.2,0.2-0.5c0.2,0.3,0.3,0.4,0.3,0.6C41.1,56.7,40.9,56.9,40.9,57z M43.9,54.3
				c-0.1,0-0.3,0-0.3,0c0-0.2,0-0.4,0-0.6c0.1,0,0.2,0,0.3,0C43.9,53.8,43.9,54,43.9,54.3z"/>
			<path class="st17" d="M34.7,31.9C34.7,31.9,34.8,31.9,34.7,31.9C34.8,31.9,34.8,31.9,34.7,31.9C34.8,31.9,34.7,31.9,34.7,31.9
				C34.7,31.9,34.7,31.9,34.7,31.9z"/>
			<path class="st17" d="M71.6,34.8c0.8-0.3,0.9-1.2,1.3-2c-0.6,0-0.8-0.4-0.9-0.9c0-0.1,0-0.3,0-0.4c0.1,0,0.3-0.1,0.4,0
				c0.2,0.2,0.4,0.4,0.7,0.7c0.1-0.2,0.2-0.4,0.3-0.6c0.1-0.3,0-0.5-0.3-0.4c-0.5,0-1,0.1-1.5,0.1c-0.1,0-0.2,0-0.3,0
				c-0.6-0.1-1.3,0.1-1.9-0.1c-0.1,0-0.2,0.1-0.2,0.1c-0.1,0-0.2,0.1-0.3,0.1c-0.4,0-0.9,0-1.3,0c-0.1,0-0.2,0.2-0.2,0.3
				c0.2,0.3,0.4,0.4,0.4,0.6c0,0.1-0.2,0.3-0.3,0.5c0-0.1,0-0.1,0-0.2c-0.4-0.1-0.7-0.2-1.1-0.3c-0.2-0.5-0.2-0.6-0.8-0.7
				c0,0-0.1,0-0.1,0c-0.3,0-0.5-0.1-0.8-0.1c0,0.1,0,0.1,0,0.2c0.2,0,0.4,0,0.6,0c0.1,0.3,0.2,0.5,0.2,0.8c0,0.1,0,0.2-0.1,0.2
				c0,0-0.1,0-0.2,0c-0.2-0.2-0.4-0.4-0.6-0.6c-0.3,0.3-0.6,0.3-0.9,0c-0.3-0.2-0.6-0.3-1-0.4c-0.1,0-0.3,0-0.3,0
				c-0.3,0.6-0.7,0.4-1.1,0c-0.2,0.6-0.5,0.7-0.9,0.2c0,0-0.1,0-0.2,0c-0.5,0-1,0-1.6,0c-0.3,0-0.6,0-0.8,0.1
				c-0.5,0.1-0.5,0.2-0.4,0.8c0,0.1,0,0.3,0,0.4C57.1,33,56.9,33,56.9,33c-0.1-0.1-0.1-0.3-0.1-0.4c0-0.1,0-0.1,0.1-0.2
				c0.1-0.5,0-0.7-0.4-0.7c-1,0-2.1,0.1-3.1,0.1c-1.1,0-2.2,0-3.3,0c-0.2,0-0.4,0.1-0.6,0.1c-0.8,0-1.5,0.1-2.3,0.1
				c-0.9,0-1.7,0-2.6,0c-0.4,0-0.8,0-1.2,0.1c-0.2,0.1-0.4,0.5-0.5,0.8c-0.1,0.2-0.1,0.4-0.2,0.7c-0.3-0.4-0.5-0.7-0.8-1.1
				c0,0,0.1-0.1,0.1-0.1c0.2,0.1,0.3,0.1,0.6,0.3c-0.2-0.3-0.1-0.6-0.4-0.6c-0.6,0-0.9,0.2-0.9,0.7c-0.1,0.4,0.1,0.7,0.5,0.7
				c-0.1,0.2-0.1,0.4-0.2,0.7c-0.2-0.2-0.3-0.4-0.4-0.5c-0.2,0.1-1-0.3-1-0.6c0-0.5-0.4-0.5-0.7-0.7c-0.3-0.1-0.4,0-0.4,0.3
				c0,1,0,2,0,3c0,0.8,0.1,1.5,0.1,2.3c0,0.9,0.5,1.5,0.9,2.1c0.2,0.3,0.3,0.5,0.2,0.7c0.2,0.4,0.3,0.7,0.4,1c0,0.1,0.1,0.2,0.2,0.3
				c0.1,0.3,0.4,0.5,0.4,0.8c0.1,0.5,0.3,0.5,0.6,0.3c0.1,0.5,0.1,0.9,0.5,1.2c0.1,0.1,0.1,0.3,0.1,0.4c0,0.2,0,0.3,0.1,0.6
				c0.2-0.1,0.4-0.2,0.5-0.4c0,0.2,0.1,0.3,0.1,0.4c-0.3,0.4,0,0.7,0,1.1c0,0.4,0.2,0.7,0.4,1.1c0.2,0.4,0.5,0.8,0.6,1.2
				c0.1,0.6,0.3,1,0.7,1.3c0.1,0.1,0.2,0.3,0.3,0.5c0.1,0.2,0.1,0.5,0.2,0.7c0.1,0.3,0.4,0.5,0.5,0.8c0.1,0.5,0.4,0.8,0.6,1.2
				c0.1,0.1,0.1,0.4,0.2,0.6c0.1,0.3,0.2,0.7,0.4,1.1c0.3-0.8,0.5-1.4,0.8-2c0.2-0.5,0.4-1,0.4-1.6c0-0.7-0.1-1.4-0.1-2
				c0-0.3-0.1-0.6-0.1-0.8c0.1-0.6-0.4-1.2,0.2-1.7c0.1-0.1,0.2-0.2,0.2-0.2c0.1,0.1,0.2,0.2,0.2,0.3c0,0.4,0.1,0.9,0.1,1.3
				c0,0.2,0.1,0.3,0.2,0.5c0,0,0.1,0,0.1-0.1c0-0.2,0-0.4,0-0.6c0.1-1.3,0.4-2.7,0.3-4.1c0-0.1,0-0.2,0-0.2c0.1,0,0.1,0,0.1,0
				c0.2,0.1,0.5,0.3,0.6,0.3c0.2-0.1,0.2-0.4,0.3-0.6c0.2-0.3,0.5-0.5,0.7-0.3c-0.3,0.5-0.5,0.9-0.8,1.4c0,0.1,0,0.1,0,0.2
				c0,0.4,0,0.9-0.1,1.3c-0.1,0.6-0.2,1.3-0.3,1.9c-0.1,0.6-0.2,1.2-0.2,1.8c0.1,0,0.2,0,0.2,0c0.2-0.3,0.5-0.2,0.6,0.1
				c0.1,0.2,0.2,0.5,0.1,0.7c-0.6,1-0.6,2.2-1,3.2c-0.2,0.5-0.2,1-0.4,1.4c-0.2,0.6-0.4,1.1-0.6,1.7c-0.1,0.3,0,0.5,0.3,0.5
				c0.8,0.1,1.6-0.1,2.4,0.1c0.7,0.1,1.4,0,2.2,0c0.1,0,0.3-0.1,0.4-0.3c0.4-0.8,0.6-1.6,1.1-2.3c0.3-0.5,0.6-1.1,0.8-1.7
				c0.1-0.6,0.5-0.9,0.8-1.3c0.1,0.2,0.1,0.4,0,0.6c-0.4,1-0.8,2-1.3,3c-0.2,0.5-0.4,1-0.6,1.5c0,0.1,0.1,0.4,0.1,0.4
				c0.4,0,0.7,0,1.1-0.1c0.1,0,0.2-0.4,0.3-0.6c0.1-0.5,0.4-0.9,0.2-1.4c0.1-0.2,0.2-0.4,0.3-0.5c0,0,0.1,0,0.1,0.1
				c0,0.4,0.1,0.8,0.1,1.1c0.4-0.2,0.8-0.5,1.2-0.7c0.4-0.1,0.8-0.1,1.2-0.1c0.2,0,0.3,0.2,0.2,0.5c-0.2,0.4-0.5,0.7-0.8,1
				c-0.1,0.1-0.3,0-0.4,0c0-0.1,0-0.3,0-0.4c0.1-0.1,0.2-0.2,0.3-0.3c0.1-0.1,0.2,0,0.3-0.1c-0.1-0.1-0.1-0.2-0.2-0.3
				c-0.3,0.1-0.6,0.1-0.9,0.3c-0.3,0.2-0.6,0.4-0.9,0.6c-0.1,0.1-0.1,0.3-0.1,0.4c0,0,0.1,0.1,0.1,0.1c0.1-0.1,0.3-0.3,0.4-0.4
				c0.1-0.1,0.3-0.1,0.4-0.1c0,0.2,0,0.3,0,0.5c0,0.1-0.1,0.2-0.1,0.4c0.9,0,1.7,0,2.5,0c0.1,0,0.2-0.2,0.2-0.4c0-0.8,0-1.6,0-2.4
				c0-0.8,0-1.7,0-2.5c0-1.2-0.1-2.4-0.1-3.6c0-0.1,0.1-0.3,0.1-0.3c0.6,0,1.1-0.1,1.7-0.1c0.6,0,1.2,0.1,1.8,0
				c0.6-0.1,1.1-0.2,1.5,0.1c0.5-0.1,0.9-0.3,1.4-0.4c0.4,1.2,1.1,0.2,1.6,0.3c0-0.2,0.1-0.4,0.1-0.5c0.3-0.8,0.3-1.6,0.2-2.4
				c0-0.3,0-0.7,0.2-0.8c0.4-0.2,0.2-0.5,0.3-0.8c0-0.1-0.1-0.2,0-0.3c0-0.5-0.1-0.6-0.5-0.5c-0.2,0.1-0.4,0.2-0.5,0.1
				c-0.8,0-1.6-0.1-2.3-0.2c0,0.2,0,0.4,0,0.6c0,0-0.1,0-0.1,0.1c-0.1-0.2-0.3-0.3-0.3-0.4c-0.3,0-0.5,0-0.7-0.1
				c-0.5-0.2-1.1,0.1-1.3,0.7c-0.2,0.5-0.5,0.9-1.1,1.1c0-0.2,0-0.4,0-0.6c0-0.2,0.1-0.4,0.2-0.6c0.1-0.6,0.1-0.6-0.4-0.6
				c-0.2,0-0.3,0-0.5,0c-0.1,0-0.3,0.1-0.4,0.2c-0.2,0.4-0.5,0.6-0.7,1.1c-0.3,0.8-0.7,1.6-1,2.4c-0.1,0.4-0.3,0.5-0.7,0.4
				c0.5-1,0.8-2,1.4-2.9c0.3-0.6,0.4-1,0.1-1.6c-0.1-0.2-0.3-0.3-0.4-0.5c0.1-0.2,0.4-0.4,0.4-0.7c0.1-0.5,0.1-1,0-1.5
				c-0.1-0.6,0.1-1,0.6-1c1,0,2.1-0.1,3.1-0.1c0.7,0,1.5,0,2.2,0c0.8,0,1.7-0.1,2.5-0.1c0.4,0,0.8,0.1,1.2,0.1
				c0.3,0,0.6-0.1,0.8-0.5c0.2-0.6,0.5-1.3,0.8-1.8C71.8,35.7,72,35.3,71.6,34.8z M40.2,33.7c-0.1,0.3-0.5,0.4-0.8,0.1
				c0.2-0.2,0.3-0.3,0.5-0.4c0.1,0,0.2-0.1,0.3,0C40.2,33.5,40.2,33.6,40.2,33.7z M41.8,35.8c-0.2-0.1-0.3-0.2-0.5-0.3
				c0-0.1,0-0.1,0-0.2c0.2-0.1,0.3-0.2,0.5-0.1c0.1,0,0.2,0.2,0.2,0.4C42,35.6,41.9,35.8,41.8,35.8z M42.8,35c0,0.1-0.3,0.1-0.3,0
				c-0.1-0.3-0.2-0.7-0.3-1c0-0.1,0.1-0.3,0.2-0.3c0.1,0,0.3,0.1,0.4,0.2c0.1,0.1,0.1,0.3,0.2,0.4c0.2-0.4,0.4-0.7,0.6-1.1
				c0.1-0.2,0.3-0.1,0.3,0.1c0,0.2,0,0.6-0.2,0.7C43.4,34.5,42.9,34.5,42.8,35z M43.6,36.5c-0.1-0.1-0.2-0.2-0.2-0.3
				c0-0.1,0.1-0.2,0.2-0.4c0.1,0.1,0.2,0.2,0.3,0.3C43.8,36.3,43.7,36.4,43.6,36.5z M48.8,42.6c-0.1,0-0.2,0-0.3,0
				c0-0.2,0-0.4-0.1-0.6c0.1,0,0.3,0,0.4,0C48.9,42.2,48.9,42.4,48.8,42.6z M49.6,40.5c-0.1,0-0.2-0.2-0.2-0.3
				c0-0.1,0.1-0.2,0.2-0.4c0.1,0.2,0.2,0.3,0.3,0.5C49.8,40.3,49.6,40.5,49.6,40.5z M52.7,32.3c0.4,0.4,1.1,0.4,1.2,1.2
				c0,0.2,0,0.4-0.1,0.6c0,0.1-0.3,0-0.5-0.1c-0.3-0.1-0.6-0.3-0.7-0.4C52.7,33.2,52.7,32.8,52.7,32.3
				C52.6,32.4,52.7,32.3,52.7,32.3z M52.7,35c0.2,0.1,0.3,0.2,0.5,0.3c0,0.1,0,0.1,0,0.2c-0.1,0-0.3,0.1-0.4,0.1
				c-0.1,0-0.1-0.2-0.2-0.4C52.6,35.1,52.7,35,52.7,35z M52.7,37c0.1,0.1,0.2,0.2,0.2,0.3c0,0.1-0.1,0.2-0.2,0.4
				c-0.1-0.2-0.2-0.4-0.2-0.5C52.5,37.2,52.6,37.1,52.7,37z M50.8,34.5c0-0.3,0.4-0.6,0.6-0.5c0.4,0.1,0.6,0.6,0.5,1.3
				c0.2,0.1,0.3,0.2,0.6,0.4c-0.2,0.1-0.3,0.3-0.4,0.3c-0.1,0-0.3-0.2-0.3-0.4c-0.1-0.4-0.4-0.5-0.6-0.6
				C51,34.8,50.7,34.8,50.8,34.5z M50.1,34.5c0-0.3-0.1-0.5-0.1-0.8c0-0.1,0.1-0.3,0.2-0.4c0.1,0.1,0.2,0.2,0.2,0.3
				C50.6,34.3,50.5,34.5,50.1,34.5z M50.4,42c0-0.5,0-1,0-1.6c0.1,0.1,0.3,0.2,0.4,0.3C50.9,41.1,50.8,41.7,50.4,42z M50.8,35.6
				c0,0-0.1,0-0.1,0c-0.1-0.2-0.2-0.3-0.2-0.5c0-0.1,0.2-0.1,0.3-0.2c0,0,0.1,0.1,0.1,0.1C50.9,35.2,50.8,35.4,50.8,35.6z
				 M51.2,36.4c0,0.1-0.2,0.1-0.2,0c-0.1-0.1-0.1-0.3-0.1-0.3c0.1-0.2,0.3-0.5,0.5-0.8C51.7,35.9,51.4,36.1,51.2,36.4z M51.8,47.3
				c-0.1,0-0.2-0.2-0.2-0.3c0-0.1,0.1-0.3,0.2-0.3c0.1,0,0.2,0.1,0.3,0.2c0,0.1,0.1,0.2,0.1,0.2C52,47.2,51.9,47.3,51.8,47.3z
				 M51.5,37.9c0-0.1,0.1-0.2,0.2-0.5c0.2,0.2,0.3,0.4,0.4,0.5c-0.1,0.1-0.2,0.3-0.3,0.3C51.6,38.2,51.5,38,51.5,37.9z M52.2,36.9
				c-0.2,0-0.4,0-0.5-0.1c-0.1-0.2-0.1-0.4-0.2-0.7c0.1,0,0.1-0.1,0.2-0.1c0.2,0.1,0.4,0.2,0.5,0.4C52.2,36.5,52.2,36.7,52.2,36.9z
				 M52.2,38.6c0.1,0,0.2,0,0.3-0.1c0,0.2,0,0.4,0.1,0.6c-0.1,0-0.2,0-0.3,0C52.3,39,52.2,38.8,52.2,38.6z M55.3,43.8
				c-0.6,0.8-1.1,1.5-1.7,2.3c-0.1,0.2-0.4,0.3-0.6,0.3c-0.3-0.2-0.6-0.3-0.6-0.8c0.1,0,0.2,0,0.3,0.1c0.5,0.2,0.8,0,1.1-0.5
				c0.5-0.7,1-1.4,1.5-2c0.1-0.1,0.3,0,0.4-0.1c0,0.1,0,0.1,0,0.2C55.7,43.4,55.5,43.6,55.3,43.8z M56.3,40.8
				c0.3-0.5-0.1-0.7-0.1-1.1c0,0-0.1,0-0.1,0c0,0.1-0.1,0.3-0.1,0.4c-0.1,0.1-0.2,0.2-0.3,0.1c-0.1,0-0.2-0.3-0.1-0.3
				c0.1-0.4,0.3-0.8,0.5-1.1c0.2-0.3,0.4-0.3,0.6,0.1c0.3,0.6,0.4,1.3,0.4,2c0,0.1-0.2,0.3-0.3,0.2C56.5,41.1,56.3,40.8,56.3,40.8z
				 M56.6,41.7c0.4-0.2,0.6,0,0.6,0.2c0,0.1-0.1,0.2-0.2,0.3C56.8,42.1,56.7,42,56.6,41.7z M57.3,54c0,0.1-0.1,0.2-0.2,0.4
				c-0.1-0.1-0.3-0.2-0.3-0.3c0-0.5,0.1-0.9,0.2-1.4c0.1,0,0.2,0,0.3,0c0,0.2,0.1,0.4,0.1,0.6C57.3,53.4,57.3,53.7,57.3,54z
				 M57,51.3c-0.3-0.3-0.1-0.5,0.3-0.7c0,0.2,0.1,0.5,0.1,0.7C57.2,51.3,57,51.3,57,51.3z M68.1,46.5c-0.2,0.2-0.3,0.3-0.5,0.3
				c0,0-0.2-0.2-0.2-0.3c0-0.1,0.1-0.3,0.2-0.3C67.7,46.3,67.9,46.4,68.1,46.5z M66.3,43.1c0.1-0.1,0.3-0.1,0.4-0.1
				c0.3,0.1,0.5,0.3,0.9,0.5c-0.4,0.4-0.8,0.7-1.1,1c0,0-0.1-0.1-0.1-0.1c0-0.1,0-0.2,0-0.3c0.2-0.2,0.2-0.4,0-0.7
				C66.2,43.4,66.2,43.2,66.3,43.1z M63.8,43.5c0.1,0.2,0.2,0.3,0.3,0.5c0,0-0.2,0.3-0.2,0.2c-0.1-0.1-0.2-0.3-0.4-0.5
				C63.6,43.6,63.7,43.6,63.8,43.5z M63,46c0,0.1-0.2,0.2-0.2,0.4c-0.1-0.1-0.3-0.3-0.5-0.5c0.1-0.2,0.2-0.4,0.3-0.5
				C62.7,45.6,62.9,45.8,63,46z M62,44.7c0.1-0.1,0.2-0.1,0.3,0c0.1,0,0.1,0.2,0.1,0.3c-0.3,0.4-0.2,1-0.3,1.5
				c0,0.1-0.2,0.2-0.2,0.4c-0.1-0.1-0.2-0.1-0.2-0.2C61.4,46.2,61.6,45,62,44.7z M60.3,45.5c0.2,0.1,0.3,0.2,0.3,0.3
				c0.2,0.2,0.3,0.3,0.4,0.5c0,0.1,0,0.3-0.1,0.4c-0.1,0.1-0.3,0.1-0.4,0c-0.1-0.1-0.2-0.2-0.3-0.4c-0.1-0.2-0.1-0.4-0.1-0.5
				C60.1,45.7,60.2,45.6,60.3,45.5z M57.9,38.3c0-0.3-0.1-0.7,0.3-0.7c0.1,0,0.3,0.2,0.3,0.3C58.5,38.3,58.3,38.5,57.9,38.3z
				 M58.3,39.7c0.1-0.1,0.2-0.3,0.3-0.3c0.1,0,0.2,0.2,0.4,0.3c-0.2,0.2-0.3,0.4-0.4,0.3C58.5,40,58.4,39.8,58.3,39.7z M58.9,44.1
				c0,0.1-0.2,0.2-0.3,0.1c-0.1,0-0.1-0.2-0.1-0.3c0-0.2,0-0.4,0.1-0.6c0-0.2,0.1-0.3,0.2-0.5c0.1,0.1,0.2,0.3,0.3,0.4
				c0,0.1,0,0.2,0,0.3c0,0,0,0,0,0C59,43.8,59,44,58.9,44.1z M59.5,36.2c0-0.1,0.2-0.3,0.2-0.4c0.1,0.2,0.2,0.5,0.3,0.7
				C59.6,36.7,59.5,36.6,59.5,36.2z M62.8,33.2c0,0-0.1,0-0.1,0.1c-0.1-0.1-0.2-0.3-0.3-0.4c-0.1-0.1-0.1-0.3-0.1-0.4
				c0,0,0.2-0.1,0.3-0.1c0.1,0.1,0.2,0.2,0.3,0.3C62.9,32.8,62.8,33,62.8,33.2z M71.3,33.8c0,0,0.2-0.1,0.3-0.2
				c0.1,0.2,0.1,0.4,0.2,0.6c-0.1,0-0.2,0.1-0.2,0.1C71.4,34.1,71.3,33.9,71.3,33.8z"/>
			<path class="st17" d="M82.5,32.7c0,0-0.1,0-0.1,0c-0.5,0.1-1,0.3-1.5,0.1c-0.2-0.1-0.4,0-0.6,0c0.3,0.5,0.2,0.9-0.1,1.1
				c-0.1,0.1-0.4,0-0.4-0.1c-0.1-0.3-0.1-0.7-0.1-1.1c0,0,0,0-0.1,0c-0.3,0-0.6-0.1-0.6,0.5c-0.3,0-0.7,0.1-1,0.1c0-0.1,0-0.2,0-0.3
				c0.1-0.3-0.1-0.5-0.3-0.5c-0.2,0-0.3,0.1-0.5,0.1c-0.2,0-0.4,0.1-0.5,0.1c-0.3-0.1-0.7-0.3-1.1-0.5c0.1,0.2,0.2,0.3,0.2,0.4
				c0,0.1,0.1,0.3,0,0.4c-0.1,0.1-0.2,0.1-0.4,0.1c-0.3-0.1-0.4-0.3-0.4-0.6c0-0.1-0.1-0.3-0.2-0.4c-0.2-0.1-0.4-0.2-0.6-0.2
				c-0.1,0-0.2,0-0.4,0c0,0.1,0.1,0.3,0.1,0.4c0.1,0.3,0.3,0.6,0.5,0.8c0.2,0.3,0.1,0.8,0.5,0.8c0.1,0,0.1,0.2,0.1,0.4
				c0,0.1-0.2,0.2-0.2,0.2c-0.3-0.1-0.5,0-0.7,0.2c-0.1,0.1-0.3,0.1-0.4,0c-0.1,0-0.1-0.3-0.1-0.4c0.1-0.1,0.2-0.2,0.4-0.2
				c0.1,0,0.2,0,0.4,0c-0.3-0.5-0.5-1-0.8-1.5c-0.4,0.6-0.5,1.2-0.2,1.9c0.1,0.3,0.2,0.6,0.3,0.9c-0.6,0-0.9-0.3-0.9-0.9
				c-0.1,0.1-0.2,0.1-0.2,0.2c-0.4,1.1-0.9,2.2-1.3,3.2c0,0.1,0.1,0.4,0.2,0.4c0.6,0,1.3,0,1.9-0.1c0.3,0,0.6-0.1,0.9-0.1
				c0,0.4,0,0.7,0.1,1.1c0,0.3,0.1,0.6,0.1,0.9c0,0.3,0,0.6,0,0.9c0,0.4,0.1,0.8,0.1,1.3c0,0.4-0.1,0.7-0.1,1.1c0,1,0.1,2,0.1,3
				c0,0.1-0.1,0.3,0,0.4c0,0.7,0.1,1.5,0.1,2.2c0,1,0,2,0,3c0,1.4,0,2.8,0,4.2c0,0.2,0,0.4,0.2,0.4c0.5,0,1-0.1,1.5-0.1
				c1,0,2,0,3.1,0c0.8,0,1.7-0.1,2.5-0.1c0.6,0,1.1-0.1,1.7-0.1c0.3,0,0.4-0.1,0.4-0.5c0-1.2,0-2.3-0.1-3.5
				c-0.1-1.2,0.2-2.4-0.1-3.6c0-0.1,0-0.2,0-0.3c0.2-0.5,0.2-0.9-0.1-1.3c0.2,0,0.3,0,0.5,0c0.2,0,0.3,0.1,0.5,0.1
				c0.7,0,1.3-0.1,2-0.2c0.3,0,0.5-0.1,0.8,0c0.3,0,0.7,0.2,1,0.1c0.6-0.1,1.2-0.2,1.9-0.1c0.6,0.1,1.2-0.1,1.8-0.1
				c0.5,0,0.6-0.2,0.6-0.7c0-1-0.1-2-0.1-3c0-0.4,0-0.8-0.1-1.1c0-0.2-0.2-0.4-0.4-0.4c-0.8,0-1.6,0.1-2.4,0.2c-1.4,0-2.7,0-4.1,0
				c-0.1,0-0.3,0-0.4,0c-0.4,0-0.9-0.1-1.3-0.1c-0.1,0-0.2-0.3-0.2-0.4c0-0.2,0.1-0.5,0.1-0.7c0-0.8-0.1-1.5-0.1-2.3
				c0-0.2,0.2-0.5,0.3-0.5c1.2-0.1,2.4-0.1,3.5-0.1c0.2,0,0.3,0,0.5,0c0-0.2-0.1-0.5-0.1-0.7c0-0.1-0.1-0.2-0.1-0.3
				c0-0.1,0.1-0.3,0.1-0.4c0.1,0.1,0.2,0.2,0.3,0.3c0.1,0.4,0.2,0.7,0.3,1.1c0.1,0,0.1,0,0.2,0c0-0.2,0-0.4,0-0.6
				c0-0.3-0.1-0.5-0.1-0.8c-0.1-0.4-0.2-0.9-0.3-1.3c0-0.2-0.1-0.5-0.4-0.2c-0.1,0.1-0.3,0.1-0.4,0.1c0-0.1,0-0.2-0.1-0.3
				c0.2,0,0.3,0,0.5-0.1c0,0,0.1,0,0.1,0c0-0.2-0.1-0.4-0.1-0.6c-0.2,0.1-0.3,0.2-0.4,0.2c-0.2-0.6-0.4-1.1-0.6-1.6
				c-0.2-0.4-0.4-0.4-0.7-0.1c-0.1,0.1-0.1,0.1-0.2,0.1c-0.4,0-0.7,0-1.1,0C84.1,32.7,83.3,32.7,82.5,32.7z M79.4,35.6
				c-0.1,0.3,0.1,0.8-0.3,0.8c-0.5,0-0.6-0.2-0.6-0.8c0-0.3,0-0.6,0.4-0.6C79.2,35.1,79.5,35.2,79.4,35.6z M81,34.9
				c-0.1-0.1-0.2-0.2-0.3-0.4c0-0.1,0.2-0.3,0.2-0.3c0.1,0.1,0.3,0.2,0.5,0.4C81.2,34.8,81.1,35,81,34.9z"/>
			<path class="st17" d="M89.3,35.5c0.4,0.5,0.6,1.1,1,1.6c0.1,0.2,0.3,0.4,0.5,0.4c0.8,0,1.7,0,2.6,0c-0.2-2.1-0.4-4.1-0.6-6.2
				c-1.4,0.3-2.9,0.6-4.4,0.9c0.1,0.3,0.1,0.5,0.2,0.8C88.7,33.9,88.7,34.8,89.3,35.5z"/>
			<path class="st17" d="M93.6,34.9c0.1,0.6,0,1.3,0.1,1.9c0,0.3,0.1,0.7,0.3,0.7c0.5,0.1,1,0.1,1.5,0.1c0.2,0,0.5-0.1,0.7-0.1
				c0.4,0,0.5-0.2,0.5-0.6c0-0.8-0.1-1.7-0.1-2.5c0-1,0-1.9,0-2.9c0-0.2,0-0.4-0.1-0.5c-0.1-0.1-0.3-0.3-0.4-0.2c-1,0.2-2,0.4-3,0.6
				c0.1,0.2,0.2,0.4,0.2,0.6C93.4,32.9,93.5,33.9,93.6,34.9z"/>
			<path class="st17" d="M89.5,37.6c0,0.1,0.2,0,0.4,0c-0.2-0.4-0.4-0.7-0.5-0.9c-0.1,0-0.1,0.1-0.2,0.1
				C89.3,37,89.4,37.3,89.5,37.6z"/>
			<path class="st17" d="M87.9,33.3c0.1-0.4,0-0.6-0.2-0.9c0-0.1-0.2,0-0.4,0C87.5,32.8,87.7,33,87.9,33.3z"/>
			<path class="st17" d="M87.2,31.6c0.1,0,0.2-0.1,0.3-0.2c-0.1-0.1-0.2-0.2-0.3-0.2c-0.2,0.1-0.4,0.2-0.7,0.4
				C86.8,31.6,87,31.6,87.2,31.6z"/>
		</g>
	</g>
</g>
</svg>
