<?xml version="1.0" encoding="utf-8"?>
<!-- Generator: Adobe Illustrator 23.0.2, SVG Export Plug-In . SVG Version: 6.00 Build 0)  -->
<svg version="1.1" xmlns="http://www.w3.org/2000/svg" xmlns:xlink="http://www.w3.org/1999/xlink" x="0px" y="0px"
	 viewBox="0 0 100 90" style="enable-background:new 0 0 100 90;" xml:space="preserve">
<style type="text/css">
	.st0{display:none;opacity:0.44;}
	.st1{display:inline;}
	.st2{fill:#FF00FF;}
	.st3{fill:#FF0000;}
	.st4{display:inline;fill:#FFFFFF;}
	.st5{display:inline;fill:#FF00FF;}
	.st6{fill:#202020;}
	.st7{fill:#F3C95E;}
	.st8{fill-rule:evenodd;clip-rule:evenodd;}
	.st9{fill-rule:evenodd;clip-rule:evenodd;fill:#202020;}
	.st10{fill:#F83B3B;}
	.st11{fill:#FFFF00;}
	.st12{fill:#FFFFFF;}
</style>
<g id="Capa_2" class="st0">
</g>
<g id="Capa_1">
	<g>
		<path class="st9" d="M53.1,70.8l0.1,3.3l-4.6-4.5c-0.2,0.2-1.7,1.1-1.7,1.3v1h-0.9v11.6c0,0.2,1,2.8,1.2,3.2
			c0.2,0.6,0.4,1.1,0.6,1.6c0.2,0.5,0.5,1.2,0.6,1.7h0.2V73.7C49,74,53,77.9,53,78l0,12l0.3,0c0.1-0.1,2.4-6.5,2.4-6.7V72h-0.9
			l0-2.5L53.1,70.8L53.1,70.8z M69.3,71.8h-1.1V82c0,0.1,2.5,2.7,2.8,2.8v-9c0.4,0.3,2,3.2,2.2,3.3l2-3.4l0,0v9
			c0.1,0,2.8-2.8,2.8-2.9V72h-0.7v-2.5c-0.2,0.1-1.2,0.6-1.5,0.8c-0.8,0.4-0.9,0.3-1.2,1.2c-0.2,0.5-0.5,1.1-0.7,1.7
			c-0.2,0.4-0.6,1.4-0.7,1.7h-0.1c-0.1-0.4-0.5-1.3-0.7-1.7c-0.2-0.6-0.4-1.1-0.7-1.7c-0.4-0.9-0.3-0.7-1.1-1.2
			c-0.2-0.2-1.2-0.8-1.4-0.9V71.8L69.3,71.8z M36.1,70.8v1.1l-0.9,0l-0.1,6.7V82c0,0.1,1.2,1.2,1.4,1.4c0.2,0.2,1.4,1.3,1.5,1.3h3.8
			c0.1,0,2.5-2.4,2.6-2.6H38l0-1.5l0.1-3.2h3.8c0.1,0,2.7-2.6,2.9-2.8l-6.7,0l0-1.3v-1.1l6.7,0l-0.1-1.4c-0.1-0.2-1.3-1.2-1.5-1.2
			h-5.5C37.5,69.6,36.1,70.7,36.1,70.8L36.1,70.8z M58.3,70.5l0,1.2h-0.8v10.8c0,0.3,1.3,1.3,1.6,1.5c0.5,0.4,1.5,0.8,2.4,0.8H62
			c1,0,1.9-0.4,2.7-0.7c0.3-0.1,2.1-1.2,2.1-1.4v-11l-0.9,0l0-1.1l0-0.1l-1.6-1.1v12.2c-0.2,0.1-0.5,0.3-0.8,0.4
			c-0.2,0.1-0.7,0.3-1,0.3h-0.2c-0.4,0-0.8-0.1-1.1-0.2c-0.3-0.1-0.7-0.4-1-0.5l0-4l0-8.2L58.3,70.5L58.3,70.5z M23.2,72.1l-0.3,0
			l-0.2,0L28.6,85l5.6-13.1l-1,0l-0.1-2.5c-0.7,0.1-1.5,1-1.8,1.5c-0.4,0.6-0.8,1.7-1,2.5c-0.2,0.8-0.6,1.8-0.9,2.5
			c-0.2,0.6-0.8,2-0.9,2.6c-0.2-0.2-1.7-4.4-2-5.1c-0.4-0.8-0.7-1.7-1.2-2.4c-0.4-0.5-1.2-1.6-1.9-1.6l0,0.9l0.1,1.8H23.2L23.2,72.1
			z M50,0c11.3,0,22.5,6,28.3,15.3c0.3,0.5-0.3,0.8-0.6,0.5C71.7,7.7,61.7,2.6,50,2.6c-10.1,0-19.3,4.1-25.4,10.5
			c-0.7,0.5-1.2-0.2-0.8-0.7C29.9,4.8,38.7,0,50,0L50,0z M78.2,49.7c-5.9,9-16.3,15-28.2,15c-10.6,0-20.1-4.8-26.2-12.4
			c-0.6-0.7,0.3-1.3,0.9-0.6c6.1,6.3,15.2,10.4,25.3,10.4c11.4,0,21.5-5.1,27.5-13C78,48.7,78.5,49,78.2,49.7L78.2,49.7z M50,5.6
			c16.5,0,30,12,30,26.8c0,9.9-6.1,18.6-15.1,23.2c0.2-0.4,0.4-0.7,0.6-1c0.7-1.2,1.4-2.5,2-3.8c1.3-2.5,2.7-5.1,4-7.7
			c0.6-1.3,1.3-2.5,1.9-3.9C74,38,75,36.8,75,35c0-3.1-0.7-6.2-1.9-8c-1.2-1.6-3.4-3.7-5.6-4.3c0.7,1.3,1.1,1.9,1.2,3.9l-8.6,1.6
			c0.2-0.1,1-0.5,1.3-0.7c0.4-0.2,0.7-0.6,1.1-0.8c0.5-0.4,1.4-1.6,1.8-2.2c0.9-1.4,2.1-3.7,4.1-3.7h0.1c0.8,0,1.9,0.6,2.4,1
			c0.6,0.5,1.3,1.3,1.7,1.6c-0.1-0.9-1.6-3.9-2-4.5c-0.7-1-2.2-2.6-3.8-2.6h-0.6c-2.2,0-4.6,1.9-6.9,1.9h-0.9
			c-1.2,0-2.8-0.6-3.9-0.8c-2.8-0.5-5.8-0.5-8.6,0c-1.1,0.2-2.7,0.8-3.9,0.8h-0.9c-2.3,0-4.7-1.9-6.9-1.9h-0.6
			c-1.6,0-3.1,1.6-3.8,2.6c-0.4,0.6-2,3.6-2,4.5c0.5-0.3,1.1-1.1,1.7-1.6c0.5-0.4,1.5-1,2.4-1H32c2.1,0,3.3,2.3,4.1,3.7
			c0.4,0.6,1.3,1.7,1.8,2.2c0.3,0.3,0.7,0.6,1.1,0.8c0.3,0.2,1.1,0.6,1.3,0.7l-8.6-1.6c0.2-1.9,0.5-2.5,1.2-3.9
			c-2.1,0.5-4.4,2.6-5.6,4.3c-1.3,1.8-1.9,4.9-1.9,8c0,1.8,1,2.9,1.6,4.2c0.6,1.3,1.3,2.5,1.9,3.9c1.2,2.6,2.7,5.1,4,7.7
			c0.6,1.3,1.4,2.5,2,3.8c0.2,0.4,0.5,0.9,0.7,1.3C26.3,51.3,20,42.5,20,32.4C20,17.6,33.5,5.6,50,5.6L50,5.6z M61.7,57
			c-3.6,1.4-7.5,2.1-11.7,2.1c-4,0-7.8-0.7-11.2-1.9c-0.8-2.4-1.8-4.8-2.6-7.2c-0.8-2.6-1.8-5.1-2.8-7.7c-0.6-1.6-2.5-6.2-2.5-7.9
			V34c0-0.7,0.5-1.1,1.1-1.1c1.4,0,2.9,1.2,3.3,2.2c0.5,1.4,1.1,2.5,1.8,3.8c0.6,1.3,1.2,2.5,1.8,3.8c0.4,0.7,1.5,3.3,1.9,3.7
			c0-1.2,0.1-2.2,0.1-3.2c0-0.9,0-2.5,0.1-3.2c0.2-1,0-2.2,0.3-3.1c0.3-0.7,0.8-1.6,1.7-1.6h0.7c0.8,0,2.3,0.5,3.1,0.7
			c2.3,0.7,4.7,0.7,6.7,0c0.8-0.2,2.2-0.7,3.1-0.7h0.7c1,0,1.5,0.9,1.7,1.6c0.3,0.9,0.1,2,0.3,3.1c0.1,0.7,0.1,2.4,0.1,3.2
			c0,1.1,0.1,2.1,0.1,3.2c0.4-0.4,1.5-3,1.9-3.7c0.6-1.3,1.2-2.5,1.8-3.8c0.6-1.3,1.2-2.4,1.8-3.8c0.4-1,1.9-2.2,3.3-2.2
			c0.6,0,1.1,0.4,1.1,1.1v0.4c0,1.7-1.9,6.3-2.5,7.9c-0.9,2.5-1.9,5.1-2.8,7.7C63.5,52.4,62.5,54.7,61.7,57L61.7,57z M46.5,32.4
			c-0.4-0.3-0.4-0.7-1.3-0.7c-0.7,0-1.7,0.4-1.7-0.4v-0.1c0-0.5,0.5-0.8,1.1-0.8h0.5C46.1,30.3,46.5,31.2,46.5,32.4L46.5,32.4z
			 M53.9,32.4c0.4-0.3,0.4-0.7,1.3-0.7c0.7,0,1.7,0.4,1.7-0.4v-0.1c0-0.5-0.5-0.8-1.1-0.8h-0.5C54.3,30.3,53.9,31.2,53.9,32.4
			L53.9,32.4z"/>
	</g>
</g>
</svg>
