<?xml version="1.0" encoding="utf-8"?>
<!-- Generator: Adobe Illustrator 23.0.2, SVG Export Plug-In . SVG Version: 6.00 Build 0)  -->
<svg version="1.1" id="Capa_1" xmlns="http://www.w3.org/2000/svg" xmlns:xlink="http://www.w3.org/1999/xlink" x="0px" y="0px"
	 viewBox="0 0 59 24.5" style="enable-background:new 0 0 59 24.5;" xml:space="preserve">
<style type="text/css">
	.st0{fill:#F83B3B;}
	.st1{fill:#F3C95E;}
	.st2{fill:none;stroke:#F3C95E;stroke-width:3;stroke-miterlimit:10;}
	.st3{fill:#FF0000;}
	.st4{fill:#D5A940;}
	.st5{fill:none;stroke:#FFFFFF;stroke-width:2;stroke-miterlimit:10;}
	.st6{fill:#0071BC;}
	.st7{fill:#7B7B7B;}
	.st8{fill:#F7F7F7;}
	.st9{fill:#202020;}
	.st10{stroke:#000000;stroke-width:0.25;stroke-miterlimit:10;}
	.st11{fill:#FFFFFF;}
</style>
<g>
	<g>
		<polygon class="st9" points="36.8,0.1 38.6,3.8 42.6,4.3 39.7,7.2 40.4,11.1 36.8,9.3 33.2,11.1 33.9,7.2 31,4.3 35,3.8 		"/>
		<polygon class="st9" points="45.3,6.4 46.3,8.3 48.4,8.6 46.9,10.1 47.2,12.2 45.3,11.2 43.4,12.2 43.8,10.1 42.2,8.6 44.4,8.3 		
			"/>
		<g>
			<g>
				<path class="st9" d="M13.3,3h4.6v1.9h-0.8v6.3H19V9.3h2.4V13h-8.1v-1.9h0.8V4.9h-0.8V3z"/>
				<path class="st9" d="M22.5,6.4c0.6-0.3,1.8-1,3.1-1c1.7,0,3.9,0.6,3.9,3v2.8h0.9V13h-3.1L27,12.4c-0.5,0.7-1.4,0.9-1.9,0.9
					c-1.4,0-2.8-0.7-2.8-2.4c0-1.6,1.4-2.7,3-2.7c0.9,0,1.4,0.4,1.4,0.5V8.3c0-0.6-0.6-0.8-1.4-0.8c-0.9,0-1.6,0.4-2.1,0.7L22.5,6.4
					z M26.6,11v-0.6c0-0.1-0.3-0.5-0.9-0.5c-0.6,0-0.9,0.3-0.9,0.8c0,0.4,0.4,0.7,0.8,0.7C26.1,11.5,26.5,11.2,26.6,11z"/>
			</g>
			<path class="st9" d="M12,21.8c-1.2,1.3-3.1,2.5-5.5,2.5c-3.8,0-6.4-2.4-6.4-6.5c0-4.1,3.1-6.6,5.5-6.6c1.8,0,2.6,1,2.8,1.2l0.4-1
				h2.8v5.1H8.5c-0.1-1.2-0.6-2.3-1.9-2.3c-1.3,0-2.1,1.6-2.1,3.6c0,1.8,0.9,3.4,2.6,3.4c1.5,0,2.7-1.6,2.9-1.8L12,21.8z"/>
			<path class="st9" d="M12.5,19.5c0-3,2.4-4.7,4.9-4.7c2.8,0,4.9,1.7,5,4.8c0,3-2.2,4.7-4.9,4.7C14.9,24.3,12.4,22.7,12.5,19.5z
				 M18.7,19.6c0-1.3-0.5-2.4-1.3-2.4c-0.7,0-1.2,1-1.2,2.4c0,1.5,0.6,2.4,1.3,2.4C18.3,22,18.7,21,18.7,19.6z"/>
			<path class="st9" d="M28.6,24.1h-5.5v-2.4h0.8v-4.3h-0.8v-2.3h3.8l0.4,1.1c0.6-0.8,1.4-1.4,2.6-1.4c2.8,0,3.3,2.1,3.3,4v3H34v2.4
				h-4.5v-4.9c0-0.6,0.1-1.7-1-1.7c-0.9,0-1.1,0.9-1.1,1.7v2.6h1.3V24.1z"/>
			<path class="st9" d="M34.1,15.1h1v-1.7l3.3-1.1v2.7h1.7v2.3h-1.7v3.2c0,0.6-0.1,1.4,0.6,1.4c0.2,0,0.8-0.2,1.1-0.3v2.3
				c-0.5,0.2-1.8,0.3-2.2,0.3c-2.7,0-2.8-1.5-2.8-3.8v-3.2h-1V15.1z"/>
			<path class="st9" d="M46.3,24.1h-5.1v-2.4H42v-4.3h-0.8v-2.3h3.4l0.5,1.2c0.5-0.9,0.9-1.6,2.8-1.6v3.2c-1.6,0-2.5,0.4-2.5,2v1.9
				h0.9V24.1z"/>
			<path class="st9" d="M48.9,15.8c0.7-0.4,2.3-1.3,3.9-1.3c2.2,0,4.9,0.8,4.9,3.7v3.5h1.1v2.3h-3.9l-0.4-0.8
				c-0.7,0.9-1.8,1.2-2.4,1.2c-1.7,0-3.5-0.9-3.5-3c0-2,1.7-3.3,3.7-3.3c1.1,0,1.7,0.5,1.8,0.6v-0.6c0-0.8-0.7-1-1.7-1
				c-1.1,0-2,0.4-2.7,0.8L48.9,15.8z M54,21.5v-0.7c-0.1-0.1-0.3-0.5-1.1-0.5c-0.7,0-1,0.4-1,1c0,0.5,0.4,0.8,1,0.8
				C53.4,22.1,53.9,21.8,54,21.5z"/>
		</g>
	</g>
</g>
</svg>
