<?xml version="1.0" encoding="utf-8"?>
<!-- Generator: Adobe Illustrator 23.0.2, SVG Export Plug-In . SVG Version: 6.00 Build 0)  -->
<svg version="1.1" id="Layer_1" xmlns="http://www.w3.org/2000/svg" xmlns:xlink="http://www.w3.org/1999/xlink" x="0px" y="0px"
	 viewBox="0 0 512 512" style="enable-background:new 0 0 512 512;" xml:space="preserve">
<style type="text/css">
	.st0{fill:#FFFFFF;}
</style>
<g>
	<g>
		<path class="st0" d="M465.4,69.1L465.4,69.1c0-38.1-30.9-69.1-69.1-69.1C384,0,128,0,115.6,0C77.5,0,46.6,30.9,46.6,69.1v184.4h0
			c0,0.8,0,1.7,0,2.5c0,141.4,93.8,256,209.4,256s209.4-114.6,209.4-256c0-0.8,0-1.7,0-2.5h0V69.1z M388.6,246.4L388.6,246.4
			c0,23.1-18.7,41.8-41.8,41.8c-23.3,0-42.2,18.9-42.2,42.2v29.8c0,23.3,18.9,42.2,42.2,42.2c6.6,0,10.4,7.6,6.4,12.9
			c-52.5,69.2-141.9,69.2-194.4,0c-4-5.3-0.2-12.9,6.4-12.9c23.3,0,42.2-18.9,42.2-42.2v-29.8c0-23.3-18.9-42.2-42.2-42.2
			c-23.1,0-41.8-18.7-41.8-41.8v-59.6c0-24.2,19.6-43.7,43.7-43.7c7.8,0,169.9,0,177.7,0c24.2,0,43.7,19.6,43.7,43.7V246.4z"/>
	</g>
</g>
</svg>
