<?xml version="1.0" encoding="utf-8"?>
<!-- Generator: Adobe Illustrator 23.0.2, SVG Export Plug-In . SVG Version: 6.00 Build 0)  -->
<svg version="1.1" id="Capa_1" xmlns="http://www.w3.org/2000/svg" xmlns:xlink="http://www.w3.org/1999/xlink" x="0px" y="0px"
	 viewBox="0 0 456 456" style="enable-background:new 0 0 456 456;" xml:space="preserve">
<style type="text/css">
	.st0{fill:#FFFFFF;}
</style>
<g>
	<g>
		<path class="st0" d="M345.6,338.9c-29.2,0-53.2,23.6-53.2,53.2c0,29.2,23.6,53.2,53.2,53.2c29.2,0,53.2-23.6,53.2-53.2
			C398.3,362.9,374.8,338.9,345.6,338.9z"/>
	</g>
</g>
<g>
	<g>
		<path class="st0" d="M439.3,84.9c-1,0-2.6-0.5-4.1-0.5H112.6l-5.1-34.3C104.4,27.6,85,10.7,62,10.7H20.5C9.2,10.7,0,19.9,0,31.1
			s9.2,20.5,20.5,20.5H62c2.6,0,4.6,2,5.1,4.6l31.7,216.1c4.1,27.1,27.6,47.6,55.3,47.6h213c26.6,0,49.7-18.9,55.3-45.1l33.3-166.4
			C457.7,97.7,450.6,87,439.3,84.9z"/>
	</g>
</g>
<g>
	<g>
		<path class="st0" d="M215,389.5c-1-28.2-24.6-50.7-52.7-50.7c-29.7,1.5-52.2,26.1-51.2,55.3c1,28.2,24.1,50.7,52.2,50.7h1
			C193.5,443.3,216.6,418.7,215,389.5z"/>
	</g>
</g>
</svg>
