<?xml version="1.0" encoding="utf-8"?>
<!-- Generator: Adobe Illustrator 23.0.2, SVG Export Plug-In . SVG Version: 6.00 Build 0)  -->
<svg version="1.1" id="Layer_1" xmlns="http://www.w3.org/2000/svg" xmlns:xlink="http://www.w3.org/1999/xlink" x="0px" y="0px"
	 viewBox="0 0 512 512" style="enable-background:new 0 0 512 512;" xml:space="preserve">
<style type="text/css">
	.st0{fill:#8B8B8B;}
</style>
<path class="st0" d="M256,512c141.4,0,256-114.6,256-256S397.4,0,256,0S0,114.6,0,256S114.6,512,256,512z M173,239l108-108
	c4.7-4.7,10.8-7,17-7c21.2,0,32.1,25.8,17,41l-91,91l91,91c9.4,9.4,9.4,24.6,0,33.9c-9.4,9.4-24.6,9.4-33.9,0L173,273
	C163.7,263.6,163.7,248.4,173,239L173,239z"/>
</svg>
