<?xml version="1.0" encoding="utf-8"?>
<!-- Generator: Adobe Illustrator 23.0.2, SVG Export Plug-In . SVG Version: 6.00 Build 0)  -->
<svg version="1.1" id="Capa_1" xmlns="http://www.w3.org/2000/svg" xmlns:xlink="http://www.w3.org/1999/xlink" x="0px" y="0px"
	 viewBox="0 0 112.2 112.2" style="enable-background:new 0 0 112.2 112.2;" xml:space="preserve">
<style type="text/css">
	.st0{fill:#FFFFFF;}
</style>
<g>
	<path class="st0" d="M47,46.5c0-4.8-3.3-4.8-3.3-4.8H30.2v10.4h12.7C45,52.1,47,51.4,47,46.5z"/>
	<path class="st0" d="M78.3,52.1c-7.2,0-8.2,7.1-8.2,7.1h15.2C85.4,59.2,85.5,52.1,78.3,52.1z"/>
	<path class="st0" d="M43.7,59.2H30.2v12.4H43c1.9,0,5.6-0.6,5.6-6C48.6,59.2,43.7,59.2,43.7,59.2z"/>
	<path class="st0" d="M56.1,0C25.1,0,0,25.1,0,56.1c0,31,25.1,56.1,56.1,56.1c31,0,56.1-25.1,56.1-56.1C112.2,25.1,87.1,0,56.1,0z
		 M68.1,36.2h19.2v5.7H68.1V36.2z M58.5,66.2c0,14.2-14.8,13.7-14.8,13.7H19.5V33.4h24.2c7.4,0,13.1,4.1,13.1,12.4
		c0,8.3-7.1,8.8-7.1,8.8C59.1,54.6,58.5,66.2,58.5,66.2z M94.3,65.4H70.2c0,8.6,8.2,8.1,8.2,8.1c7.7,0,7.5-5,7.5-5H94
		c0,13.3-15.9,12.4-15.9,12.4c-19.1,0-17.8-17.8-17.8-17.8c0-0.1,0-17.8,17.8-17.8C97,45.3,94.3,65.4,94.3,65.4z"/>
</g>
</svg>
