<?xml version="1.0" encoding="utf-8"?>
<!-- Generator: Adobe Illustrator 23.0.2, SVG Export Plug-In . SVG Version: 6.00 Build 0)  -->
<svg version="1.1" id="ac3c5c70-146b-408b-b2f0-c719f1b46e11"
	 xmlns="http://www.w3.org/2000/svg" xmlns:xlink="http://www.w3.org/1999/xlink" x="0px" y="0px" viewBox="0 0 58.6 34"
	 style="enable-background:new 0 0 58.6 34;" xml:space="preserve">
<style type="text/css">
	.st0{fill:#F3C95E;}
	.st1{fill:#F7F7F7;}
</style>
<title>logo-la-contra</title>
<g>
	<g>
		<polygon class="st0" points="36.6,0 38.4,3.6 42.4,4.2 39.5,7 40.2,11 36.6,9.1 33,11 33.7,7 30.8,4.2 34.8,3.6 		"/>
		<polygon class="st0" points="45.1,6.2 46.1,8.2 48.2,8.5 46.7,10 47,12.1 45.1,11.1 43.2,12.1 43.6,10 42,8.5 44.2,8.2 		"/>
		<g>
			<g>
				<path class="st1" d="M13.1,2.8h4.6v1.9h-0.8V11h1.9V9.2h2.4v3.7h-8.1V11h0.8V4.7h-0.8V2.8z"/>
				<path class="st1" d="M22.3,6.3c0.6-0.3,1.8-1,3.1-1c1.7,0,3.9,0.6,3.9,3v2.8h0.9v1.8h-3.1l-0.3-0.6c-0.5,0.7-1.4,0.9-1.9,0.9
					c-1.4,0-2.8-0.7-2.8-2.4c0-1.6,1.4-2.7,3-2.7c0.9,0,1.4,0.4,1.4,0.5V8.1c0-0.6-0.6-0.8-1.4-0.8c-0.9,0-1.6,0.4-2.1,0.7L22.3,6.3
					z M26.4,10.9v-0.6c0-0.1-0.3-0.5-0.9-0.5c-0.6,0-0.9,0.3-0.9,0.8c0,0.4,0.4,0.7,0.8,0.7C25.9,11.4,26.3,11.1,26.4,10.9z"/>
			</g>
			<path class="st1" d="M11.8,21.7c-1.2,1.3-3.1,2.5-5.5,2.5c-3.8,0-6.4-2.4-6.4-6.5c0-4.1,3.1-6.6,5.5-6.6c1.8,0,2.6,1,2.8,1.2
				l0.4-1h2.8v5.1H8.3c-0.1-1.2-0.6-2.3-1.9-2.3c-1.3,0-2.1,1.6-2.1,3.6c0,1.8,0.9,3.4,2.6,3.4c1.5,0,2.7-1.6,2.9-1.8L11.8,21.7z"/>
			<path class="st1" d="M12.3,19.4c0-3,2.4-4.7,4.9-4.7c2.8,0,4.9,1.7,5,4.8c0,3-2.2,4.7-4.9,4.7C14.7,24.2,12.2,22.6,12.3,19.4z
				 M18.5,19.5c0-1.3-0.5-2.4-1.3-2.4c-0.7,0-1.2,1-1.2,2.4c0,1.5,0.6,2.4,1.3,2.4C18.1,21.9,18.5,20.8,18.5,19.5z"/>
			<path class="st1" d="M28.4,23.9h-5.5v-2.4h0.8v-4.3h-0.8v-2.3h3.8l0.4,1.1c0.6-0.8,1.4-1.4,2.6-1.4c2.8,0,3.3,2.1,3.3,4v3h0.8
				v2.4h-4.5V19c0-0.6,0.1-1.7-1-1.7c-0.9,0-1.1,0.9-1.1,1.7v2.6h1.3V23.9z"/>
			<path class="st1" d="M33.9,14.9h1v-1.7l3.3-1.1v2.7h1.7v2.3h-1.7v3.2c0,0.6-0.1,1.4,0.6,1.4c0.2,0,0.8-0.2,1.1-0.3v2.3
				c-0.5,0.2-1.8,0.3-2.2,0.3c-2.7,0-2.8-1.5-2.8-3.8v-3.2h-1V14.9z"/>
			<path class="st1" d="M46.1,23.9H41v-2.4h0.8v-4.3h-0.8v-2.3h3.4l0.5,1.2c0.5-0.9,0.9-1.6,2.8-1.6v3.2c-1.6,0-2.5,0.4-2.5,2v1.9
				h0.9V23.9z"/>
			<path class="st1" d="M48.7,15.7c0.7-0.4,2.3-1.3,3.9-1.3c2.2,0,4.9,0.8,4.9,3.7v3.5h1.1v2.3h-3.9l-0.4-0.8
				c-0.7,0.9-1.8,1.2-2.4,1.2c-1.7,0-3.5-0.9-3.5-3c0-2,1.7-3.3,3.7-3.3c1.1,0,1.7,0.5,1.8,0.6V18c0-0.8-0.7-1-1.7-1
				c-1.1,0-2,0.4-2.7,0.8L48.7,15.7z M53.8,21.4v-0.7c-0.1-0.1-0.3-0.5-1.1-0.5c-0.7,0-1,0.4-1,1c0,0.5,0.4,0.8,1,0.8
				C53.2,21.9,53.7,21.6,53.8,21.4z"/>
		</g>
	</g>
	<g>
		<path class="st0" d="M5,32.2c-0.1,0-0.1,0-0.1-0.1c0,0-0.1-0.1-0.1-0.2v-5.5c0-0.1,0-0.1,0.1-0.2c0,0,0.1-0.1,0.1-0.1h2.5
			c0.5,0,0.9,0.1,1.2,0.2s0.5,0.3,0.7,0.6c0.1,0.2,0.2,0.5,0.2,0.9c0,0.2,0,0.4-0.1,0.5c-0.1,0.2-0.2,0.3-0.3,0.4
			c-0.1,0.1-0.2,0.2-0.3,0.2c0.2,0.1,0.4,0.3,0.6,0.5c0.2,0.2,0.3,0.5,0.3,0.8c0,0.4-0.1,0.7-0.2,0.9c-0.2,0.3-0.4,0.5-0.7,0.6
			c-0.3,0.1-0.7,0.2-1.1,0.2H5z M6.1,28.6h1.2c0.3,0,0.5-0.1,0.6-0.2c0.1-0.1,0.2-0.3,0.2-0.5S8.1,27.6,8,27.4
			c-0.1-0.1-0.3-0.2-0.6-0.2H6.1V28.6z M6.1,31.2h1.3c0.3,0,0.5-0.1,0.6-0.2c0.1-0.2,0.2-0.3,0.2-0.5c0-0.2-0.1-0.4-0.2-0.6
			c-0.1-0.1-0.4-0.2-0.6-0.2H6.1V31.2z"/>
		<path class="st0" d="M12.5,32.3c-0.5,0-0.9-0.1-1.2-0.2c-0.3-0.2-0.6-0.4-0.7-0.7c-0.2-0.3-0.3-0.6-0.3-1c0-0.1,0-0.2,0-0.4
			c0-0.1,0-0.3,0-0.4c0-0.4,0.1-0.7,0.3-1c0.2-0.3,0.4-0.5,0.7-0.7c0.3-0.2,0.7-0.2,1.1-0.2c0.4,0,0.8,0.1,1.1,0.2
			c0.3,0.2,0.6,0.4,0.7,0.7c0.2,0.3,0.3,0.6,0.3,1c0,0.1,0,0.2,0,0.4c0,0.1,0,0.3,0,0.4c0,0.4-0.1,0.7-0.3,1
			c-0.2,0.3-0.4,0.5-0.7,0.7C13.4,32.2,13,32.3,12.5,32.3z M12.5,31.3c0.3,0,0.5-0.1,0.6-0.3c0.1-0.2,0.2-0.4,0.2-0.8
			c0-0.1,0-0.2,0-0.3c0-0.1,0-0.3,0-0.3c0-0.3-0.1-0.6-0.2-0.7c-0.1-0.2-0.3-0.3-0.6-0.3c-0.3,0-0.5,0.1-0.6,0.3
			c-0.1,0.2-0.2,0.4-0.2,0.7c0,0.1,0,0.2,0,0.3c0,0.1,0,0.3,0,0.3c0,0.3,0.1,0.6,0.2,0.8C12,31.2,12.2,31.3,12.5,31.3z"/>
		<path class="st0" d="M15.2,32.2c-0.1,0-0.1,0-0.1-0.1c0,0-0.1-0.1-0.1-0.1c0,0,0,0,0-0.1c0,0,0,0,0-0.1l1.4-1.9l-1.3-1.8
			c0,0,0,0,0-0.1c0,0,0,0,0-0.1c0-0.1,0-0.1,0.1-0.1c0,0,0.1-0.1,0.1-0.1h0.9c0.1,0,0.1,0,0.2,0.1c0,0,0.1,0.1,0.1,0.1l0.9,1.2
			l0.9-1.2c0,0,0.1-0.1,0.1-0.1s0.1-0.1,0.2-0.1h0.8c0.1,0,0.1,0,0.1,0.1s0.1,0.1,0.1,0.1c0,0,0,0,0,0.1c0,0,0,0,0,0.1L18,29.9
			l1.4,1.9c0,0,0,0,0,0.1c0,0,0,0,0,0.1c0,0.1,0,0.1-0.1,0.1c0,0-0.1,0.1-0.1,0.1h-0.9c-0.1,0-0.1,0-0.2,0c0,0-0.1-0.1-0.1-0.1
			l-0.9-1.3L16.3,32c0,0-0.1,0.1-0.1,0.1c0,0-0.1,0.1-0.2,0.1H15.2z"/>
		<path class="st0" d="M20.3,27.1c-0.1,0-0.1,0-0.1-0.1c0,0-0.1-0.1-0.1-0.2v-0.7c0-0.1,0-0.1,0.1-0.1c0,0,0.1-0.1,0.1-0.1h0.9
			c0.1,0,0.1,0,0.1,0.1c0,0,0.1,0.1,0.1,0.1v0.7c0,0.1,0,0.1-0.1,0.2c0,0-0.1,0.1-0.1,0.1H20.3z M20.3,32.2c-0.1,0-0.1,0-0.1-0.1
			c0,0-0.1-0.1-0.1-0.2v-4c0-0.1,0-0.1,0.1-0.2c0,0,0.1-0.1,0.1-0.1h0.9c0.1,0,0.1,0,0.1,0.1c0,0,0.1,0.1,0.1,0.2v4
			c0,0.1,0,0.1-0.1,0.2c0,0-0.1,0.1-0.1,0.1H20.3z"/>
		<path class="st0" d="M22.6,32.2c-0.1,0-0.1,0-0.1-0.1c0,0-0.1-0.1-0.1-0.2v-4c0-0.1,0-0.1,0.1-0.2c0,0,0.1-0.1,0.1-0.1h0.8
			c0.1,0,0.1,0,0.2,0.1c0,0,0.1,0.1,0.1,0.2v0.3c0.1-0.2,0.3-0.3,0.6-0.4c0.2-0.1,0.5-0.2,0.8-0.2c0.3,0,0.6,0.1,0.9,0.2
			c0.3,0.1,0.5,0.4,0.6,0.7c0.1,0.3,0.2,0.6,0.2,1V32c0,0.1,0,0.1-0.1,0.2c0,0-0.1,0.1-0.2,0.1h-0.9c-0.1,0-0.1,0-0.2-0.1
			c0,0-0.1-0.1-0.1-0.2v-2.3c0-0.3-0.1-0.5-0.2-0.7c-0.1-0.2-0.4-0.2-0.6-0.2c-0.3,0-0.5,0.1-0.6,0.2c-0.2,0.2-0.2,0.4-0.2,0.7V32
			c0,0.1,0,0.1-0.1,0.2c0,0-0.1,0.1-0.2,0.1H22.6z"/>
		<path class="st0" d="M29.7,34c-0.4,0-0.8-0.1-1-0.2c-0.3-0.1-0.5-0.2-0.7-0.4c-0.2-0.2-0.3-0.3-0.3-0.5c-0.1-0.2-0.1-0.3-0.1-0.4
			c0-0.1,0-0.1,0.1-0.1c0,0,0.1-0.1,0.2-0.1h0.9c0.1,0,0.1,0,0.1,0c0,0,0.1,0.1,0.1,0.1c0,0.1,0.1,0.1,0.1,0.2
			c0.1,0.1,0.1,0.1,0.2,0.2c0.1,0.1,0.2,0.1,0.4,0.1c0.2,0,0.4,0,0.5-0.1c0.1-0.1,0.2-0.2,0.3-0.3c0.1-0.1,0.1-0.3,0.1-0.5v-0.6
			c-0.1,0.1-0.3,0.3-0.5,0.4c-0.2,0.1-0.5,0.1-0.8,0.1c-0.3,0-0.6,0-0.8-0.1c-0.2-0.1-0.4-0.2-0.6-0.4c-0.1-0.2-0.3-0.4-0.3-0.6
			c-0.1-0.2-0.1-0.5-0.1-0.8c0-0.2,0-0.3,0-0.4c0-0.3,0.1-0.6,0.1-0.8c0.1-0.2,0.2-0.5,0.3-0.6c0.1-0.2,0.3-0.3,0.6-0.4
			c0.2-0.1,0.5-0.1,0.8-0.1c0.3,0,0.6,0.1,0.8,0.2c0.2,0.1,0.4,0.3,0.5,0.4V28c0-0.1,0-0.1,0.1-0.1c0,0,0.1-0.1,0.1-0.1h0.8
			c0.1,0,0.1,0,0.2,0.1c0,0,0.1,0.1,0.1,0.1l0,4.1c0,0.4-0.1,0.8-0.2,1.1c-0.2,0.3-0.4,0.5-0.7,0.7C30.6,34,30.2,34,29.7,34z
			 M29.7,31.1c0.2,0,0.4,0,0.5-0.1c0.1-0.1,0.2-0.2,0.3-0.4c0.1-0.1,0.1-0.3,0.1-0.5c0-0.1,0-0.2,0-0.3c0-0.1,0-0.2,0-0.3
			c0-0.2,0-0.3-0.1-0.4c-0.1-0.1-0.2-0.3-0.3-0.4c-0.1-0.1-0.3-0.1-0.5-0.1c-0.2,0-0.4,0-0.5,0.1c-0.1,0.1-0.2,0.2-0.3,0.4
			c-0.1,0.2-0.1,0.3-0.1,0.5c0,0.1,0,0.3,0,0.4c0,0.2,0,0.4,0.1,0.5c0.1,0.2,0.1,0.3,0.3,0.4C29.3,31.1,29.4,31.1,29.7,31.1z"/>
		<path class="st0" d="M36.2,32.3c-0.5,0-1-0.1-1.4-0.2c-0.4-0.2-0.6-0.4-0.8-0.6c-0.2-0.3-0.3-0.5-0.3-0.8c0-0.1,0-0.1,0.1-0.1
			c0,0,0.1-0.1,0.1-0.1h0.9c0.1,0,0.1,0,0.2,0c0,0,0.1,0.1,0.1,0.1c0,0.1,0.1,0.2,0.2,0.3c0.1,0.1,0.2,0.2,0.4,0.2
			c0.1,0.1,0.3,0.1,0.6,0.1c0.4,0,0.6-0.1,0.8-0.2c0.2-0.1,0.3-0.3,0.3-0.5c0-0.1,0-0.3-0.1-0.3c-0.1-0.1-0.3-0.2-0.5-0.2
			s-0.5-0.1-0.8-0.2c-0.4-0.1-0.8-0.2-1.1-0.4c-0.3-0.1-0.5-0.3-0.7-0.6c-0.1-0.2-0.2-0.5-0.2-0.8s0.1-0.6,0.3-0.9
			c0.2-0.3,0.4-0.5,0.8-0.6c0.3-0.1,0.7-0.2,1.2-0.2c0.4,0,0.7,0.1,1,0.2c0.3,0.1,0.5,0.2,0.7,0.4c0.2,0.2,0.3,0.3,0.4,0.5
			c0.1,0.2,0.2,0.4,0.2,0.5c0,0.1,0,0.1,0,0.1c0,0-0.1,0.1-0.1,0.1h-0.9c-0.1,0-0.1,0-0.2,0c0,0-0.1-0.1-0.1-0.1
			c0-0.2-0.1-0.3-0.3-0.4c-0.2-0.1-0.4-0.2-0.6-0.2c-0.3,0-0.5,0-0.7,0.1c-0.2,0.1-0.2,0.3-0.2,0.5c0,0.1,0,0.2,0.1,0.3
			c0.1,0.1,0.2,0.2,0.4,0.2c0.2,0.1,0.5,0.1,0.8,0.2c0.5,0.1,0.9,0.2,1.2,0.4c0.3,0.1,0.5,0.3,0.7,0.5c0.1,0.2,0.2,0.5,0.2,0.8
			c0,0.4-0.1,0.7-0.3,1c-0.2,0.3-0.5,0.5-0.9,0.6C37.1,32.2,36.7,32.3,36.2,32.3z"/>
		<path class="st0" d="M41.5,32.2c-0.3,0-0.6-0.1-0.9-0.2c-0.2-0.1-0.4-0.3-0.6-0.5c-0.1-0.2-0.2-0.5-0.2-0.9v-1.8h-0.7
			c-0.1,0-0.1,0-0.2-0.1c0,0-0.1-0.1-0.1-0.1V28c0-0.1,0-0.1,0.1-0.2c0,0,0.1-0.1,0.2-0.1h0.7v-1.4c0-0.1,0-0.1,0.1-0.2
			s0.1-0.1,0.1-0.1h0.8c0.1,0,0.1,0,0.1,0.1c0,0,0.1,0.1,0.1,0.2v1.4h1.1c0.1,0,0.1,0,0.2,0.1c0,0,0.1,0.1,0.1,0.2v0.6
			c0,0.1,0,0.1-0.1,0.1c0,0-0.1,0.1-0.2,0.1h-1.1v1.7c0,0.2,0,0.4,0.1,0.5c0.1,0.1,0.2,0.2,0.4,0.2h0.6c0.1,0,0.1,0,0.2,0.1
			c0,0,0.1,0.1,0.1,0.1V32c0,0.1,0,0.1-0.1,0.2c0,0-0.1,0.1-0.2,0.1H41.5z"/>
		<path class="st0" d="M45.1,32.3c-0.5,0-0.9-0.1-1.2-0.2c-0.3-0.2-0.6-0.4-0.7-0.7c-0.2-0.3-0.3-0.6-0.3-1c0-0.1,0-0.2,0-0.4
			c0-0.1,0-0.3,0-0.4c0-0.4,0.1-0.7,0.3-1c0.2-0.3,0.4-0.5,0.7-0.7c0.3-0.2,0.7-0.2,1.1-0.2c0.4,0,0.8,0.1,1.1,0.2
			c0.3,0.2,0.6,0.4,0.7,0.7c0.2,0.3,0.3,0.6,0.3,1c0,0.1,0,0.2,0,0.4c0,0.1,0,0.3,0,0.4c0,0.4-0.1,0.7-0.3,1
			c-0.2,0.3-0.4,0.5-0.7,0.7C46,32.2,45.6,32.3,45.1,32.3z M45.1,31.3c0.3,0,0.5-0.1,0.6-0.3c0.1-0.2,0.2-0.4,0.2-0.8
			c0-0.1,0-0.2,0-0.3c0-0.1,0-0.3,0-0.3c0-0.3-0.1-0.6-0.2-0.7c-0.1-0.2-0.3-0.3-0.6-0.3c-0.3,0-0.5,0.1-0.6,0.3
			c-0.1,0.2-0.2,0.4-0.2,0.7c0,0.1,0,0.2,0,0.3c0,0.1,0,0.3,0,0.3c0,0.3,0.1,0.6,0.2,0.8C44.6,31.2,44.9,31.3,45.1,31.3z"/>
		<path class="st0" d="M48.3,32.2c-0.1,0-0.1,0-0.1-0.1S48.1,32,48.1,32v-4c0-0.1,0-0.1,0.1-0.1c0,0,0.1-0.1,0.1-0.1h0.8
			c0.1,0,0.1,0,0.2,0.1c0,0,0.1,0.1,0.1,0.1v0.3c0.1-0.2,0.3-0.3,0.5-0.4c0.2-0.1,0.4-0.1,0.7-0.1H51c0.1,0,0.1,0,0.2,0.1
			c0,0,0.1,0.1,0.1,0.2v0.7c0,0.1,0,0.1-0.1,0.1c0,0-0.1,0.1-0.2,0.1h-0.7c-0.3,0-0.4,0.1-0.6,0.2c-0.1,0.1-0.2,0.3-0.2,0.6V32
			c0,0.1,0,0.1-0.1,0.2s-0.1,0.1-0.1,0.1H48.3z"/>
		<path class="st0" d="M53.6,32.3c-0.6,0-1.2-0.2-1.5-0.5c-0.4-0.4-0.6-0.9-0.6-1.6c0,0,0-0.1,0-0.2c0-0.1,0-0.1,0-0.2
			c0-0.4,0.1-0.8,0.3-1.1c0.2-0.3,0.4-0.6,0.7-0.7c0.3-0.2,0.7-0.2,1.1-0.2c0.5,0,0.9,0.1,1.2,0.3c0.3,0.2,0.6,0.5,0.7,0.8
			c0.2,0.3,0.2,0.7,0.2,1.2v0.2c0,0.1,0,0.1-0.1,0.1c0,0-0.1,0.1-0.2,0.1h-2.8c0,0,0,0,0,0.1c0,0.2,0,0.3,0.1,0.5
			c0.1,0.1,0.2,0.3,0.3,0.4c0.1,0.1,0.3,0.1,0.4,0.1c0.1,0,0.2,0,0.3-0.1c0.1,0,0.2-0.1,0.2-0.1c0.1-0.1,0.1-0.1,0.1-0.1
			c0.1-0.1,0.1-0.1,0.1-0.1c0,0,0.1,0,0.1,0h0.9c0.1,0,0.1,0,0.1,0.1c0,0,0.1,0.1,0,0.1c0,0.1-0.1,0.2-0.1,0.3
			c-0.1,0.1-0.2,0.3-0.4,0.4s-0.4,0.2-0.6,0.3C54.2,32.2,54,32.3,53.6,32.3z M52.8,29.6h1.6v0c0-0.2,0-0.4-0.1-0.5
			c-0.1-0.1-0.2-0.3-0.3-0.4c-0.1-0.1-0.3-0.1-0.4-0.1c-0.2,0-0.3,0-0.4,0.1c-0.1,0.1-0.2,0.2-0.3,0.4
			C52.8,29.2,52.8,29.3,52.8,29.6L52.8,29.6z"/>
	</g>
</g>
</svg>
