<?xml version="1.0" encoding="utf-8"?>
<!-- Generator: Adobe Illustrator 23.0.2, SVG Export Plug-In . SVG Version: 6.00 Build 0)  -->
<svg version="1.1" id="ac3c5c70-146b-408b-b2f0-c719f1b46e11"
	 xmlns="http://www.w3.org/2000/svg" xmlns:xlink="http://www.w3.org/1999/xlink" x="0px" y="0px" viewBox="0 0 67.3 34.9"
	 style="enable-background:new 0 0 67.3 34.9;" xml:space="preserve">
<style type="text/css">
	.st0{fill:#FFFFFF;}
	.st1{fill:#D5A940;}
</style>
<title>logo-la-contra</title>
<g>
	<g>
		<g>
			<path class="st0" d="M16.4,13.6c-0.1,0-0.3,0-0.3-0.1S16,13.3,16,13.1l2.7-12.4c0-0.1,0.1-0.3,0.2-0.4s0.2-0.1,0.4-0.1h3.2
				c0.1,0,0.2,0,0.3,0.1c0.1,0.1,0.1,0.2,0.1,0.4l-2,9.5h5.5c0.1,0,0.2,0,0.3,0.1s0.1,0.2,0.1,0.4l-0.5,2.4c0,0.1-0.1,0.3-0.2,0.4
				s-0.3,0.1-0.4,0.1H16.4z"/>
			<path class="st0" d="M30.9,13.8c-0.6,0-1.1-0.1-1.6-0.3c-0.5-0.2-0.8-0.5-1.1-0.8c-0.3-0.4-0.5-0.8-0.6-1.4s-0.1-1.2,0-2
				c0.1-0.3,0.1-0.5,0.1-0.7c0-0.2,0.1-0.4,0.2-0.7c0.2-0.7,0.4-1.3,0.7-1.9s0.7-1,1.1-1.4c0.4-0.4,0.9-0.7,1.4-0.9s1.1-0.3,1.7-0.3
				c0.8,0,1.3,0.1,1.7,0.3C35,4,35.3,4.3,35.6,4.6l0.1-0.4c0-0.1,0.1-0.3,0.2-0.4s0.2-0.1,0.4-0.1h2.7c0.1,0,0.2,0,0.3,0.1
				c0.1,0.1,0.1,0.2,0.1,0.4l-1.9,9c0,0.1-0.1,0.3-0.2,0.4s-0.2,0.1-0.4,0.1h-2.7c-0.1,0-0.3,0-0.3-0.1s-0.1-0.2-0.1-0.4l0.1-0.5
				c-0.4,0.4-0.8,0.7-1.2,0.9C32.2,13.7,31.6,13.8,30.9,13.8z M32.6,10.8c0.3,0,0.6-0.1,0.8-0.2c0.2-0.1,0.4-0.3,0.5-0.6
				c0.1-0.2,0.2-0.5,0.3-0.8c0.1-0.3,0.1-0.5,0.2-0.7c0-0.2,0.1-0.4,0.1-0.7c0.1-0.3,0.1-0.5,0-0.7c-0.1-0.2-0.2-0.4-0.3-0.5
				s-0.4-0.2-0.7-0.2c-0.3,0-0.6,0.1-0.8,0.2c-0.2,0.1-0.4,0.3-0.5,0.6c-0.1,0.2-0.2,0.5-0.3,0.8c-0.1,0.2-0.1,0.4-0.2,0.6
				s-0.1,0.4-0.1,0.6c0,0.3,0,0.6,0,0.8s0.1,0.4,0.3,0.6C32.1,10.8,32.3,10.8,32.6,10.8z"/>
		</g>
		<g>
			<path class="st0" d="M6.1,25.8c-0.9,0-1.7-0.1-2.4-0.3c-0.7-0.2-1.3-0.5-1.8-1c-0.5-0.4-0.9-1-1.1-1.6c-0.2-0.7-0.2-1.4-0.1-2.3
				c0.1-0.5,0.2-1.1,0.3-1.7c0.1-0.6,0.3-1.2,0.4-1.7c0.3-1.1,0.8-2.1,1.4-2.9c0.6-0.8,1.4-1.3,2.3-1.7c0.9-0.4,2-0.6,3.2-0.6
				c0.8,0,1.5,0.1,2.3,0.3c0.7,0.2,1.4,0.5,1.9,0.9c0.5,0.4,0.9,0.9,1.2,1.5c0.3,0.6,0.3,1.3,0.2,2.1c0,0.1-0.1,0.2-0.2,0.3
				s-0.2,0.1-0.3,0.1h-3.3c-0.2,0-0.3,0-0.4-0.1c-0.1-0.1-0.1-0.2-0.2-0.4c0-0.5-0.2-0.9-0.4-1.1c-0.3-0.2-0.7-0.3-1.1-0.3
				c-0.6,0-1,0.1-1.4,0.4s-0.7,0.8-0.9,1.6c-0.3,1-0.5,2.1-0.7,3.2c-0.1,0.8-0.1,1.3,0.2,1.6c0.3,0.3,0.7,0.4,1.2,0.4
				c0.5,0,0.9-0.1,1.3-0.3c0.4-0.2,0.7-0.6,0.9-1.1C8.8,21,8.9,20.8,9,20.8c0.1-0.1,0.3-0.1,0.4-0.1h3.3c0.1,0,0.2,0,0.3,0.1
				C13,20.9,13,21,13,21.1c-0.2,0.8-0.5,1.5-0.9,2.1c-0.4,0.6-0.9,1.1-1.5,1.5c-0.6,0.4-1.3,0.7-2,0.9S7,25.8,6.1,25.8z"/>
			<path class="st0" d="M18.2,25.8c-1.1,0-2-0.2-2.7-0.5c-0.7-0.3-1.3-0.8-1.6-1.5c-0.3-0.6-0.4-1.4-0.3-2.3c0-0.3,0.1-0.6,0.2-0.9
				c0.1-0.3,0.1-0.6,0.2-0.9c0.3-0.9,0.6-1.7,1.1-2.3c0.5-0.6,1.2-1.1,2-1.5c0.8-0.3,1.8-0.5,2.9-0.5c1,0,1.9,0.2,2.6,0.5
				c0.7,0.3,1.3,0.8,1.6,1.5c0.4,0.6,0.5,1.4,0.3,2.3c-0.1,0.3-0.1,0.6-0.2,0.9s-0.1,0.6-0.2,0.9c-0.2,0.9-0.6,1.7-1.1,2.3
				c-0.5,0.6-1.1,1.1-2,1.5S19.4,25.8,18.2,25.8z M18.6,23.1c0.5,0,0.8-0.1,1.1-0.4c0.2-0.3,0.4-0.7,0.6-1.3
				c0.1-0.2,0.1-0.5,0.2-0.8s0.1-0.6,0.2-0.8c0.1-0.5,0.1-1,0-1.3c-0.1-0.3-0.4-0.4-0.9-0.4c-0.5,0-0.8,0.1-1.1,0.4
				c-0.2,0.3-0.4,0.7-0.6,1.3c-0.1,0.2-0.1,0.5-0.2,0.8c-0.1,0.3-0.1,0.6-0.2,0.8c-0.1,0.6-0.1,1,0,1.3C17.8,23,18.1,23.1,18.6,23.1
				z"/>
			<path class="st0" d="M25.1,25.6c-0.1,0-0.2,0-0.3-0.1s-0.1-0.2-0.1-0.4l1.9-9c0-0.1,0.1-0.3,0.2-0.4s0.3-0.1,0.4-0.1h2.8
				c0.1,0,0.2,0,0.3,0.1s0.1,0.2,0.1,0.4l-0.1,0.7c0.4-0.4,0.9-0.7,1.4-1c0.5-0.3,1.2-0.4,1.9-0.4c0.8,0,1.4,0.2,1.9,0.5
				c0.5,0.3,0.9,0.8,1.1,1.4c0.2,0.6,0.2,1.4,0,2.4l-1.1,5.3c0,0.1-0.1,0.3-0.2,0.4c-0.1,0.1-0.2,0.1-0.4,0.1h-3
				c-0.1,0-0.2,0-0.3-0.1s-0.1-0.2-0.1-0.4l1.1-5.2c0.1-0.5,0.1-0.9-0.1-1.1s-0.4-0.4-0.9-0.4c-0.4,0-0.8,0.1-1.1,0.4
				c-0.3,0.3-0.5,0.6-0.6,1.1l-1.1,5.2c0,0.1-0.1,0.3-0.2,0.4s-0.2,0.1-0.4,0.1H25.1z"/>
			<path class="st0" d="M42.3,25.6c-0.9,0-1.7-0.1-2.3-0.4c-0.6-0.3-1.1-0.7-1.3-1.3c-0.3-0.6-0.3-1.3-0.1-2.3l0.7-3.1h-1.5
				c-0.1,0-0.2,0-0.3-0.1s-0.1-0.2-0.1-0.4l0.4-1.9c0-0.1,0.1-0.3,0.2-0.4s0.3-0.1,0.4-0.1h1.5l0.7-3.1c0-0.1,0.1-0.3,0.2-0.4
				c0.1-0.1,0.2-0.1,0.4-0.1h2.8c0.1,0,0.3,0,0.3,0.1s0.1,0.2,0.1,0.4l-0.7,3.1H46c0.1,0,0.2,0,0.3,0.1s0.1,0.2,0.1,0.4L46,18.1
				c0,0.1-0.1,0.3-0.2,0.4c-0.1,0.1-0.2,0.1-0.4,0.1H43l-0.6,2.8c-0.1,0.2-0.1,0.5,0,0.6c0,0.2,0.1,0.3,0.2,0.4
				c0.1,0.1,0.3,0.1,0.5,0.1h1.6c0.1,0,0.2,0,0.3,0.1c0.1,0.1,0.1,0.2,0.1,0.4l-0.5,2.1c0,0.1-0.1,0.3-0.2,0.4
				c-0.1,0.1-0.2,0.1-0.4,0.1H42.3z"/>
			<path class="st0" d="M46.1,25.6c-0.1,0-0.2,0-0.3-0.1c-0.1-0.1-0.1-0.2-0.1-0.4l1.9-9c0-0.1,0.1-0.3,0.2-0.4s0.3-0.1,0.4-0.1h2.8
				c0.1,0,0.2,0,0.3,0.1s0.1,0.2,0.1,0.4l-0.1,0.7c0.3-0.4,0.7-0.6,1.1-0.9c0.4-0.2,1-0.3,1.7-0.3h1.2c0.1,0,0.2,0,0.3,0.1
				c0.1,0.1,0.1,0.2,0.1,0.4l-0.5,2.5c0,0.1-0.1,0.3-0.2,0.4c-0.1,0.1-0.3,0.1-0.4,0.1h-2.2c-0.5,0-0.8,0.1-1.1,0.4
				c-0.3,0.2-0.5,0.6-0.6,1.1l-1,4.6c0,0.1-0.1,0.3-0.2,0.4c-0.1,0.1-0.2,0.1-0.4,0.1H46.1z"/>
			<path class="st0" d="M58.2,25.8c-0.6,0-1.1-0.1-1.6-0.3c-0.5-0.2-0.8-0.5-1.1-0.8c-0.3-0.4-0.5-0.8-0.6-1.4c-0.1-0.6-0.1-1.2,0-2
				c0.1-0.3,0.1-0.5,0.1-0.7c0-0.2,0.1-0.4,0.2-0.7c0.2-0.7,0.4-1.3,0.7-1.9c0.3-0.6,0.7-1,1.1-1.4c0.4-0.4,0.9-0.7,1.4-0.9
				s1.1-0.3,1.7-0.3c0.8,0,1.3,0.1,1.7,0.3c0.4,0.2,0.7,0.4,0.9,0.8l0.1-0.4c0-0.1,0.1-0.3,0.2-0.4c0.1-0.1,0.2-0.1,0.4-0.1h2.7
				c0.1,0,0.2,0,0.3,0.1c0.1,0.1,0.1,0.2,0.1,0.4l-1.9,9c0,0.1-0.1,0.3-0.2,0.4s-0.2,0.1-0.4,0.1h-2.7c-0.1,0-0.3,0-0.3-0.1
				s-0.1-0.2-0.1-0.4l0.1-0.5c-0.4,0.4-0.8,0.7-1.2,0.9C59.5,25.7,58.9,25.8,58.2,25.8z M60,22.8c0.3,0,0.6-0.1,0.8-0.2
				c0.2-0.1,0.4-0.3,0.5-0.6c0.1-0.2,0.2-0.5,0.3-0.8c0.1-0.3,0.1-0.5,0.2-0.7c0-0.2,0.1-0.4,0.1-0.7c0.1-0.3,0.1-0.5,0-0.7
				c-0.1-0.2-0.2-0.4-0.3-0.5s-0.4-0.2-0.7-0.2c-0.3,0-0.6,0.1-0.8,0.2s-0.4,0.3-0.5,0.6c-0.1,0.2-0.2,0.5-0.3,0.8
				c-0.1,0.2-0.1,0.4-0.2,0.6c-0.1,0.2-0.1,0.4-0.1,0.6c0,0.3,0,0.6,0,0.8c0,0.2,0.1,0.4,0.3,0.6S59.6,22.8,60,22.8z"/>
		</g>
	</g>
	<g>
		<path class="st1" d="M7.3,32.8c-0.1,0-0.1,0-0.1-0.1c0,0,0-0.1,0-0.1l1.1-5.4c0-0.1,0-0.1,0.1-0.1c0,0,0.1-0.1,0.2-0.1h2.4
			c0.4,0,0.8,0.1,1.1,0.2s0.5,0.3,0.6,0.6c0.1,0.2,0.2,0.5,0.1,0.9c0,0.2-0.1,0.4-0.2,0.5c-0.1,0.2-0.2,0.3-0.3,0.4
			c-0.1,0.1-0.2,0.2-0.4,0.2c0.2,0.1,0.3,0.3,0.5,0.5c0.1,0.2,0.1,0.5,0.1,0.8c-0.1,0.4-0.2,0.7-0.4,0.9c-0.2,0.3-0.4,0.5-0.8,0.6
			c-0.3,0.1-0.7,0.2-1.2,0.2H7.3z M8.8,31.7h1.1c0.2,0,0.4-0.1,0.6-0.2c0.2-0.1,0.3-0.3,0.3-0.5c0-0.2,0-0.4-0.1-0.5
			c-0.1-0.1-0.3-0.2-0.5-0.2H9L8.8,31.7z M9.3,29.3h1.1c0.2,0,0.4-0.1,0.6-0.2c0.1-0.1,0.2-0.3,0.3-0.4c0-0.2,0-0.3-0.1-0.4
			c-0.1-0.1-0.2-0.2-0.5-0.2H9.5L9.3,29.3z"/>
		<path class="st1" d="M14.9,32.9c-0.4,0-0.8-0.1-1.1-0.2c-0.3-0.1-0.5-0.4-0.6-0.6c-0.1-0.3-0.2-0.6-0.1-1c0-0.1,0-0.2,0.1-0.4
			c0-0.1,0.1-0.3,0.1-0.4c0.1-0.4,0.3-0.7,0.5-1s0.5-0.5,0.8-0.6c0.3-0.1,0.7-0.2,1.2-0.2c0.4,0,0.8,0.1,1.1,0.2
			c0.3,0.1,0.5,0.4,0.7,0.6c0.1,0.3,0.2,0.6,0.1,1c0,0.1,0,0.2-0.1,0.4c0,0.1-0.1,0.3-0.1,0.4c-0.1,0.4-0.3,0.7-0.5,1
			c-0.2,0.3-0.5,0.5-0.8,0.6C15.8,32.8,15.3,32.9,14.9,32.9z M15,31.9c0.2,0,0.4-0.1,0.6-0.2c0.2-0.1,0.3-0.4,0.3-0.7
			c0-0.1,0-0.2,0.1-0.3c0-0.1,0.1-0.2,0.1-0.3c0-0.3,0-0.5,0-0.7c-0.1-0.2-0.2-0.2-0.5-0.2c-0.2,0-0.4,0.1-0.6,0.2
			c-0.2,0.2-0.3,0.4-0.3,0.7c0,0.1,0,0.2-0.1,0.3c0,0.1-0.1,0.2-0.1,0.3c0,0.3,0,0.5,0,0.7C14.6,31.8,14.7,31.9,15,31.9z"/>
		<path class="st1" d="M17.5,32.8c-0.1,0-0.1,0-0.2-0.1c0-0.1,0-0.1,0-0.2l1.8-2l-0.9-1.8c0-0.1,0-0.1,0-0.2c0-0.1,0.1-0.1,0.2-0.1
			h1c0.1,0,0.1,0,0.2,0.1c0,0,0.1,0.1,0.1,0.1l0.5,1l1-1c0,0,0.1-0.1,0.1-0.1c0,0,0.1-0.1,0.2-0.1h1c0.1,0,0.1,0,0.1,0.1
			c0,0.1,0,0.1,0,0.2L21,30.7l0.9,1.9c0,0.1,0,0.1,0,0.2c0,0.1-0.1,0.1-0.2,0.1h-1c-0.1,0-0.1,0-0.1,0c0,0-0.1-0.1-0.1-0.1l-0.6-1.1
			l-1,1.1c0,0-0.1,0.1-0.1,0.1c0,0-0.1,0.1-0.2,0.1H17.5z"/>
		<path class="st1" d="M22.7,32.8c-0.1,0-0.1,0-0.1-0.1c0,0,0-0.1,0-0.1l0.8-3.9c0-0.1,0-0.1,0.1-0.1c0.1,0,0.1-0.1,0.2-0.1h1
			c0.1,0,0.1,0,0.1,0.1c0,0,0,0.1,0,0.1L24,32.6c0,0.1,0,0.1-0.1,0.1c0,0-0.1,0.1-0.2,0.1H22.7z M23.8,27.9c-0.1,0-0.1,0-0.1-0.1
			c0,0,0-0.1,0-0.1l0.2-0.7c0-0.1,0-0.1,0.1-0.1c0,0,0.1-0.1,0.2-0.1h1c0.1,0,0.1,0,0.1,0.1c0,0,0,0.1,0,0.1L25,27.7
			c0,0.1,0,0.1-0.1,0.1c0,0-0.1,0.1-0.2,0.1H23.8z"/>
		<path class="st1" d="M25.1,32.8c-0.1,0-0.1,0-0.1-0.1c0,0,0-0.1,0-0.1l0.8-3.9c0-0.1,0-0.1,0.1-0.1c0.1,0,0.1-0.1,0.2-0.1H27
			c0.1,0,0.1,0,0.1,0.1c0,0,0,0.1,0,0.1L27.1,29c0.2-0.2,0.4-0.3,0.6-0.4c0.2-0.1,0.5-0.2,0.8-0.2c0.3,0,0.6,0.1,0.9,0.2
			c0.2,0.1,0.4,0.4,0.5,0.6c0.1,0.3,0.1,0.6,0,1l-0.5,2.3c0,0.1,0,0.1-0.1,0.1c0,0-0.1,0.1-0.2,0.1h-1c-0.1,0-0.1,0-0.1-0.1
			c0,0,0-0.1,0-0.1l0.5-2.3c0.1-0.3,0.1-0.5,0-0.6c-0.1-0.1-0.2-0.2-0.5-0.2c-0.2,0-0.5,0.1-0.6,0.2c-0.2,0.1-0.3,0.3-0.3,0.6
			l-0.5,2.3c0,0.1,0,0.1-0.1,0.1c0,0-0.1,0.1-0.2,0.1H25.1z"/>
		<path class="st1" d="M32,34.6c-0.4,0-0.7-0.1-1-0.2c-0.3-0.1-0.5-0.2-0.6-0.4c-0.1-0.2-0.2-0.3-0.3-0.5C30,33.4,30,33.3,30,33.2
			c0-0.1,0-0.1,0.1-0.2c0,0,0.1-0.1,0.2-0.1h1.1c0.1,0,0.1,0,0.1,0c0,0,0,0.1,0,0.1c0,0.1,0,0.1,0.1,0.2c0,0.1,0.1,0.1,0.2,0.2
			c0.1,0,0.2,0.1,0.3,0.1c0.1,0,0.3,0,0.4-0.1c0.1-0.1,0.2-0.1,0.3-0.3c0.1-0.1,0.2-0.3,0.2-0.5l0.1-0.6c-0.2,0.1-0.3,0.2-0.5,0.3
			c-0.2,0.1-0.4,0.1-0.7,0.1c-0.3,0-0.5,0-0.7-0.1c-0.2-0.1-0.4-0.2-0.5-0.4c-0.1-0.2-0.2-0.4-0.2-0.6c0-0.2,0-0.5,0-0.8
			c0-0.1,0-0.2,0-0.2c0-0.1,0-0.1,0.1-0.2c0.1-0.3,0.2-0.6,0.3-0.8c0.1-0.2,0.3-0.4,0.4-0.6c0.2-0.2,0.4-0.3,0.6-0.4
			c0.2-0.1,0.5-0.1,0.8-0.1c0.3,0,0.6,0.1,0.8,0.2c0.2,0.1,0.4,0.3,0.5,0.4l0.1-0.3c0-0.1,0-0.1,0.1-0.1c0,0,0.1-0.1,0.2-0.1h1
			c0.1,0,0.1,0,0.1,0.1c0,0,0,0.1,0,0.1l-0.8,4c-0.1,0.3-0.2,0.6-0.3,0.8c-0.1,0.2-0.3,0.4-0.5,0.6c-0.2,0.2-0.4,0.3-0.7,0.4
			C32.7,34.6,32.4,34.6,32,34.6z M32.5,31.6c0.2,0,0.3,0,0.5-0.1c0.1-0.1,0.2-0.2,0.3-0.3c0.1-0.1,0.1-0.3,0.2-0.4
			c0-0.1,0-0.1,0.1-0.3c0-0.1,0-0.2,0-0.2c0-0.1,0-0.3,0-0.4c0-0.1-0.1-0.2-0.2-0.3c-0.1-0.1-0.2-0.1-0.4-0.1c-0.2,0-0.3,0-0.4,0.1
			c-0.1,0.1-0.2,0.2-0.3,0.3c-0.1,0.1-0.1,0.3-0.2,0.4c0,0.1,0,0.1,0,0.2c0,0.1,0,0.1,0,0.2c0,0.2,0,0.3,0,0.4
			c0,0.1,0.1,0.2,0.1,0.3C32.2,31.6,32.3,31.6,32.5,31.6z"/>
		<path class="st1" d="M39.6,32.9c-0.5,0-1-0.1-1.3-0.2c-0.4-0.2-0.6-0.4-0.8-0.6c-0.2-0.3-0.2-0.5-0.2-0.8c0,0,0-0.1,0.1-0.1
			c0,0,0.1-0.1,0.1-0.1h1.1c0.1,0,0.1,0,0.2,0c0,0,0.1,0.1,0.1,0.1c0,0.1,0.1,0.2,0.1,0.2c0.1,0.1,0.2,0.1,0.3,0.2
			c0.1,0,0.3,0.1,0.4,0.1c0.3,0,0.6,0,0.8-0.1c0.2-0.1,0.3-0.2,0.3-0.4c0-0.1,0-0.2-0.1-0.3c-0.1-0.1-0.2-0.1-0.4-0.2
			c-0.2-0.1-0.4-0.1-0.7-0.2c-0.4-0.1-0.7-0.2-1-0.4c-0.3-0.2-0.4-0.4-0.5-0.6c-0.1-0.2-0.1-0.5,0-0.9c0.1-0.5,0.4-0.9,0.8-1.2
			c0.4-0.3,1-0.4,1.7-0.4c0.4,0,0.7,0,0.9,0.1c0.3,0.1,0.5,0.2,0.7,0.4c0.2,0.2,0.3,0.3,0.4,0.5c0.1,0.2,0.1,0.4,0.1,0.5
			c0,0,0,0.1-0.1,0.1c0,0-0.1,0.1-0.1,0.1h-1.1c-0.1,0-0.1,0-0.1,0c0,0-0.1-0.1-0.1-0.1c0-0.1-0.1-0.2-0.2-0.3
			c-0.1-0.1-0.3-0.1-0.5-0.1c-0.2,0-0.4,0-0.6,0.1c-0.2,0.1-0.3,0.2-0.3,0.4c0,0.1,0,0.2,0,0.3c0.1,0.1,0.2,0.2,0.3,0.2
			c0.2,0.1,0.4,0.1,0.7,0.2c0.5,0.1,0.9,0.2,1.1,0.4c0.3,0.2,0.5,0.4,0.6,0.6c0.1,0.2,0.1,0.5,0,0.9c-0.1,0.6-0.4,1-0.9,1.3
			C41,32.7,40.4,32.9,39.6,32.9z"/>
		<path class="st1" d="M45,32.8c-0.4,0-0.7-0.1-0.9-0.2c-0.2-0.1-0.4-0.3-0.5-0.5c-0.1-0.2-0.1-0.5,0-0.9l0.3-1.6h-0.6
			c-0.1,0-0.1,0-0.1-0.1c0,0,0-0.1,0-0.1l0.1-0.7c0-0.1,0-0.1,0.1-0.1c0.1,0,0.1-0.1,0.2-0.1h0.7l0.3-1.4c0-0.1,0-0.1,0.1-0.1
			c0.1,0,0.1-0.1,0.2-0.1h1c0.1,0,0.1,0,0.1,0.1c0,0,0,0.1,0,0.1l-0.3,1.4h1c0.1,0,0.1,0,0.1,0.1c0,0,0,0.1,0,0.1l-0.1,0.7
			c0,0.1,0,0.1-0.1,0.1c0,0-0.1,0.1-0.2,0.1h-1l-0.3,1.5c0,0.1,0,0.2,0,0.3c0,0.1,0,0.2,0.1,0.2c0.1,0.1,0.1,0.1,0.3,0.1h0.7
			c0.1,0,0.1,0,0.1,0.1c0,0,0,0.1,0,0.1l-0.1,0.7c0,0.1,0,0.1-0.1,0.1s-0.1,0.1-0.2,0.1H45z"/>
		<path class="st1" d="M48.6,32.9c-0.4,0-0.8-0.1-1.1-0.2c-0.3-0.1-0.5-0.4-0.6-0.6c-0.1-0.3-0.2-0.6-0.1-1c0-0.1,0-0.2,0.1-0.4
			c0-0.1,0.1-0.3,0.1-0.4c0.1-0.4,0.3-0.7,0.5-1s0.5-0.5,0.8-0.6c0.3-0.1,0.7-0.2,1.2-0.2c0.4,0,0.8,0.1,1.1,0.2
			c0.3,0.1,0.5,0.4,0.7,0.6c0.1,0.3,0.2,0.6,0.1,1c0,0.1,0,0.2-0.1,0.4c0,0.1-0.1,0.3-0.1,0.4c-0.1,0.4-0.3,0.7-0.5,1
			c-0.2,0.3-0.5,0.5-0.8,0.6C49.5,32.8,49.1,32.9,48.6,32.9z M48.7,31.9c0.2,0,0.4-0.1,0.6-0.2c0.2-0.1,0.3-0.4,0.3-0.7
			c0-0.1,0-0.2,0.1-0.3c0-0.1,0.1-0.2,0.1-0.3c0.1-0.3,0-0.5,0-0.7c-0.1-0.2-0.2-0.2-0.5-0.2c-0.2,0-0.4,0.1-0.6,0.2
			c-0.2,0.2-0.3,0.4-0.3,0.7c0,0.1,0,0.2-0.1,0.3c0,0.1-0.1,0.2-0.1,0.3c-0.1,0.3,0,0.5,0,0.7C48.3,31.8,48.5,31.9,48.7,31.9z"/>
		<path class="st1" d="M51.8,32.8c-0.1,0-0.1,0-0.1-0.1s0-0.1,0-0.1l0.8-3.9c0-0.1,0-0.1,0.1-0.1c0.1,0,0.1-0.1,0.2-0.1h0.9
			c0.1,0,0.1,0,0.1,0.1c0,0,0,0.1,0,0.1L53.7,29c0.1-0.2,0.3-0.3,0.5-0.4c0.2-0.1,0.4-0.1,0.7-0.1h0.5c0.1,0,0.1,0,0.1,0.1
			c0,0,0,0.1,0,0.1l-0.2,0.9c0,0.1,0,0.1-0.1,0.1c0,0-0.1,0.1-0.2,0.1h-0.8c-0.2,0-0.4,0.1-0.6,0.2c-0.1,0.1-0.2,0.3-0.3,0.5
			l-0.4,2.1c0,0.1,0,0.1-0.1,0.1c0,0-0.1,0.1-0.2,0.1H51.8z"/>
		<path class="st1" d="M57.4,32.9c-0.4,0-0.8-0.1-1.1-0.2c-0.3-0.2-0.5-0.4-0.6-0.7c-0.1-0.3-0.1-0.7,0-1.2c0,0,0-0.1,0-0.1
			c0-0.1,0-0.1,0-0.1c0.1-0.4,0.3-0.8,0.5-1.1c0.2-0.3,0.5-0.5,0.9-0.7c0.4-0.2,0.7-0.2,1.2-0.2c0.5,0,0.9,0.1,1.1,0.3
			c0.3,0.2,0.5,0.5,0.5,0.8c0.1,0.3,0.1,0.7,0,1.1l0,0.2c0,0.1-0.1,0.1-0.1,0.1c-0.1,0-0.1,0.1-0.2,0.1h-2.6c0,0,0,0,0,0
			c0,0,0,0,0,0c0,0.2,0,0.3,0,0.4c0,0.1,0.1,0.2,0.2,0.3c0.1,0.1,0.2,0.1,0.4,0.1c0.1,0,0.2,0,0.3-0.1c0.1,0,0.2-0.1,0.2-0.1
			c0.1,0,0.1-0.1,0.1-0.1c0.1-0.1,0.1-0.1,0.1-0.1c0,0,0.1,0,0.1,0h1c0.1,0,0.1,0,0.1,0c0,0,0,0.1,0,0.1c0,0.1-0.1,0.2-0.2,0.3
			c-0.1,0.1-0.3,0.3-0.5,0.4c-0.2,0.1-0.4,0.2-0.7,0.3C58,32.8,57.7,32.9,57.4,32.9z M57.3,30.2h1.4l0,0c0-0.2,0-0.3,0-0.5
			c0-0.1-0.1-0.2-0.2-0.3c-0.1-0.1-0.2-0.1-0.4-0.1s-0.3,0-0.4,0.1c-0.1,0.1-0.2,0.2-0.3,0.3C57.4,29.9,57.3,30,57.3,30.2L57.3,30.2
			z"/>
	</g>
	<polygon class="st1" points="47.5,0.3 49.2,3.7 53.1,4.3 50.3,7 51,10.8 47.5,9 44.1,10.8 44.7,7 42,4.3 45.8,3.7 	"/>
	<polygon class="st1" points="58,4.5 59.5,7.5 62.7,7.9 60.4,10.2 60.9,13.5 58,11.9 55.1,13.5 55.7,10.2 53.3,7.9 56.6,7.5 	"/>
	<polygon class="st1" points="10.7,4.5 11.8,6.7 14.2,7 12.5,8.7 12.9,11 10.7,9.9 8.6,11 9,8.7 7.3,7 9.7,6.7 	"/>
</g>
</svg>
