<?xml version="1.0" encoding="utf-8"?>
<!-- Generator: Adobe Illustrator 23.0.2, SVG Export Plug-In . SVG Version: 6.00 Build 0)  -->
<svg version="1.1" id="Capa_1" xmlns="http://www.w3.org/2000/svg" xmlns:xlink="http://www.w3.org/1999/xlink" x="0px" y="0px"
	 viewBox="0 0 512 512" style="enable-background:new 0 0 512 512;" xml:space="preserve">
<style type="text/css">
	.st0{fill:#FFFFFF;}
</style>
<path class="st0" d="M314.8,256c0,32.5-26.3,58.8-58.8,58.8s-58.8-26.3-58.8-58.8s26.3-58.8,58.8-58.8S314.8,223.5,314.8,256z"/>
<path class="st0" d="M393.5,152c-2.8-7.7-7.3-14.6-13.2-20.3c-5.7-5.9-12.6-10.4-20.3-13.2c-6.2-2.4-15.6-5.3-32.8-6.1
	c-18.6-0.8-24.2-1-71.3-1c-47.1,0-52.7,0.2-71.3,1c-17.2,0.8-26.5,3.7-32.8,6.1c-7.7,2.8-14.6,7.3-20.3,13.2
	c-5.9,5.7-10.4,12.6-13.2,20.3c-2.4,6.2-5.3,15.6-6.1,32.8c-0.8,18.6-1,24.2-1,71.3c0,47.1,0.2,52.7,1,71.3
	c0.8,17.2,3.7,26.5,6.1,32.8c2.8,7.7,7.3,14.6,13.2,20.3c5.7,5.9,12.6,10.4,20.3,13.2c6.2,2.4,15.6,5.3,32.8,6.1
	c18.6,0.8,24.2,1,71.3,1c47.1,0,52.7-0.2,71.3-1c17.2-0.8,26.5-3.7,32.8-6.1c15.4-5.9,27.5-18.1,33.5-33.5
	c2.4-6.2,5.3-15.6,6.1-32.8c0.8-18.6,1-24.2,1-71.3c0-47.1-0.2-52.7-1-71.3C398.8,167.5,395.9,158.2,393.5,152z M256,346.6
	c-50,0-90.6-40.6-90.6-90.6s40.6-90.6,90.6-90.6c50,0,90.6,40.6,90.6,90.6S306,346.6,256,346.6z M350.2,183
	c-11.7,0-21.2-9.5-21.2-21.2s9.5-21.2,21.2-21.2c11.7,0,21.2,9.5,21.2,21.2C371.3,173.5,361.9,183,350.2,183z"/>
<path class="st0" d="M256,0C114.6,0,0,114.6,0,256s114.6,256,256,256s256-114.6,256-256S397.4,0,256,0z M431.3,328.7
	c-0.9,18.8-3.8,31.6-8.2,42.8c-9.2,23.7-27.9,42.4-51.6,51.6c-11.2,4.4-24,7.3-42.8,8.2c-18.8,0.9-24.8,1.1-72.7,1.1
	c-47.9,0-53.9-0.2-72.7-1.1c-18.8-0.9-31.6-3.8-42.8-8.2c-11.8-4.4-22.4-11.4-31.2-20.3c-9-8.8-15.9-19.5-20.3-31.2
	c-4.4-11.2-7.3-24-8.2-42.8c-0.9-18.8-1.1-24.8-1.1-72.7s0.2-53.9,1.1-72.7c0.9-18.8,3.8-31.6,8.2-42.8
	c4.4-11.8,11.4-22.4,20.4-31.2c8.8-9,19.5-15.9,31.2-20.3c11.2-4.4,24-7.3,42.8-8.2c18.8-0.9,24.8-1.1,72.7-1.1s53.9,0.2,72.7,1.1
	c18.8,0.9,31.6,3.8,42.8,8.2c11.8,4.4,22.4,11.4,31.2,20.4c9,8.8,15.9,19.5,20.3,31.2c4.4,11.2,7.3,24,8.2,42.8
	c0.9,18.8,1.1,24.8,1.1,72.7S432.2,309.9,431.3,328.7z"/>
</svg>
