<?xml version="1.0" encoding="utf-8"?>
<!-- Generator: Adobe Illustrator 23.0.2, SVG Export Plug-In . SVG Version: 6.00 Build 0)  -->
<svg version="1.1" id="Capa_1" xmlns="http://www.w3.org/2000/svg" xmlns:xlink="http://www.w3.org/1999/xlink" x="0px" y="0px"
	 viewBox="0 0 50 33.1" style="enable-background:new 0 0 50 33.1;" xml:space="preserve">
<style type="text/css">
	.st0{fill:#EDEDED;}
</style>
<path class="st0" d="M-0.1,24.8v4.4c3.6,0,6.8,1.5,9.1,3.9h5.4C11.5,28.2,6.1,24.8-0.1,24.8z M35.5,33.1H41c2.3-2.4,5.5-3.9,9.1-3.9
	v-4.4C43.9,24.8,38.5,28.2,35.5,33.1z M50,4.3V0c-4.1,0-7.5,2.8-8.4,6.6c-1-0.9-2.1-1.8-3.3-2.5C39,2.5,39.9,1.1,41,0h-5.4
	c-0.4,0.7-0.7,1.3-1,2c-1.2-0.5-2.4-0.9-3.6-1.2C31,0.5,31.1,0.3,31.3,0H18.7c0.1,0.3,0.2,0.5,0.3,0.8c-1.2,0.3-2.4,0.7-3.6,1.2
	c-0.3-0.7-0.6-1.3-1-2H9c1.1,1.1,1.9,2.5,2.5,4c-1.2,0.7-2.3,1.6-3.3,2.5C7.3,2.7,4,0-0.1,0v4.4c2.3,0,4.2,1.9,4.2,4.2
	c0,2.3-1.9,4.2-4.2,4.2V21c0,0,0,0,0,0c8.4,0,15.5,5,18.8,12.1h12.5C34.5,26,41.7,21.1,50,21v-8.2c-2.3,0-4.2-1.9-4.2-4.2
	C45.8,6.2,47.7,4.3,50,4.3z M24.9,29.4c-2.3,0-4.2-1.9-4.2-4.2c0-2.3,1.9-4.2,4.2-4.2c2.3,0,4.2,1.9,4.2,4.2
	C29.1,27.5,27.2,29.4,24.9,29.4z M33.3,23.1c-0.9-3.8-4.3-6.6-8.4-6.6c-4,0-7.4,2.7-8.3,6.4c-1-0.9-2.1-1.7-3.3-2.5
	c1.8-4.6,6.3-7.9,11.6-7.9c5.3,0,9.8,3.3,11.7,8C35.4,21.4,34.3,22.2,33.3,23.1z M40.5,18.6c-2.6-6.1-8.6-10.3-15.6-10.3
	c-7,0-13,4.2-15.5,10.3C8.2,18,7,17.7,5.7,17.4C8.8,9.8,16.2,4.5,24.9,4.5c8.7,0,16.1,5.4,19.2,12.9C42.8,17.7,41.6,18.1,40.5,18.6z
	"/>
</svg>
